
<svg width="295" height="198" viewBox="0 0 295 198" fill="none" xmlns="http://www.w3.org/2000/svg">
<rect x="0.5" y="31.5" width="294" height="99" rx="19.5" stroke="#6386FF" stroke-opacity="0.2"/>
<rect x="20" y="1" width="255" height="160" rx="20" fill="white"/>
<rect x="19.5" y="0.5" width="256" height="161" rx="20.5" stroke="#6386FF" stroke-opacity="0.2"/>
<path fill-rule="evenodd" clip-rule="evenodd" d="M220.135 31C220.135 25.4772 215.658 21 210.135 21H50C44.4772 21 40 25.4772 40 31C40 36.5228 44.4771 41 50 41H210.135C215.658 41 220.135 36.5228 220.135 31ZM255 57C255 53.6863 252.314 51 249 51H46C42.6863 51 40 53.6863 40 57C40 60.3137 42.6863 63 46 63H249C252.314 63 255 60.3137 255 57ZM40 77C40 73.6863 42.6863 71 46 71H237.378C240.692 71 243.378 73.6863 243.378 77C243.378 80.3137 240.692 83 237.378 83H46C42.6863 83 40 80.3137 40 77ZM255 97C255 93.6863 252.314 91 249 91H46C42.6863 91 40 93.6863 40 97C40 100.314 42.6863 103 46 103H249C252.314 103 255 100.314 255 97ZM40 117C40 113.686 42.6863 111 46 111H237.378C240.692 111 243.378 113.686 243.378 117C243.378 120.314 240.692 123 237.378 123H46C42.6863 123 40 120.314 40 117ZM243.378 137C243.378 133.686 240.692 131 237.378 131H46C42.6863 131 40 133.686 40 137C40 140.314 42.6863 143 46 143H237.378C240.692 143 243.378 140.314 243.378 137Z" fill="url(#paint0_linear_1335_439)"/>
<rect x="78.8415" y="124.955" width="64" height="74" rx="15" transform="rotate(-10 78.8415 124.955)" fill="white" stroke="#E1E8F2" stroke-width="2"/>
<path fill-rule="evenodd" clip-rule="evenodd" d="M113.208 136.646C112.813 136.27 112.366 136.123 111.906 136.296C111.784 136.342 111.643 136.485 111.572 136.877C111.502 137.262 111.522 137.794 111.64 138.418C111.874 139.662 112.471 141.141 113.277 142.276C113.472 142.551 113.692 142.837 113.932 143.129C113.961 142.788 113.986 142.444 114.007 142.104C114.06 141.225 114.086 140.382 114.085 139.683C114.084 138.973 114.055 138.439 114.006 138.162C113.91 137.617 113.612 137.031 113.208 136.646ZM114.718 144.032C114.782 143.414 114.833 142.781 114.87 142.168C114.925 141.273 114.952 140.411 114.951 139.69C114.95 138.979 114.921 138.375 114.857 138.012C114.73 137.288 114.345 136.523 113.794 135.998C113.234 135.465 112.454 135.141 111.602 135.461C111.069 135.661 110.817 136.176 110.721 136.706C110.624 137.243 110.662 137.898 110.79 138.579C111.048 139.945 111.694 141.548 112.579 142.795C112.927 143.285 113.346 143.804 113.814 144.331C113.699 145.323 113.549 146.234 113.367 146.903C113.272 147.249 113.169 147.679 113.052 148.166C112.91 148.754 112.749 149.426 112.558 150.138C110.677 151.128 109.097 152.281 107.944 153.39C107.351 153.961 106.864 154.526 106.508 155.058C106.155 155.583 105.911 156.103 105.838 156.582C105.776 156.986 105.847 157.351 106.04 157.65C106.228 157.942 106.506 158.132 106.795 158.247C107.359 158.473 108.059 158.453 108.593 158.258C109.572 157.901 110.361 157.14 111.001 156.214C111.642 155.286 112.155 154.161 112.572 153.02C112.846 152.268 113.083 151.496 113.289 150.758C114.95 149.906 116.688 149.094 118.324 148.452C119.011 148.957 119.679 149.389 120.285 149.706C121.567 150.378 122.9 150.492 123.978 150.358C124.517 150.292 125.001 150.162 125.391 150.004C125.768 149.851 126.103 149.653 126.302 149.421C126.718 148.935 126.734 148.098 126.321 147.431C125.886 146.728 125.006 146.223 123.632 146.218C122.28 146.213 120.504 146.686 118.616 147.389C118.561 147.409 118.506 147.43 118.45 147.451C117.881 147.015 117.299 146.529 116.728 146.016C116.015 145.374 115.328 144.697 114.718 144.032ZM114.582 145.16C114.478 145.91 114.351 146.599 114.2 147.15C114.116 147.459 114.019 147.861 113.907 148.327C113.814 148.716 113.71 149.148 113.593 149.609C114.887 148.963 116.218 148.347 117.504 147.823C117.054 147.463 116.602 147.079 116.161 146.682C115.616 146.191 115.082 145.677 114.582 145.16ZM119.313 148.08C119.793 148.412 120.252 148.695 120.672 148.915C121.77 149.491 122.923 149.593 123.866 149.476C124.338 149.418 124.749 149.306 125.067 149.177C125.398 149.042 125.584 148.907 125.649 148.831C125.76 148.701 125.845 148.311 125.592 147.903C125.361 147.53 124.807 147.111 123.637 147.107C122.529 147.103 121.021 147.471 119.313 148.08ZM112.215 151.339C110.727 152.195 109.476 153.14 108.539 154.041C107.978 154.581 107.535 155.099 107.222 155.567C106.904 156.04 106.738 156.434 106.693 156.728C106.66 156.941 106.702 157.075 106.76 157.165C106.823 157.262 106.934 157.352 107.102 157.419C107.45 157.559 107.934 157.553 108.296 157.421C109.049 157.146 109.711 156.539 110.294 155.695C110.876 154.853 111.358 153.805 111.761 152.701C111.927 152.248 112.077 151.79 112.215 151.339Z" fill="#1B48BB"/>
<path d="M110.231 176.284L108.842 168.406L111.579 167.923C112.176 167.818 112.691 167.842 113.122 167.996C113.554 168.15 113.902 168.403 114.165 168.756C114.428 169.107 114.601 169.523 114.687 170.005C114.772 170.49 114.75 170.943 114.621 171.365C114.494 171.784 114.253 172.141 113.898 172.437C113.545 172.729 113.071 172.928 112.476 173.033L110.594 173.364L110.416 172.357L112.193 172.043C112.57 171.977 112.865 171.856 113.076 171.681C113.287 171.504 113.427 171.289 113.496 171.036C113.565 170.783 113.573 170.508 113.521 170.211C113.468 169.913 113.367 169.659 113.216 169.447C113.065 169.236 112.86 169.086 112.599 168.997C112.341 168.907 112.02 168.897 111.635 168.964L110.18 169.221L111.389 176.08L110.231 176.284Z" fill="#0099FF"/>
<path d="M119.259 174.692L116.773 175.131L115.384 167.252L117.948 166.8C118.7 166.667 119.374 166.711 119.97 166.931C120.565 167.149 121.058 167.526 121.449 168.063C121.842 168.597 122.111 169.272 122.255 170.09C122.4 170.911 122.378 171.642 122.189 172.284C122.003 172.925 121.664 173.453 121.17 173.868C120.675 174.28 120.038 174.555 119.259 174.692ZM117.748 173.888L119.012 173.665C119.597 173.562 120.063 173.363 120.41 173.069C120.758 172.773 120.989 172.392 121.106 171.927C121.222 171.46 121.225 170.915 121.115 170.291C121.006 169.673 120.817 169.166 120.549 168.769C120.283 168.372 119.942 168.095 119.525 167.938C119.108 167.781 118.62 167.753 118.06 167.851L116.725 168.087L117.748 173.888Z" fill="#0099FF"/>
<path d="M124.181 173.824L122.792 165.946L127.553 165.106L127.734 166.13L124.131 166.765L124.554 169.165L127.816 168.59L127.995 169.61L124.734 170.185L125.339 173.62L124.181 173.824Z" fill="#0099FF"/>
<path fill-rule="evenodd" clip-rule="evenodd" d="M94.8857 135.327C94.3418 135.423 93.9786 135.941 94.0745 136.485L98.763 163.075L136.186 156.476L133.053 138.71C132.928 138.759 132.794 138.797 132.652 138.822L126.166 139.965C124.535 140.253 122.979 139.163 122.691 137.532L121.547 131.046C121.522 130.904 121.512 130.765 121.516 130.631L94.8857 135.327ZM101.889 180.801L99.1103 165.044L136.533 158.446L139.311 174.203C139.503 175.291 138.777 176.328 137.689 176.52L104.206 182.424C103.118 182.616 102.081 181.889 101.889 180.801ZM92.1049 136.832L96.7934 163.422L99.9191 181.149L100.093 182.134C100.38 183.765 101.936 184.855 103.568 184.567L104.553 184.393L138.036 178.489L139.021 178.316C140.653 178.028 141.742 176.472 141.455 174.84L141.281 173.855L138.155 156.129L134.82 137.216C134.687 136.462 134.271 135.787 133.656 135.329L125.052 128.931C124.39 128.439 123.554 128.241 122.741 128.384L94.5384 133.357C92.9067 133.645 91.8172 135.201 92.1049 136.832ZM124.661 137.184L123.517 130.699L132.305 136.852L125.819 137.996C125.275 138.092 124.757 137.728 124.661 137.184Z" fill="#1B48BB"/>
<rect x="152.189" y="114.842" width="64" height="74" rx="15" transform="rotate(10 152.189 114.842)" fill="white" stroke="#E1E8F2" stroke-width="2"/>
<path d="M165.647 173.97L163.164 173.532L164.517 165.864L167.078 166.315C167.829 166.448 168.448 166.715 168.933 167.117C169.418 167.517 169.754 168.028 169.94 168.65C170.13 169.27 170.154 169.979 170.014 170.775C169.873 171.574 169.606 172.234 169.212 172.757C168.821 173.28 168.324 173.648 167.72 173.861C167.117 174.071 166.426 174.107 165.647 173.97ZM164.5 172.725L165.762 172.948C166.346 173.051 166.851 173.027 167.276 172.875C167.703 172.721 168.049 172.452 168.315 172.066C168.581 171.678 168.768 171.181 168.875 170.574C168.981 169.973 168.975 169.445 168.857 168.992C168.741 168.539 168.514 168.171 168.175 167.887C167.837 167.603 167.388 167.412 166.829 167.314L165.495 167.079L164.5 172.725Z" fill="#0099FF"/>
<path d="M177.901 172.177C177.757 172.996 177.483 173.674 177.079 174.21C176.676 174.744 176.186 175.123 175.608 175.348C175.034 175.571 174.415 175.624 173.754 175.508C173.09 175.391 172.525 175.129 172.058 174.722C171.595 174.314 171.266 173.788 171.07 173.146C170.874 172.505 170.848 171.775 170.992 170.959C171.137 170.14 171.41 169.464 171.813 168.93C172.217 168.394 172.706 168.014 173.281 167.791C173.858 167.566 174.479 167.512 175.143 167.629C175.805 167.746 176.367 168.009 176.83 168.417C177.297 168.824 177.628 169.348 177.823 169.99C178.019 170.629 178.045 171.358 177.901 172.177ZM176.755 171.975C176.865 171.351 176.857 170.808 176.73 170.345C176.606 169.881 176.388 169.508 176.078 169.226C175.77 168.943 175.396 168.763 174.957 168.685C174.515 168.607 174.101 168.649 173.715 168.81C173.329 168.968 172.997 169.244 172.719 169.638C172.444 170.03 172.252 170.538 172.142 171.162C172.032 171.786 172.039 172.33 172.163 172.795C172.29 173.257 172.507 173.63 172.815 173.914C173.123 174.194 173.498 174.374 173.94 174.452C174.379 174.529 174.792 174.489 175.178 174.33C175.566 174.17 175.898 173.894 176.173 173.502C176.451 173.108 176.645 172.599 176.755 171.975Z" fill="#0099FF"/>
<path d="M185.738 172.177L184.57 171.971C184.569 171.713 184.524 171.479 184.435 171.268C184.347 171.056 184.225 170.869 184.071 170.705C183.917 170.542 183.737 170.407 183.529 170.301C183.323 170.195 183.098 170.121 182.854 170.078C182.412 170 181.997 170.041 181.608 170.202C181.222 170.363 180.89 170.64 180.612 171.034C180.337 171.428 180.144 171.934 180.035 172.554C179.925 173.178 179.932 173.722 180.056 174.187C180.182 174.652 180.401 175.025 180.712 175.306C181.023 175.587 181.396 175.767 181.833 175.844C182.075 175.886 182.311 175.894 182.539 175.868C182.771 175.839 182.987 175.775 183.187 175.677C183.387 175.578 183.565 175.446 183.72 175.281C183.878 175.113 184.003 174.911 184.093 174.675L185.261 174.884C185.132 175.25 184.95 175.576 184.714 175.861C184.482 176.144 184.205 176.376 183.885 176.557C183.568 176.735 183.22 176.855 182.841 176.917C182.462 176.979 182.061 176.973 181.64 176.898C180.976 176.781 180.412 176.52 179.948 176.113C179.485 175.705 179.155 175.18 178.959 174.538C178.766 173.896 178.742 173.167 178.886 172.351C179.03 171.532 179.304 170.856 179.707 170.322C180.11 169.786 180.599 169.406 181.174 169.183C181.749 168.957 182.367 168.903 183.029 169.02C183.436 169.091 183.805 169.217 184.136 169.396C184.47 169.574 184.759 169.8 185.001 170.074C185.244 170.346 185.429 170.659 185.557 171.014C185.686 171.366 185.746 171.754 185.738 172.177Z" fill="#0099FF"/>
<path fill-rule="evenodd" clip-rule="evenodd" d="M163.718 130.075C163.175 129.979 162.656 130.342 162.56 130.886L157.871 157.476L195.294 164.075L198.427 146.308C198.292 146.311 198.154 146.301 198.012 146.276L191.526 145.133C189.895 144.845 188.805 143.289 189.093 141.657L190.236 135.171C190.261 135.03 190.299 134.896 190.348 134.771L163.718 130.075ZM154.746 175.203L157.524 159.446L194.947 166.044L192.169 181.801C191.977 182.889 190.939 183.615 189.852 183.423L156.368 177.519C155.28 177.328 154.554 176.29 154.746 175.203ZM160.59 130.539L155.902 157.129L152.776 174.855L152.603 175.84C152.315 177.472 153.404 179.028 155.036 179.315L156.021 179.489L189.504 185.393L190.489 185.567C192.121 185.854 193.677 184.765 193.964 183.133L194.138 182.148L197.264 164.422L200.599 145.509C200.732 144.754 200.571 143.978 200.15 143.338L194.253 134.383C193.799 133.694 193.081 133.222 192.269 133.078L164.066 128.105C162.434 127.818 160.878 128.907 160.59 130.539ZM191.062 142.004L192.206 135.519L198.359 144.307L191.874 143.163C191.33 143.067 190.966 142.548 191.062 142.004Z" fill="#1B48BB"/>
<path d="M172.368 154.955L171.02 140.501L172.3 140.727L173.335 153.133L173.443 153.152L178.659 141.848L180.115 142.105L181.15 154.511L181.258 154.53L186.474 143.226L187.761 143.453L181.551 156.574L180.203 156.336L179.065 144.078L178.977 144.063L173.715 155.192L172.368 154.955Z" fill="#1B48BB"/>
<defs>
<linearGradient id="paint0_linear_1335_439" x1="147.5" y1="21" x2="147.5" y2="136.297" gradientUnits="userSpaceOnUse">
<stop stop-color="#EBF2FC"/>
<stop offset="1" stop-color="#EBF2FC" stop-opacity="0.2"/>
</linearGradient>
</defs>
</svg>
