
<svg width="75" height="82" viewBox="0 0 75 82" fill="none" xmlns="http://www.w3.org/2000/svg">
<rect x="12.1888" y="-1.15846" width="64" height="74" rx="15" transform="rotate(10 12.1888 -1.15846)" fill="white" stroke="#E1E8F2" stroke-width="2"/>
<path d="M25.6471 57.9702L23.1645 57.5324L24.5167 49.8636L27.0779 50.3153C27.8293 50.4477 28.4476 50.7151 28.9326 51.1172C29.4181 51.5168 29.754 52.0278 29.9403 52.6501C30.1295 53.2703 30.1539 53.9786 30.0135 54.7749C29.8727 55.5737 29.6056 56.2345 29.2123 56.7571C28.8214 57.2802 28.3241 57.6481 27.7204 57.8608C27.117 58.0711 26.4259 58.1075 25.6471 57.9702ZM24.4998 56.7254L25.7617 56.9479C26.3458 57.0509 26.8507 57.0267 27.2764 56.8752C27.7025 56.7213 28.0487 56.4516 28.3148 56.0661C28.5814 55.6781 28.7682 55.1808 28.8752 54.5742C28.9813 53.9726 28.9752 53.4451 28.8569 52.9918C28.7411 52.539 28.5139 52.1707 28.1753 51.8871C27.8366 51.6034 27.3877 51.4123 26.8285 51.3137L25.4955 51.0787L24.4998 56.7254Z" fill="#0099FF"/>
<path d="M37.901 56.1772C37.7566 56.996 37.4827 57.6736 37.0792 58.2099C36.6762 58.7437 36.1859 59.1232 35.6083 59.3482C35.0336 59.5712 34.4155 59.6244 33.7539 59.5077C33.0899 59.3906 32.5247 59.1288 32.0585 58.7223C31.5951 58.3137 31.2656 57.7884 31.0699 57.1465C30.8743 56.5045 30.8484 55.7754 30.9923 54.9591C31.1367 54.1403 31.4104 53.464 31.8134 52.9301C32.2168 52.3938 32.7059 52.0142 33.2806 51.7912C33.8582 51.5661 34.4791 51.5122 35.1431 51.6293C35.8046 51.7459 36.3671 52.0085 36.8304 52.4171C37.2967 52.8236 37.6277 53.3479 37.8233 53.9899C38.0195 54.6293 38.0453 55.3584 37.901 56.1772ZM36.7551 55.9752C36.8652 55.3511 36.8567 54.8078 36.7298 54.3453C36.6058 53.8807 36.3884 53.5078 36.0777 53.2265C35.7699 52.9431 35.3963 52.7627 34.9569 52.6852C34.5151 52.6073 34.1011 52.6488 33.7149 52.8098C33.3292 52.9683 32.9973 53.2444 32.7194 53.6381C32.4444 54.0298 32.2519 54.5377 32.1419 55.1618C32.0319 55.7859 32.0388 56.3302 32.1628 56.7948C32.2898 57.2573 32.5071 57.6302 32.815 57.9136C33.1232 58.1945 33.4983 58.3739 33.9401 58.4518C34.3795 58.5292 34.792 58.4887 35.1777 58.3302C35.5664 58.1697 35.8982 57.8936 36.1732 57.5019C36.4511 57.1082 36.6451 56.5993 36.7551 55.9752Z" fill="#0099FF"/>
<path d="M45.7384 56.177L44.5702 55.971C44.5692 55.7134 44.5243 55.479 44.4355 55.2677C44.3466 55.0564 44.2252 54.869 44.0713 54.7054C43.9174 54.5419 43.7365 54.407 43.5287 54.3009C43.3235 54.1952 43.0985 54.1208 42.8538 54.0777C42.412 53.9997 41.9967 54.0411 41.6081 54.2016C41.2219 54.3626 40.8899 54.64 40.6119 55.0337C40.3365 55.4278 40.1442 55.9345 40.0351 56.5535C39.925 57.1776 39.932 57.722 40.056 58.1866C40.1825 58.6516 40.4011 59.0247 40.7119 59.306C41.0226 59.5873 41.3964 59.7665 41.8333 59.8435C42.0754 59.8862 42.3108 59.8943 42.5395 59.8677C42.771 59.839 42.9869 59.7754 43.187 59.6768C43.3871 59.5783 43.5649 59.4462 43.7202 59.2805C43.8785 59.1128 44.0029 58.9108 44.0934 58.6745L45.2611 58.8843C45.1322 59.2502 44.9499 59.5759 44.7143 59.8612C44.4816 60.1445 44.2052 60.3763 43.8851 60.5567C43.568 60.735 43.2199 60.8551 42.8409 60.917C42.4619 60.9788 42.0615 60.9726 41.6396 60.8982C40.9756 60.7811 40.4117 60.5195 39.9479 60.1134C39.4846 59.7048 39.1551 59.1795 38.9594 58.5376C38.7662 57.8961 38.7416 57.1672 38.8855 56.3509C39.0299 55.532 39.3036 54.8557 39.7066 54.3219C40.11 53.7856 40.5991 53.406 41.1738 53.183C41.7489 52.9575 42.3673 52.9031 43.0288 53.0197C43.4357 53.0915 43.8048 53.217 44.1361 53.3964C44.4703 53.5738 44.7587 53.7996 45.0012 54.074C45.2441 54.346 45.4295 54.6592 45.5574 55.0138C45.6858 55.3659 45.7462 55.7536 45.7384 56.177Z" fill="#0099FF"/>
<path fill-rule="evenodd" clip-rule="evenodd" d="M23.7185 14.075C23.1746 13.9791 22.6559 14.3423 22.56 14.8862L17.8715 41.476L55.2942 48.0746L58.4269 30.3081C58.2925 30.3113 58.1539 30.3012 58.0119 30.2762L51.5262 29.1326C49.8945 28.8449 48.805 27.2889 49.0927 25.6572L50.2363 19.1715C50.2614 19.0295 50.2993 18.8958 50.3483 18.7706L23.7185 14.075ZM14.7458 59.2025L17.5242 43.4456L54.9469 50.0442L52.1685 65.8012C51.9767 66.889 50.9394 67.6153 49.8516 67.4235L16.3681 61.5195C15.2804 61.3276 14.554 60.2903 14.7458 59.2025ZM20.5904 14.5389L15.9019 41.1287L12.7762 58.8552L12.6026 59.8401C12.3149 61.4717 13.4044 63.0277 15.036 63.3154L16.0209 63.4891L49.5043 69.3931L50.4891 69.5668C52.1208 69.8545 53.6768 68.765 53.9645 67.1333L54.1381 66.1485L57.2638 48.4219L60.5987 29.5089C60.7317 28.7545 60.5711 27.9778 60.1499 27.3381L54.2532 18.3829C53.7993 17.6936 53.0814 17.2217 52.2686 17.0783L24.0658 12.1054C22.4341 11.8177 20.8781 12.9072 20.5904 14.5389ZM51.0623 26.0045L52.206 19.5188L58.3592 28.3066L51.8735 27.163C51.3296 27.0671 50.9664 26.5484 51.0623 26.0045Z" fill="#1B48BB"/>
<path d="M32.368 38.9547L31.0195 24.501L32.2996 24.7267L33.3352 37.1331L33.443 37.1521L38.6594 25.8481L40.1146 26.1047L41.1503 38.5111L41.2581 38.5301L46.4745 27.2261L47.7613 27.453L41.5507 40.5739L40.2032 40.3363L39.065 28.0784L38.9774 28.0629L33.7154 39.1923L32.368 38.9547Z" fill="#1B48BB"/>
</svg>
