
<svg width="74" height="82" viewBox="0 0 74 82" fill="none" xmlns="http://www.w3.org/2000/svg">
<rect x="-1.15846" y="9.95495" width="64" height="74" rx="15" transform="rotate(-10 -1.15846 9.95495)" fill="white" stroke="#E1E8F2" stroke-width="2"/>
<path fill-rule="evenodd" clip-rule="evenodd" d="M33.208 21.6465C32.8125 21.2695 32.3661 21.123 31.9063 21.2958C31.7838 21.3419 31.643 21.4849 31.572 21.8768C31.5022 22.2622 31.5224 22.7944 31.64 23.4181C31.8743 24.6615 32.4709 26.1409 33.2769 27.2762C33.4717 27.5507 33.6918 27.8366 33.9324 28.1294C33.9611 27.7876 33.9859 27.4438 34.0066 27.1039C34.0602 26.2247 34.0864 25.3823 34.0853 24.6828C34.0842 23.973 34.0548 23.4394 34.0058 23.1617C33.9098 22.617 33.6117 22.0313 33.208 21.6465ZM34.7182 29.0319C34.7824 28.4139 34.8331 27.7806 34.8704 27.168C34.925 26.2729 34.9519 25.4113 34.9508 24.6899C34.9497 23.9789 34.9215 23.3749 34.8574 23.0115C34.7298 22.2881 34.3449 21.5233 33.7936 20.9978C33.2341 20.4645 32.4535 20.1409 31.602 20.4609C31.0688 20.6612 30.8171 21.1757 30.721 21.7061C30.6238 22.2429 30.6618 22.8976 30.7903 23.5789C31.0479 24.9454 31.694 26.5483 32.5792 27.7952C32.9272 28.2854 33.3465 28.8043 33.8135 29.3306C33.699 30.3226 33.5494 31.2336 33.3667 31.9027C33.272 32.2494 33.1687 32.679 33.0516 33.1663C32.9103 33.7542 32.7488 34.426 32.5577 35.1377C30.6774 36.1278 29.0974 37.2809 27.9442 38.3901C27.3506 38.9611 26.8641 39.5262 26.5076 40.0575C26.1551 40.5828 25.9108 41.1031 25.8377 41.5818C25.7759 41.9864 25.8471 42.351 26.0401 42.6502C26.2283 42.942 26.5064 43.1319 26.7945 43.2472C27.3589 43.4729 28.0588 43.4533 28.5929 43.2583C29.5719 42.9009 30.3613 42.1403 31.0012 41.214C31.6424 40.286 32.1553 39.1605 32.5719 38.0198C32.8464 37.2681 33.0833 36.4963 33.2888 35.7582C34.9496 34.9059 36.6882 34.0936 38.3237 33.4519C39.0113 33.9572 39.6792 34.389 40.2847 34.7063C41.5674 35.3783 42.9002 35.4918 43.978 35.3584C44.5174 35.2916 45.0008 35.1621 45.3913 35.0037C45.768 34.8509 46.1034 34.6529 46.3017 34.4212C46.7177 33.9349 46.7342 33.098 46.3209 32.4307C45.8855 31.728 45.0057 31.2229 43.6315 31.218C42.28 31.2132 40.5044 31.6862 38.6164 32.3886C38.5611 32.4092 38.5057 32.43 38.4501 32.451C37.8814 32.0153 37.2987 31.5292 36.728 31.0158C36.015 30.3745 35.3284 29.6973 34.7182 29.0319ZM34.5822 30.1598C34.4779 30.9102 34.3508 31.5989 34.2002 32.1503C34.1158 32.4593 34.0192 32.8611 33.9071 33.3274C33.8138 33.7155 33.7097 34.1483 33.593 34.6094C34.8874 33.9626 36.2183 33.3472 37.5043 32.8228C37.0539 32.4627 36.6024 32.0787 36.1612 31.6818C35.6158 31.1912 35.0821 30.6773 34.5822 30.1598ZM39.3132 33.0805C39.7933 33.4119 40.2521 33.6954 40.6721 33.9154C41.7703 34.4908 42.9226 34.5928 43.8662 34.476C44.3376 34.4177 44.749 34.3056 45.0666 34.1767C45.3979 34.0423 45.5838 33.9072 45.6491 33.831C45.7599 33.7014 45.8448 33.3109 45.5919 32.9026C45.3609 32.5297 44.8066 32.1109 43.6369 32.1068C42.5292 32.1028 41.0207 32.4706 39.3132 33.0805ZM32.2148 36.3388C30.7269 37.1945 29.4763 38.1401 28.5392 39.0414C27.9781 39.5811 27.5354 40.0992 27.2218 40.5665C26.9042 41.0399 26.7377 41.4338 26.6928 41.7277C26.6602 41.9411 26.7023 42.0746 26.7603 42.1645C26.823 42.2618 26.9336 42.3521 27.1019 42.4194C27.4503 42.5588 27.9345 42.5526 28.296 42.4206C29.0487 42.1458 29.7105 41.5392 30.2937 40.6951C30.8757 39.8528 31.3579 38.8048 31.7611 37.7007C31.9266 37.2477 32.0771 36.7903 32.2148 36.3388Z" fill="#1B48BB"/>
<path d="M30.231 61.2842L28.8418 53.4058L31.5787 52.9232C32.176 52.8178 32.6906 52.8421 33.1223 52.9961C33.5541 53.15 33.9016 53.4034 34.1648 53.7563C34.4276 54.1066 34.6015 54.5228 34.6865 55.005C34.772 55.4897 34.7501 55.9431 34.621 56.3652C34.4938 56.7842 34.2527 57.1414 33.8976 57.4367C33.5445 57.729 33.0706 57.9276 32.4757 58.0325L30.5936 58.3644L30.4159 57.3565L32.193 57.0432C32.5704 56.9766 32.8648 56.8559 33.0763 56.6812C33.2873 56.5038 33.4272 56.2887 33.496 56.036C33.5648 55.7832 33.573 55.5081 33.5205 55.2106C33.4681 54.9131 33.3665 54.6586 33.2158 54.4472C33.0652 54.2358 32.8596 54.0856 32.5991 53.9967C32.3411 53.9073 32.0196 53.8966 31.6347 53.9644L30.18 54.2209L31.3895 61.08L30.231 61.2842Z" fill="#0099FF"/>
<path d="M39.2586 59.6924L36.7729 60.1307L35.3838 52.2522L37.9482 51.8001C38.7005 51.6674 39.3744 51.7112 39.9699 51.9315C40.5649 52.1491 41.0579 52.5263 41.4489 53.0629C41.842 53.5965 42.1106 54.2724 42.2549 55.0905C42.3996 55.9112 42.3777 56.6422 42.1893 57.2836C42.0034 57.9246 41.6635 58.4526 41.1697 58.8676C40.6755 59.28 40.0384 59.5549 39.2586 59.6924ZM37.7483 58.8878L39.0117 58.665C39.5966 58.5619 40.0628 58.3633 40.4104 58.0693C40.7576 57.7727 40.9894 57.3921 41.1059 56.9273C41.2219 56.4599 41.225 55.9146 41.1151 55.2914C41.0062 54.6734 40.8174 54.1659 40.549 53.769C40.2831 53.3716 39.9418 53.0946 39.525 52.9381C39.1082 52.7815 38.6199 52.7526 38.0601 52.8513L36.7254 53.0866L37.7483 58.8878Z" fill="#0099FF"/>
<path d="M44.1809 58.8245L42.7918 50.946L47.5531 50.1064L47.7336 51.1297L44.1307 51.765L44.5539 54.1655L47.8157 53.5903L47.9954 54.6098L44.7337 55.1849L45.3394 58.6202L44.1809 58.8245Z" fill="#0099FF"/>
<path fill-rule="evenodd" clip-rule="evenodd" d="M14.8857 20.3266C14.3418 20.4225 13.9786 20.9412 14.0745 21.4851L18.763 48.0749L56.1857 41.4762L53.053 23.7097C52.9278 23.7587 52.7941 23.7966 52.6522 23.8216L46.1664 24.9652C44.5347 25.253 42.9788 24.1635 42.6911 22.5318L41.5474 16.046C41.5224 15.9041 41.5123 15.7655 41.5156 15.631L14.8857 20.3266ZM21.8887 65.8014L19.1103 50.0445L56.533 43.4459L59.3114 59.2028C59.5032 60.2906 58.7769 61.3279 57.6891 61.5197L24.2056 67.4237C23.1178 67.6155 22.0805 66.8892 21.8887 65.8014ZM12.1049 21.8324L16.7934 48.4222L19.9191 66.1487L20.0927 67.1335C20.3805 68.7652 21.9364 69.8547 23.5681 69.567L24.5529 69.3933L58.0364 63.4893L59.0212 63.3157C60.6529 63.0279 61.7424 61.472 61.4547 59.8403L61.281 58.8555L58.1554 41.1289L54.8205 22.2159C54.6875 21.4615 54.2709 20.7866 53.6563 20.3295L45.0524 13.9312C44.3901 13.4386 43.5541 13.2407 42.7412 13.3841L14.5384 18.357C12.9067 18.6447 11.8172 20.2007 12.1049 21.8324ZM44.6607 22.1845L43.5171 15.6987L52.3049 21.852L45.8191 22.9956C45.2752 23.0915 44.7566 22.7284 44.6607 22.1845Z" fill="#1B48BB"/>
</svg>
