
<svg width="173" height="68" viewBox="0 0 173 68" fill="none" xmlns="http://www.w3.org/2000/svg">
<rect x="4" y="4" width="165" height="60" rx="16" fill="black"/>
<rect x="2" y="2" width="169" height="64" rx="18" stroke="black" stroke-opacity="0.1" stroke-width="4"/>
<path d="M42.0455 34.8903C42.012 31.353 45.0969 29.632 45.238 29.5519C43.4909 27.134 40.7828 26.8037 39.8312 26.7773C37.5568 26.5501 35.3506 28.0691 34.192 28.0691C33.0103 28.0691 31.2261 26.7993 29.3032 26.8366C26.8288 26.8728 24.5139 28.2327 23.2443 30.3443C20.6241 34.65 22.5783 40.9773 25.0886 44.4576C26.3443 46.1621 27.8116 48.0652 29.7322 47.9983C31.6112 47.9247 32.313 46.8612 34.5805 46.8612C36.8272 46.8612 37.4863 47.9983 39.445 47.9555C41.4616 47.9247 42.7312 46.2433 43.943 44.5235C45.3941 42.5698 45.9769 40.6458 46 40.5471C45.9526 40.5317 42.0837 39.1301 42.0455 34.8903Z" fill="white"/>
<path d="M38.3454 24.4878C39.356 23.2882 40.0474 21.6562 39.8555 20C38.3928 20.0615 36.5635 20.9603 35.5102 22.1336C34.5782 23.1675 33.7457 24.8621 33.9607 26.4557C35.6038 26.5721 37.2908 25.6688 38.3454 24.4878Z" fill="white"/>
<path d="M56.44 47L61.56 32.8H64.22L69.34 47H67.1L65.8 43.26H59.98L58.68 47H56.44ZM60.66 41.32H65.12L62.9 34.8L60.66 41.32ZM71.3891 50V36.4H73.3291L73.3891 37.94C73.9691 36.8 75.0691 36.16 76.6091 36.16C79.7291 36.16 81.1691 38.74 81.1691 41.7C81.1691 44.66 79.7291 47.24 76.6091 47.24C75.1491 47.24 74.0691 46.66 73.4691 45.56V50H71.3891ZM73.2691 41.7C73.2691 43.6 74.1291 45.42 76.1291 45.42C78.1491 45.42 78.9691 43.62 78.9691 41.7C78.9691 39.8 78.1491 37.98 76.1291 37.98C74.1091 37.98 73.2691 39.8 73.2691 41.7ZM83.557 50V36.4H85.497L85.557 37.94C86.137 36.8 87.237 36.16 88.777 36.16C91.897 36.16 93.337 38.74 93.337 41.7C93.337 44.66 91.897 47.24 88.777 47.24C87.317 47.24 86.237 46.66 85.637 45.56V50H83.557ZM85.437 41.7C85.437 43.6 86.297 45.42 88.297 45.42C90.317 45.42 91.137 43.62 91.137 41.7C91.137 39.8 90.317 37.98 88.297 37.98C86.277 37.98 85.437 39.8 85.437 41.7ZM102.445 42.3C102.785 44.08 104.045 45.28 106.145 45.28C107.825 45.28 108.945 44.64 108.945 43.34C108.945 42 107.805 41.22 105.145 40.56C102.625 39.94 100.545 38.76 100.545 36.46C100.545 34.02 102.545 32.48 105.405 32.48C108.485 32.48 110.545 34.4 110.865 37.08L108.685 37.2C108.445 35.52 107.185 34.42 105.365 34.42C103.845 34.42 102.725 35.22 102.745 36.48C102.765 38.06 104.685 38.5 106.345 38.96C109.065 39.66 111.145 40.98 111.145 43.18C111.145 45.84 108.725 47.24 106.025 47.24C102.805 47.24 100.485 45.34 100.265 42.42L102.445 42.3ZM114.227 34H116.307V36.4H119.127V38.12H116.307V43.98C116.307 44.84 116.727 45.28 117.547 45.28H119.107V47H117.367C115.327 47 114.227 45.94 114.227 43.98V38.12H112.627V36.4H114.227V34ZM125.397 47.24C122.357 47.24 120.377 45.08 120.377 41.7C120.377 38.32 122.357 36.16 125.397 36.16C128.437 36.16 130.417 38.32 130.417 41.7C130.417 45.08 128.437 47.24 125.397 47.24ZM122.537 41.7C122.537 44.02 123.577 45.42 125.397 45.42C127.217 45.42 128.257 44.02 128.257 41.7C128.257 39.38 127.217 37.98 125.397 37.98C123.577 37.98 122.537 39.38 122.537 41.7ZM132.795 36.4H134.695L134.755 38.4C135.095 37.04 135.895 36.4 137.275 36.4H138.295V38.12H137.255C135.615 38.12 134.875 39.02 134.875 40.8V47H132.795V36.4ZM139.302 41.7C139.302 38.32 141.282 36.16 144.322 36.16C146.802 36.16 148.962 37.8 149.082 41.58L149.102 42.3H141.482C141.642 44.28 142.642 45.44 144.322 45.44C145.382 45.44 146.322 44.84 146.762 43.82L148.942 43.98C148.322 45.98 146.462 47.24 144.322 47.24C141.282 47.24 139.302 45.08 139.302 41.7ZM141.522 40.7H146.902C146.622 38.66 145.522 37.96 144.322 37.96C142.762 37.96 141.782 38.98 141.522 40.7Z" fill="white"/>
<path d="M59.732 18.48C62.348 18.48 63.824 20.016 63.824 22.752C63.824 25.476 62.384 27 59.804 27H57.104V18.48H59.732ZM58.112 26.016H59.732C61.76 26.016 62.768 24.924 62.768 22.752C62.768 20.556 61.76 19.464 59.732 19.464H58.112V26.016ZM67.8821 27.144C66.1181 27.144 64.9781 25.836 64.9781 23.82C64.9781 21.804 66.1181 20.496 67.8821 20.496C69.6461 20.496 70.7861 21.804 70.7861 23.82C70.7861 25.836 69.6461 27.144 67.8821 27.144ZM66.0101 23.82C66.0101 25.308 66.6941 26.208 67.8821 26.208C69.0581 26.208 69.7541 25.308 69.7541 23.82C69.7541 22.332 69.0581 21.432 67.8821 21.432C66.6941 21.432 66.0101 22.332 66.0101 23.82ZM76.4709 20.64L77.9949 25.908L79.5309 20.64H80.5869L78.6189 27H77.3829L75.9549 22.128L74.5149 27H73.2789L71.3109 20.64H72.3669L73.9029 25.908L75.4269 20.64H76.4709ZM81.8755 20.64H82.7755L82.8115 21.732C83.1355 20.88 83.8915 20.496 84.7675 20.496C86.2195 20.496 86.9155 21.564 86.9155 22.908V27H85.9315V23.196C85.9315 22.02 85.5355 21.372 84.5635 21.372C83.5315 21.372 82.8595 22.02 82.8595 23.196V27H81.8755V20.64ZM88.7432 18.48H89.7272V25.728C89.7272 26.004 89.8592 26.124 90.1352 26.124H90.6752V27H89.9912C89.2352 27 88.7432 26.508 88.7432 25.776V18.48ZM94.5071 27.144C92.7431 27.144 91.6031 25.836 91.6031 23.82C91.6031 21.804 92.7431 20.496 94.5071 20.496C96.2711 20.496 97.4111 21.804 97.4111 23.82C97.4111 25.836 96.2711 27.144 94.5071 27.144ZM92.6351 23.82C92.6351 25.308 93.3191 26.208 94.5071 26.208C95.6831 26.208 96.3791 25.308 96.3791 23.82C96.3791 22.332 95.6831 21.432 94.5071 21.432C93.3191 21.432 92.6351 22.332 92.6351 23.82ZM98.7072 22.512C98.9592 21.276 99.9432 20.496 101.299 20.496C102.943 20.496 103.855 21.456 103.855 23.16V25.716C103.855 26.004 103.975 26.124 104.251 26.124H104.503V27H104.083C103.435 27 102.871 26.784 102.883 26.004C102.607 26.604 101.887 27.144 100.879 27.144C99.6192 27.144 98.5992 26.472 98.5992 25.344C98.5992 24.036 99.5952 23.7 100.987 23.424L102.871 23.064C102.859 21.96 102.343 21.432 101.299 21.432C100.483 21.432 99.9432 21.852 99.7512 22.596L98.7072 22.512ZM99.6312 25.344C99.6312 25.86 100.075 26.28 101.011 26.268C102.067 26.268 102.895 25.524 102.895 24.048V23.94L101.371 24.204C100.423 24.372 99.6312 24.444 99.6312 25.344ZM111.013 18.48V27H110.125L110.089 26.064C109.729 26.736 109.045 27.144 108.061 27.144C106.225 27.144 105.373 25.584 105.373 23.82C105.373 22.056 106.225 20.496 108.061 20.496C108.997 20.496 109.669 20.856 110.029 21.504V18.48H111.013ZM106.405 23.82C106.405 25.056 106.933 26.208 108.265 26.208C109.573 26.208 110.113 25.032 110.113 23.82C110.113 22.56 109.573 21.396 108.265 21.396C106.933 21.396 106.405 22.548 106.405 23.82ZM118.495 27.144C116.731 27.144 115.591 25.836 115.591 23.82C115.591 21.804 116.731 20.496 118.495 20.496C120.259 20.496 121.399 21.804 121.399 23.82C121.399 25.836 120.259 27.144 118.495 27.144ZM116.623 23.82C116.623 25.308 117.307 26.208 118.495 26.208C119.671 26.208 120.367 25.308 120.367 23.82C120.367 22.332 119.671 21.432 118.495 21.432C117.307 21.432 116.623 22.332 116.623 23.82ZM122.926 20.64H123.826L123.862 21.732C124.186 20.88 124.942 20.496 125.818 20.496C127.27 20.496 127.966 21.564 127.966 22.908V27H126.982V23.196C126.982 22.02 126.586 21.372 125.614 21.372C124.582 21.372 123.91 22.02 123.91 23.196V27H122.926V20.64ZM133.57 19.2H134.554V20.64H136.246V21.516H134.554V25.32C134.554 25.86 134.818 26.124 135.322 26.124H136.234V27H135.322C134.194 27 133.57 26.4 133.57 25.32V21.516H132.634V20.64H133.57V19.2ZM137.727 18.48H138.711V21.528C139.083 20.82 139.827 20.496 140.619 20.496C142.071 20.496 142.767 21.564 142.767 22.908V27H141.783V23.268C141.783 22.08 141.387 21.432 140.415 21.432C139.383 21.432 138.711 22.08 138.711 23.268V27H137.727V18.48ZM144.103 23.82C144.103 21.804 145.243 20.496 147.007 20.496C148.423 20.496 149.659 21.444 149.767 23.688L149.779 24.132H145.147C145.243 25.44 145.903 26.208 147.007 26.208C147.703 26.208 148.327 25.8 148.615 25.128L149.671 25.2C149.299 26.4 148.231 27.144 147.007 27.144C145.243 27.144 144.103 25.836 144.103 23.82ZM145.171 23.256H148.699C148.519 21.912 147.799 21.432 147.007 21.432C145.987 21.432 145.327 22.104 145.171 23.256Z" fill="white"/>
</svg>
