
<svg width="763" height="1057" viewBox="0 0 763 1057" fill="none" xmlns="http://www.w3.org/2000/svg">
<g clip-path="url(#clip0_1031_2279)">
<g opacity="0.05">
<path d="M457.752 12.1361C457.781 12.058 457.793 11.9752 457.79 11.8923C457.786 11.8094 457.766 11.728 457.73 11.6529C457.695 11.5777 457.646 11.5102 457.584 11.4543C457.523 11.3983 457.451 11.3551 457.373 11.3269C457.295 11.2981 457.212 11.2851 457.129 11.2887C457.046 11.2922 456.964 11.3122 456.889 11.3475C456.814 11.3827 456.746 11.4326 456.691 11.4942C456.635 11.5558 456.592 11.6278 456.564 11.7062C456.535 11.7842 456.522 11.8671 456.526 11.9501C456.529 12.0332 456.549 12.1147 456.585 12.19C456.62 12.2652 456.67 12.3327 456.731 12.3886C456.793 12.4444 456.865 12.4875 456.943 12.5153C457.012 12.5401 457.085 12.553 457.158 12.5532C457.288 12.553 457.415 12.5129 457.521 12.4383C457.627 12.3637 457.708 12.2581 457.752 12.1361Z" fill="url(#paint0_linear_1031_2279)"/>
</g>
<g opacity="0.07">
<path d="M456.5 30.7772C456.629 30.7772 456.755 30.7376 456.861 30.6637C456.967 30.5898 457.048 30.4852 457.093 30.364C457.151 30.2067 457.144 30.0327 457.074 29.8804C457.004 29.7281 456.876 29.6099 456.719 29.5517C422.676 16.9926 387.702 7.1159 352.118 0.0119945C351.953 -0.0204656 351.783 0.0135762 351.643 0.106608C351.504 0.199641 351.407 0.344084 351.374 0.50837C351.341 0.672813 351.375 0.84357 351.468 0.983034C351.561 1.1225 351.706 1.21926 351.87 1.25211C387.389 8.3428 422.299 18.2016 456.281 30.738C456.351 30.7639 456.425 30.7771 456.5 30.7772Z" fill="url(#paint1_linear_1031_2279)"/>
</g>
<g opacity="0.1">
<path d="M456.032 49.1875C456.161 49.1874 456.286 49.1484 456.392 49.0756C456.497 49.0027 456.578 48.8995 456.624 48.7796C456.683 48.6228 456.678 48.4489 456.609 48.2959C456.541 48.143 456.414 48.0236 456.257 47.964C445.878 44.0214 435.243 40.2772 424.65 36.8353C424.49 36.7839 424.317 36.7977 424.168 36.8738C424.018 36.9499 423.905 37.0821 423.853 37.2413C423.801 37.4008 423.815 37.5743 423.891 37.7237C423.967 37.8731 424.1 37.9861 424.259 38.038C434.833 41.4733 445.448 45.2107 455.808 49.1461C455.88 49.1734 455.956 49.1874 456.032 49.1875Z" fill="url(#paint2_linear_1031_2279)"/>
</g>
<g opacity="0.12">
<path d="M514.313 93.9358C514.43 93.9359 514.545 93.9036 514.644 93.8427C514.744 93.7817 514.824 93.6945 514.877 93.5905C514.953 93.4411 514.967 93.2676 514.915 93.1081C514.863 92.9487 514.75 92.8163 514.601 92.7401C495.195 82.8525 475.131 73.8394 454.968 65.9507C454.891 65.9204 454.808 65.9057 454.725 65.9074C454.642 65.909 454.56 65.927 454.484 65.9603C454.408 65.9935 454.339 66.0415 454.282 66.1014C454.224 66.1612 454.179 66.2319 454.149 66.3092C454.088 66.4653 454.091 66.6393 454.158 66.7929C454.226 66.9465 454.351 67.0672 454.507 67.1282C474.632 75.0017 494.658 83.9978 514.027 93.8666C514.116 93.9121 514.214 93.9358 514.313 93.9358Z" fill="url(#paint3_linear_1031_2279)"/>
</g>
<g opacity="0.15">
<path d="M592.013 161.753C592.113 161.753 592.212 161.729 592.301 161.684C592.39 161.639 592.467 161.573 592.525 161.492C592.574 161.425 592.609 161.349 592.629 161.268C592.648 161.188 592.651 161.104 592.639 161.022C592.626 160.94 592.597 160.861 592.553 160.79C592.51 160.72 592.453 160.658 592.386 160.609C549.796 129.637 503.561 104.016 454.72 84.3249C454.564 84.2624 454.39 84.2641 454.236 84.3299C454.082 84.3956 453.96 84.5199 453.897 84.6754C453.835 84.8309 453.836 85.005 453.902 85.1592C453.968 85.3135 454.092 85.4353 454.248 85.4979C502.993 105.15 549.137 130.72 591.642 161.632C591.75 161.711 591.88 161.753 592.013 161.753Z" fill="url(#paint4_linear_1031_2279)"/>
</g>
<g opacity="0.17">
<path d="M656.088 239.13C656.171 239.13 656.253 239.113 656.33 239.082C656.407 239.05 656.477 239.003 656.535 238.944C656.594 238.886 656.64 238.816 656.672 238.739C656.704 238.663 656.72 238.58 656.72 238.497C656.72 238.414 656.704 238.332 656.672 238.255C656.64 238.179 656.594 238.109 656.535 238.05C598.13 179.647 530.145 134.167 454.47 102.872C454.315 102.808 454.141 102.808 453.986 102.872C453.831 102.936 453.708 103.059 453.644 103.214C453.58 103.369 453.58 103.543 453.644 103.698C453.708 103.853 453.831 103.976 453.986 104.04C529.508 135.271 597.354 180.659 655.641 238.944C655.7 239.003 655.769 239.05 655.846 239.082C655.923 239.113 656.005 239.13 656.088 239.13Z" fill="url(#paint5_linear_1031_2279)"/>
</g>
<g opacity="0.19">
<path d="M705.507 323.515C705.641 323.515 705.771 323.472 705.878 323.394C705.946 323.345 706.002 323.283 706.046 323.213C706.089 323.142 706.118 323.063 706.131 322.981C706.144 322.899 706.141 322.815 706.121 322.735C706.102 322.654 706.067 322.578 706.018 322.511C673.503 277.696 635.005 237.544 591.598 203.171C549.628 169.996 503.426 142.559 454.21 121.586C454.056 121.52 453.882 121.518 453.726 121.581C453.571 121.643 453.446 121.765 453.381 121.919C453.315 122.074 453.313 122.248 453.376 122.403C453.438 122.559 453.56 122.683 453.714 122.749C502.827 143.678 548.932 171.057 590.814 204.163C634.13 238.464 672.547 278.533 704.995 323.254C705.054 323.335 705.131 323.401 705.22 323.446C705.309 323.491 705.407 323.515 705.507 323.515Z" fill="url(#paint6_linear_1031_2279)"/>
</g>
<g opacity="0.22">
<path d="M739.699 412.279C739.799 412.279 739.898 412.256 739.987 412.21C740.136 412.134 740.249 412.002 740.301 411.842C740.353 411.683 740.339 411.509 740.263 411.36C708.949 349.905 667.746 295.093 617.798 248.446C569.541 203.375 514.013 166.785 453.56 140.222C453.484 140.189 453.402 140.171 453.319 140.169C453.236 140.167 453.153 140.181 453.076 140.211C452.998 140.241 452.927 140.286 452.867 140.344C452.807 140.401 452.759 140.47 452.726 140.546C452.658 140.699 452.655 140.873 452.715 141.03C452.776 141.186 452.896 141.312 453.05 141.379C513.373 167.885 568.782 204.396 616.935 249.37C666.775 295.916 707.89 350.611 739.136 411.934C739.189 412.038 739.27 412.125 739.37 412.186C739.469 412.247 739.583 412.28 739.699 412.279Z" fill="url(#paint7_linear_1031_2279)"/>
</g>
<g opacity="0.24">
<path d="M758.545 502.794C758.611 502.794 758.677 502.784 758.74 502.763C758.9 502.712 759.032 502.598 759.108 502.449C759.184 502.3 759.198 502.126 759.146 501.967C746.56 463.193 729.883 425.869 709.397 390.625C689.507 356.476 666.106 324.496 639.575 295.206C613.464 266.412 584.484 240.357 553.085 217.445C521.878 194.69 488.458 175.136 453.332 159.078C453.257 159.043 453.175 159.024 453.092 159.021C453.009 159.018 452.926 159.032 452.849 159.061C452.771 159.09 452.699 159.134 452.639 159.19C452.578 159.247 452.529 159.315 452.494 159.39C452.425 159.543 452.418 159.717 452.477 159.874C452.535 160.031 452.654 160.158 452.807 160.228C487.855 176.25 521.201 195.762 552.339 218.467C583.669 241.327 612.585 267.325 638.638 296.055C665.11 325.28 688.458 357.188 708.304 391.261C728.745 426.428 745.385 463.669 757.943 502.357C757.985 502.484 758.065 502.595 758.173 502.673C758.281 502.752 758.411 502.794 758.545 502.794Z" fill="url(#paint8_linear_1031_2279)"/>
</g>
<g opacity="0.26">
<path d="M762.367 592.507C762.4 592.507 762.434 592.504 762.467 592.499C762.549 592.486 762.627 592.457 762.698 592.414C762.769 592.37 762.83 592.313 762.879 592.246C762.928 592.179 762.963 592.103 762.982 592.022C763.002 591.941 763.005 591.858 762.992 591.776C755.754 545.93 742.8 501.171 724.433 458.546C706.63 417.334 683.854 378.453 656.611 342.77C602.777 272.323 532.883 215.765 452.756 177.808C452.681 177.773 452.6 177.752 452.517 177.748C452.434 177.744 452.351 177.756 452.273 177.784C452.194 177.812 452.122 177.855 452.061 177.911C451.999 177.967 451.949 178.034 451.914 178.109C451.842 178.261 451.834 178.434 451.89 178.592C451.946 178.75 452.063 178.879 452.215 178.951C532.16 216.821 601.895 273.251 655.606 343.537C682.786 379.138 705.51 417.929 723.272 459.047C741.597 501.575 754.522 546.232 761.743 591.974C761.767 592.122 761.842 592.257 761.957 592.355C762.071 592.453 762.216 592.507 762.367 592.507Z" fill="url(#paint9_linear_1031_2279)"/>
</g>
<g opacity="0.29">
<path d="M751.895 679.009C752.063 679.009 752.224 678.943 752.342 678.824C752.461 678.706 752.527 678.545 752.527 678.377C752.527 576.247 723.711 476.917 669.193 391.127C616.221 307.704 541.289 240.486 452.622 196.85C452.472 196.776 452.298 196.765 452.14 196.819C451.981 196.873 451.85 196.988 451.776 197.138C451.702 197.288 451.691 197.462 451.745 197.621C451.799 197.78 451.914 197.91 452.064 197.984C540.523 241.518 615.278 308.578 668.126 391.805C722.515 477.392 751.263 576.487 751.263 678.377C751.263 678.545 751.33 678.706 751.448 678.824C751.567 678.943 751.727 679.009 751.895 679.009Z" fill="url(#paint10_linear_1031_2279)"/>
</g>
<g opacity="0.31">
<path d="M728.233 760.106C728.383 760.105 728.528 760.052 728.643 759.954C728.757 759.856 728.833 759.721 728.856 759.572C733.145 732.506 735.307 705.145 735.323 677.741C735.282 581.676 708.486 487.522 657.939 405.83C607.783 324.625 536.568 258.926 451.994 215.835C451.844 215.759 451.671 215.745 451.511 215.797C451.352 215.849 451.219 215.962 451.143 216.111C451.106 216.185 451.083 216.266 451.076 216.348C451.07 216.431 451.08 216.514 451.105 216.593C451.131 216.672 451.172 216.745 451.226 216.809C451.28 216.872 451.345 216.924 451.419 216.961C535.788 259.947 606.829 325.487 656.863 406.495C707.287 487.986 734.017 581.911 734.058 677.741C734.043 705.079 731.886 732.373 727.607 759.375C727.594 759.457 727.598 759.54 727.617 759.621C727.636 759.702 727.671 759.778 727.72 759.845C727.769 759.912 727.831 759.969 727.901 760.012C727.972 760.056 728.051 760.085 728.133 760.098C728.166 760.103 728.199 760.106 728.233 760.106Z" fill="url(#paint11_linear_1031_2279)"/>
</g>
<g opacity="0.33">
<path d="M692.806 833.865C692.94 833.865 693.07 833.823 693.178 833.744C693.286 833.666 693.366 833.555 693.407 833.428C709.741 783.33 718.074 730.969 718.101 678.276C718.101 587.79 693.409 498.688 646.695 420.604C599.758 342.025 532.164 277.828 451.272 235C451.123 234.922 450.95 234.905 450.79 234.955C450.63 235.004 450.496 235.115 450.417 235.263C450.339 235.412 450.322 235.585 450.372 235.745C450.421 235.905 450.532 236.039 450.681 236.118C531.369 278.838 598.792 342.873 645.61 421.253C692.207 499.141 716.837 588.018 716.837 678.276C716.81 730.837 708.497 783.065 692.205 833.037C692.153 833.197 692.167 833.37 692.243 833.52C692.319 833.669 692.451 833.782 692.611 833.834C692.674 833.855 692.74 833.865 692.806 833.865Z" fill="url(#paint12_linear_1031_2279)"/>
</g>
<g opacity="0.36">
<path d="M647.314 898.669C647.431 898.669 647.545 898.637 647.645 898.576C647.744 898.515 647.825 898.428 647.878 898.324C665.443 863.888 678.843 827.482 687.794 789.876C696.424 753.469 700.785 716.182 700.787 678.766C700.738 593.253 678.159 509.261 635.325 435.248C591.367 359.247 527.481 296.698 450.566 254.356C450.419 254.275 450.246 254.256 450.085 254.302C449.924 254.349 449.788 254.457 449.707 254.604C449.667 254.677 449.642 254.756 449.633 254.839C449.623 254.922 449.63 255.005 449.653 255.085C449.676 255.165 449.715 255.239 449.767 255.304C449.819 255.369 449.883 255.423 449.955 255.463C526.669 297.694 590.388 360.079 634.231 435.881C676.954 509.702 699.473 593.475 699.523 678.766C699.52 716.083 695.171 753.273 686.564 789.583C677.636 827.092 664.271 863.404 646.751 897.75C646.713 897.824 646.691 897.905 646.684 897.988C646.678 898.07 646.688 898.154 646.713 898.233C646.739 898.312 646.78 898.385 646.834 898.448C646.888 898.511 646.954 898.563 647.028 898.601C647.116 898.646 647.214 898.669 647.314 898.669Z" fill="url(#paint13_linear_1031_2279)"/>
</g>
<g opacity="0.38">
<path d="M593.663 953.248C593.763 953.249 593.862 953.225 593.951 953.18C594.04 953.134 594.117 953.069 594.175 952.988C652.235 873.345 683.492 777.318 683.438 678.761C683.43 642.666 679.269 606.692 671.035 571.549C662.77 536.291 650.447 502.109 634.311 469.689C617.913 436.772 597.666 405.918 573.994 377.775C549.503 348.712 521.571 322.733 490.813 300.408C477.631 290.832 463.964 281.941 449.867 273.77C449.795 273.729 449.716 273.702 449.633 273.691C449.551 273.68 449.467 273.685 449.387 273.706C449.307 273.728 449.232 273.765 449.166 273.815C449.1 273.866 449.044 273.929 449.003 274C448.919 274.146 448.896 274.318 448.939 274.48C448.982 274.642 449.088 274.78 449.233 274.864C463.292 283.013 476.923 291.88 490.07 301.431C520.745 323.696 548.601 349.605 573.026 378.589C596.634 406.656 616.826 437.425 633.179 470.252C665.407 535.034 682.178 606.405 682.173 678.761C682.228 777.051 651.055 872.818 593.152 952.245C593.054 952.38 593.013 952.549 593.039 952.715C593.066 952.881 593.156 953.029 593.292 953.128C593.4 953.206 593.53 953.248 593.663 953.248Z" fill="url(#paint14_linear_1031_2279)"/>
</g>
<g opacity="0.41">
<path d="M533.894 996.7C533.977 996.7 534.059 996.684 534.136 996.652C534.213 996.62 534.283 996.574 534.341 996.515C577.291 953.567 610.544 903.491 633.177 847.68C677.105 739.085 677.105 617.669 633.177 509.074C610.544 453.262 577.291 403.187 534.341 360.239C508.636 334.512 479.919 311.981 448.813 293.137C448.669 293.05 448.497 293.024 448.334 293.064C448.172 293.104 448.031 293.207 447.944 293.351C447.902 293.422 447.873 293.501 447.86 293.583C447.848 293.665 447.852 293.749 447.872 293.829C447.891 293.91 447.927 293.986 447.976 294.053C448.025 294.12 448.087 294.176 448.158 294.219C479.177 313.01 507.814 335.478 533.447 361.133C576.276 403.961 609.436 453.895 632.006 509.549C675.809 617.839 675.809 738.914 632.006 847.205C609.436 902.859 576.276 952.793 533.447 995.621C533.388 995.68 533.342 995.749 533.31 995.826C533.278 995.903 533.262 995.985 533.262 996.068C533.262 996.151 533.278 996.233 533.31 996.31C533.342 996.386 533.388 996.456 533.447 996.515C533.506 996.574 533.576 996.62 533.652 996.652C533.729 996.684 533.811 996.7 533.894 996.7Z" fill="url(#paint15_linear_1031_2279)"/>
</g>
<g opacity="0.43">
<path d="M470.126 1028.51C470.26 1028.51 470.39 1028.46 470.498 1028.39C498.98 1007.71 524.846 983.655 547.525 956.743C569.446 930.681 588.195 902.11 603.38 871.629C633.305 811.477 648.877 745.206 648.873 678.022C648.767 605.202 630.312 533.582 595.211 469.779C560.11 405.975 509.497 352.046 448.045 312.972C447.975 312.927 447.897 312.897 447.815 312.883C447.733 312.869 447.649 312.871 447.568 312.889C447.487 312.907 447.411 312.941 447.343 312.989C447.275 313.036 447.217 313.097 447.173 313.167C447.128 313.237 447.098 313.316 447.084 313.397C447.069 313.479 447.071 313.563 447.089 313.644C447.108 313.725 447.142 313.802 447.189 313.869C447.237 313.937 447.298 313.995 447.368 314.04C493.306 343.17 533.29 380.765 565.19 424.824C618.798 498.359 647.659 587.022 647.608 678.022C647.612 745.011 632.086 811.088 602.248 871.065C587.108 901.457 568.414 929.944 546.557 955.929C523.944 982.763 498.154 1006.75 469.754 1027.36C469.619 1027.46 469.528 1027.61 469.502 1027.78C469.475 1027.94 469.516 1028.11 469.615 1028.25C469.673 1028.33 469.75 1028.39 469.839 1028.44C469.928 1028.48 470.027 1028.51 470.126 1028.51Z" fill="url(#paint16_linear_1031_2279)"/>
</g>
<g opacity="0.45">
<path d="M404.481 1048.53C404.58 1048.53 404.678 1048.51 404.767 1048.46C474.123 1013.21 532.152 959.146 572.208 892.452C611.084 827.688 631.63 753.578 631.651 678.043C631.649 645.966 627.91 613.998 620.512 582.786C604.408 515.246 571.756 452.772 525.496 400.991C502.25 375.05 475.817 352.152 446.825 332.843C446.686 332.75 446.515 332.717 446.35 332.75C446.186 332.783 446.041 332.879 445.948 333.019C445.855 333.158 445.822 333.329 445.855 333.494C445.888 333.658 445.985 333.803 446.124 333.896C475.027 353.145 501.38 375.973 524.555 401.835C570.674 453.458 603.226 515.743 619.281 583.078C626.657 614.194 630.384 646.064 630.386 678.043C630.366 753.349 609.882 827.234 571.124 891.802C531.189 958.292 473.338 1012.19 404.193 1047.33C404.043 1047.41 403.93 1047.54 403.879 1047.7C403.827 1047.86 403.841 1048.04 403.917 1048.18C403.97 1048.29 404.05 1048.38 404.15 1048.44C404.249 1048.5 404.364 1048.53 404.481 1048.53Z" fill="url(#paint17_linear_1031_2279)"/>
</g>
<g opacity="0.48">
<path d="M339.013 1057C339.079 1057 339.145 1056.99 339.208 1056.97C420.12 1030.82 490.477 979.345 539.884 910.142C563.789 876.716 582.396 839.803 595.048 800.706C621.199 719.958 620.825 632.962 593.981 552.443C567.137 471.923 515.233 402.105 445.86 353.201C445.723 353.105 445.553 353.067 445.388 353.095C445.223 353.124 445.075 353.217 444.979 353.354C444.931 353.422 444.897 353.498 444.879 353.579C444.861 353.66 444.858 353.744 444.873 353.826C444.887 353.908 444.917 353.986 444.961 354.056C445.006 354.126 445.063 354.187 445.131 354.235C514.282 402.985 566.02 472.581 592.778 552.844C619.536 633.107 619.91 719.826 593.845 800.316C581.233 839.29 562.685 876.086 538.856 909.406C489.605 978.389 419.473 1029.7 338.818 1055.77C338.674 1055.81 338.553 1055.91 338.474 1056.04C338.395 1056.17 338.365 1056.32 338.388 1056.47C338.412 1056.61 338.488 1056.75 338.602 1056.85C338.717 1056.95 338.862 1057 339.013 1057Z" fill="url(#paint18_linear_1031_2279)"/>
</g>
<g opacity="0.5">
<path d="M275.664 1054.49C275.697 1054.49 275.731 1054.49 275.764 1054.48C365.875 1040.35 447.876 994.218 506.74 924.544C564.981 855.744 597.056 768.487 597.056 678.844C597.045 658.738 595.458 638.665 592.312 618.808C576.936 520.886 523.863 432.866 444.437 373.562C444.37 373.512 444.295 373.475 444.214 373.455C444.134 373.434 444.05 373.431 443.968 373.442C443.886 373.454 443.807 373.481 443.735 373.524C443.664 373.566 443.602 373.622 443.552 373.688C443.502 373.755 443.466 373.831 443.445 373.912C443.425 373.992 443.42 374.076 443.432 374.158C443.444 374.24 443.472 374.319 443.514 374.391C443.557 374.462 443.613 374.524 443.679 374.573C522.841 433.68 575.739 521.41 591.063 619.006C594.199 638.798 595.78 658.806 595.791 678.844C595.791 768.188 563.823 855.156 505.775 923.727C447.106 993.169 365.378 1039.15 275.566 1053.23C275.409 1053.26 275.267 1053.34 275.169 1053.47C275.07 1053.59 275.022 1053.75 275.035 1053.91C275.047 1054.07 275.119 1054.21 275.235 1054.32C275.352 1054.43 275.505 1054.49 275.664 1054.49Z" fill="url(#paint19_linear_1031_2279)"/>
</g>
<g opacity="0.53">
<path d="M216.193 1041.89C265.269 1041.89 312.877 1032.28 357.695 1013.32C444.835 976.378 514.204 907.011 551.152 819.874C570.109 775.058 579.72 727.451 579.72 678.377C579.73 650.244 576.493 622.204 570.069 594.814C563.825 568.298 554.604 542.573 542.582 518.128C518.87 469.991 484.834 427.675 442.9 394.193C442.769 394.089 442.601 394.04 442.435 394.059C442.268 394.078 442.116 394.162 442.011 394.293C441.959 394.358 441.921 394.432 441.898 394.512C441.875 394.592 441.868 394.675 441.877 394.758C441.886 394.84 441.911 394.92 441.952 394.993C441.992 395.065 442.046 395.129 442.111 395.181C483.9 428.547 517.818 470.716 541.447 518.686C553.428 543.046 562.616 568.681 568.838 595.104C575.239 622.399 578.467 650.342 578.456 678.377C578.456 727.281 568.878 774.722 549.988 819.381C513.168 906.216 444.04 975.342 357.202 1012.16C312.541 1031.05 265.099 1040.63 216.193 1040.63C216.026 1040.63 215.865 1040.69 215.746 1040.81C215.628 1040.93 215.561 1041.09 215.561 1041.26C215.561 1041.43 215.628 1041.59 215.746 1041.71C215.865 1041.83 216.026 1041.89 216.193 1041.89Z" fill="url(#paint20_linear_1031_2279)"/>
</g>
<g opacity="0.55">
<path d="M216.618 1024.66C298.128 1024.66 377.469 995.5 440.026 942.546C503.379 889.026 545.325 814.471 558.178 732.54C561.039 714.485 562.481 696.233 562.491 677.953C562.49 627.51 551.403 577.683 530.013 531.998C509.027 487.129 478.705 447.256 441.074 415.043C441.011 414.989 440.938 414.948 440.859 414.922C440.78 414.897 440.697 414.887 440.614 414.893C440.531 414.899 440.45 414.922 440.376 414.96C440.302 414.997 440.237 415.049 440.183 415.113C440.129 415.176 440.088 415.249 440.062 415.328C440.036 415.407 440.026 415.49 440.033 415.573C440.039 415.655 440.062 415.736 440.099 415.81C440.137 415.884 440.189 415.95 440.252 416.004C477.746 448.099 507.958 487.828 528.868 532.534C550.179 578.051 561.225 627.695 561.227 677.953C561.216 696.167 559.779 714.353 556.929 732.343C544.124 813.974 502.331 888.257 439.209 941.582C376.88 994.342 297.829 1023.4 216.618 1023.4C198.404 1023.39 180.218 1021.95 162.227 1019.1C162.062 1019.07 161.892 1019.11 161.757 1019.21C161.621 1019.31 161.53 1019.46 161.504 1019.63C161.478 1019.79 161.518 1019.96 161.617 1020.1C161.716 1020.23 161.864 1020.32 162.03 1020.35C180.085 1023.21 198.337 1024.65 216.618 1024.66Z" fill="url(#paint21_linear_1031_2279)"/>
</g>
<g opacity="0.57">
<path d="M216.26 1007.42C250.564 1007.42 284.655 1002.02 317.285 991.439C349.595 980.984 380.099 965.609 407.722 945.855C450.23 915.371 484.873 875.208 508.786 828.686C532.7 782.164 545.198 730.619 545.247 678.311C545.247 586.708 506.536 498.494 439.038 436.289C438.915 436.175 438.752 436.115 438.584 436.122C438.417 436.129 438.259 436.202 438.145 436.325C438.089 436.386 438.045 436.458 438.016 436.536C437.988 436.614 437.975 436.696 437.978 436.779C437.982 436.862 438.001 436.944 438.036 437.019C438.071 437.095 438.12 437.162 438.182 437.219C505.42 499.185 543.983 587.06 543.983 678.311C543.972 747.634 521.987 815.17 481.185 871.215C440.383 927.26 382.865 968.929 316.896 990.236C251.246 1011.53 180.534 1011.46 114.928 990.029C114.849 990.003 114.766 989.993 114.683 990C114.6 990.006 114.519 990.029 114.445 990.066C114.371 990.104 114.305 990.156 114.251 990.219C114.197 990.282 114.156 990.355 114.13 990.435C114.105 990.514 114.095 990.597 114.101 990.68C114.108 990.763 114.131 990.843 114.169 990.917C114.206 990.991 114.258 991.057 114.322 991.111C114.385 991.165 114.458 991.206 114.537 991.232C147.383 1001.94 181.712 1007.4 216.26 1007.42Z" fill="url(#paint22_linear_1031_2279)"/>
</g>
<g opacity="0.6">
<path d="M215.943 990.118C272.625 990.103 328.238 974.685 376.837 945.515C426.884 915.458 467.456 871.916 493.907 819.874C505.207 797.721 513.827 774.3 519.586 750.107C531.765 698.384 530.544 644.408 516.038 593.288C501.533 542.168 474.223 495.595 436.693 457.976C436.634 457.918 436.564 457.871 436.487 457.839C436.411 457.807 436.329 457.791 436.246 457.791C436.162 457.791 436.08 457.807 436.004 457.839C435.927 457.871 435.857 457.918 435.799 457.976C435.74 458.035 435.693 458.105 435.661 458.181C435.63 458.258 435.613 458.34 435.613 458.423C435.613 458.506 435.63 458.588 435.661 458.665C435.693 458.742 435.74 458.812 435.799 458.87C473.213 496.312 500.436 542.695 514.885 593.615C529.334 644.535 530.529 698.303 518.355 749.815C512.62 773.91 504.034 797.236 492.78 819.3C466.437 871.131 426.03 914.496 376.186 944.43C327.784 973.483 272.396 988.838 215.943 988.854C191.971 988.852 168.08 986.058 144.754 980.529C120.657 974.794 97.3298 966.208 75.2649 954.954C75.1909 954.916 75.1102 954.893 75.0274 954.887C74.9446 954.88 74.8613 954.89 74.7824 954.916C74.7034 954.942 74.6303 954.983 74.5672 955.037C74.504 955.091 74.4522 955.156 74.4145 955.23C74.3768 955.304 74.3541 955.385 74.3476 955.468C74.3411 955.551 74.351 955.634 74.3767 955.713C74.4024 955.792 74.4433 955.865 74.4973 955.928C74.5512 955.991 74.6171 956.043 74.6911 956.081C96.8454 967.38 120.268 976.001 144.461 981.759C167.883 987.311 191.872 990.116 215.943 990.118Z" fill="url(#paint23_linear_1031_2279)"/>
</g>
<g opacity="0.62">
<path d="M215.952 972.792C261.664 972.75 306.75 962.156 347.699 941.837C368.441 931.505 387.884 918.746 405.618 903.83C448.144 867.977 479.719 820.879 496.731 767.923C517.023 704.141 515.027 635.355 491.072 572.856C477.965 538.51 458.483 506.951 433.653 479.842C433.54 479.718 433.382 479.644 433.215 479.637C433.047 479.629 432.884 479.689 432.76 479.802C432.636 479.915 432.563 480.073 432.555 480.24C432.548 480.408 432.607 480.571 432.72 480.695C457.443 507.688 476.841 539.11 489.891 573.308C516.028 641.334 515.885 716.657 489.491 784.584C463.097 852.511 412.346 908.171 347.135 940.706C306.362 960.938 261.469 971.486 215.952 971.528C154.112 971.562 93.8607 951.951 43.8898 915.524C43.7541 915.426 43.585 915.386 43.4196 915.412C43.2541 915.438 43.106 915.529 43.0075 915.665C42.9091 915.8 42.8684 915.969 42.8944 916.135C42.9205 916.3 43.0111 916.449 43.1465 916.547C93.3336 953.131 153.845 972.826 215.952 972.792Z" fill="url(#paint24_linear_1031_2279)"/>
</g>
<g opacity="0.64">
<path d="M216.193 955.491C260.507 955.465 304.17 944.819 343.522 924.445C382.874 904.07 416.77 874.562 442.369 838.391C467.968 802.22 484.525 760.441 490.653 716.555C496.781 672.668 492.3 627.952 477.587 586.153C466.887 555.726 450.914 527.42 430.399 502.531C430.347 502.467 430.282 502.414 430.208 502.375C430.135 502.336 430.055 502.311 429.972 502.303C429.89 502.295 429.806 502.304 429.727 502.328C429.647 502.352 429.574 502.392 429.509 502.444C429.38 502.551 429.298 502.705 429.282 502.871C429.266 503.038 429.316 503.205 429.423 503.334C449.843 528.11 465.743 556.285 476.395 586.573C493.741 635.658 496.829 688.653 485.301 739.42C473.773 790.188 448.1 836.652 411.255 873.433C372.891 911.76 324.092 937.944 270.943 948.72C217.795 959.496 162.651 954.386 112.387 934.028C78.2011 920.175 47.1628 899.565 21.131 873.433C21.0123 873.315 20.8517 873.248 20.6842 873.248C20.5168 873.249 20.3563 873.315 20.2378 873.434C20.1194 873.552 20.0529 873.712 20.0527 873.88C20.0525 874.047 20.1188 874.208 20.237 874.327C45.9419 900.097 76.4863 920.534 110.115 934.463C143.744 948.392 179.794 955.539 216.193 955.491Z" fill="url(#paint25_linear_1031_2279)"/>
</g>
<g opacity="0.67">
<path d="M216.407 938.23C271.484 938.23 324.224 921.064 368.925 888.588C386.031 876.171 401.566 861.723 415.186 845.559C428.352 829.907 439.613 812.748 448.732 794.441C466.667 758.301 476.017 718.509 476.054 678.164C476.054 623.089 458.888 570.351 426.41 525.651L426.283 525.476C426.185 525.34 426.036 525.25 425.871 525.224C425.705 525.197 425.536 525.238 425.4 525.337C425.265 525.436 425.174 525.584 425.148 525.75C425.122 525.915 425.162 526.085 425.261 526.22L425.388 526.394C457.707 570.876 474.79 623.358 474.79 678.164C474.752 718.314 465.448 757.912 447.601 793.877C438.525 812.094 427.32 829.17 414.219 844.745C400.664 860.83 385.205 875.209 368.182 887.564C323.698 919.883 271.215 936.965 216.407 936.965C176.256 936.928 136.656 927.624 100.69 909.777C82.4724 900.702 65.3962 889.497 49.8201 876.396C33.7346 862.842 19.3557 847.384 6.99949 830.361C6.9507 830.294 6.88914 830.237 6.81834 830.193C6.74754 830.15 6.6689 830.121 6.58687 830.108C6.50484 830.095 6.42106 830.098 6.34031 830.117C6.25957 830.137 6.18339 830.172 6.11619 830.221C6.04902 830.27 5.99208 830.331 5.94868 830.402C5.90529 830.473 5.87626 830.551 5.86326 830.633C5.85026 830.715 5.85356 830.799 5.87294 830.88C5.89232 830.961 5.92744 831.037 5.97627 831.104C18.3929 848.21 32.842 863.743 49.0059 877.364C64.6587 890.529 81.8189 901.789 100.126 910.909C136.267 928.842 176.06 938.192 216.407 938.23Z" fill="url(#paint26_linear_1031_2279)"/>
</g>
<g opacity="0.69">
<path d="M216.388 920.983C235.121 920.982 253.79 918.799 272.017 914.478C325.216 901.885 372.604 871.7 406.507 828.813C440.409 785.926 458.837 732.85 458.807 678.182C458.806 659.45 456.623 640.782 452.302 622.555C447.82 603.727 441.112 585.501 432.318 568.26C429.042 561.831 425.449 555.486 421.639 549.402C421.55 549.26 421.408 549.16 421.245 549.122C421.082 549.085 420.91 549.113 420.768 549.202C420.626 549.291 420.525 549.433 420.487 549.596C420.45 549.759 420.479 549.931 420.568 550.073C424.358 556.126 427.932 562.438 431.191 568.834C439.94 585.985 446.612 604.117 451.072 622.847C455.37 640.978 457.54 659.548 457.543 678.182C457.596 732.409 439.383 785.073 405.84 827.681C372.297 870.29 325.379 900.358 272.653 913.037C219.928 925.716 164.469 920.266 115.22 897.567C65.9705 874.868 25.8032 836.243 1.1954 787.921C1.1192 787.771 0.986872 787.658 0.827478 787.607C0.668116 787.555 0.494715 787.569 0.345392 787.645C0.19607 787.721 0.0830629 787.853 0.0311525 788.012C-0.0207884 788.171 -0.00739113 788.345 0.068445 788.494C20.3842 828.391 51.3468 861.886 89.5269 885.27C127.708 908.654 171.615 921.015 216.388 920.983Z" fill="url(#paint27_linear_1031_2279)"/>
</g>
<g opacity="0.71">
<path d="M216.148 903.711C251.718 903.745 286.791 895.352 318.493 879.219C350.194 863.086 377.623 839.672 398.531 810.896C419.439 782.119 433.232 748.799 438.78 713.665C444.328 678.531 441.473 642.582 430.449 608.764C426.526 596.689 421.6 584.963 415.722 573.71C415.684 573.636 415.631 573.571 415.568 573.518C415.504 573.464 415.43 573.424 415.351 573.399C415.272 573.375 415.189 573.366 415.106 573.373C415.023 573.381 414.943 573.404 414.869 573.443C414.721 573.52 414.609 573.654 414.559 573.814C414.509 573.974 414.524 574.147 414.602 574.296C420.447 585.486 425.346 597.147 429.246 609.154C440.097 642.526 442.954 677.98 437.586 712.659C432.219 747.337 418.777 780.269 398.345 808.799C370.365 847.939 331.316 876.51 285.418 891.423C252.046 902.273 216.59 905.129 181.911 899.762C147.231 894.395 114.298 880.953 85.7665 860.522C46.6252 832.544 18.0535 793.496 3.14035 747.6C3.1148 747.52 3.07385 747.447 3.01996 747.384C2.96603 747.321 2.90017 747.269 2.82614 747.231C2.75207 747.193 2.67126 747.17 2.58838 747.164C2.50549 747.157 2.42215 747.167 2.34308 747.193C2.26397 747.218 2.19076 747.259 2.12759 747.313C2.06439 747.367 2.01248 747.433 1.97482 747.507C1.93716 747.582 1.91449 747.662 1.90811 747.745C1.90173 747.828 1.91177 747.912 1.93762 747.991C16.6534 793.222 45.2971 832.642 83.7715 860.611C122.246 888.58 168.581 903.666 216.148 903.711Z" fill="url(#paint28_linear_1031_2279)"/>
</g>
<g opacity="0.74">
<path d="M215.939 886.401C226.921 886.395 237.885 885.528 248.732 883.81C297.606 876.066 342.119 851.156 374.282 813.553C406.445 775.949 424.152 728.113 424.224 678.631C424.212 651.25 418.845 624.136 408.426 598.814C408.362 598.66 408.239 598.536 408.084 598.472C407.929 598.408 407.755 598.408 407.6 598.472C407.524 598.503 407.454 598.55 407.395 598.608C407.336 598.667 407.29 598.737 407.258 598.813C407.226 598.89 407.21 598.972 407.209 599.055C407.209 599.138 407.226 599.22 407.257 599.297C419.232 628.172 424.499 659.388 422.662 690.594C420.825 721.799 411.931 752.181 396.65 779.452C381.369 806.723 360.1 830.171 334.444 848.031C308.788 865.891 279.414 877.697 248.534 882.561C237.753 884.269 226.855 885.13 215.939 885.136C166.743 885.113 119.171 867.532 81.785 835.557C44.3987 803.582 19.6533 759.312 12.0027 710.717C11.9764 710.551 11.8856 710.403 11.7499 710.304C11.6143 710.206 11.4451 710.165 11.2795 710.191C11.1139 710.217 10.9655 710.308 10.8669 710.444C10.7683 710.58 10.7277 710.749 10.7539 710.914C18.498 759.786 43.4082 804.298 81.0133 836.46C118.618 868.622 166.456 886.328 215.939 886.401Z" fill="url(#paint29_linear_1031_2279)"/>
</g>
<g opacity="0.76">
<path d="M216.192 869.091C245.814 869.067 275.023 862.149 301.509 848.885C327.995 835.622 351.03 816.376 368.792 792.671C386.554 768.966 398.554 741.453 403.844 712.308C409.134 683.164 407.568 653.188 399.27 624.754C399.247 624.674 399.208 624.6 399.156 624.535C399.104 624.47 399.04 624.416 398.967 624.376C398.894 624.336 398.814 624.311 398.731 624.302C398.649 624.294 398.565 624.301 398.486 624.325C398.406 624.348 398.332 624.387 398.267 624.439C398.202 624.491 398.148 624.555 398.108 624.628C398.069 624.7 398.043 624.78 398.034 624.863C398.025 624.945 398.033 625.029 398.056 625.109C405.711 651.176 407.67 678.585 403.801 705.477C399.933 732.368 390.327 758.113 375.634 780.966C360.942 803.819 341.507 823.246 318.648 837.929C295.788 852.612 270.039 862.208 243.145 866.066C216.251 869.924 188.842 867.954 162.777 860.29C136.711 852.626 112.598 839.446 92.0737 821.645C71.5489 803.844 55.092 781.838 43.8189 757.119C32.5459 732.4 26.7203 705.546 26.7372 678.377C26.7372 678.21 26.6706 678.049 26.552 677.93C26.4334 677.812 26.2726 677.745 26.105 677.745C25.9373 677.745 25.7765 677.812 25.6579 677.93C25.5393 678.049 25.4727 678.21 25.4727 678.377C25.452 703.428 30.3709 728.237 39.9481 751.385C49.5253 774.533 63.5729 795.565 81.287 813.278C99.0011 830.992 120.034 845.039 143.182 854.616C166.331 864.193 191.141 869.112 216.192 869.091Z" fill="url(#paint30_linear_1031_2279)"/>
</g>
<g opacity="0.79">
<path d="M216.406 851.836C257.678 851.817 297.589 837.067 328.954 810.242C360.319 783.416 381.079 746.277 387.497 705.508C388.93 696.464 389.653 687.322 389.658 678.165C389.656 669.192 388.956 660.232 387.564 651.367C387.537 651.201 387.447 651.053 387.311 650.954C387.175 650.855 387.006 650.815 386.841 650.841C386.675 650.867 386.526 650.958 386.428 651.093C386.329 651.229 386.288 651.398 386.314 651.564C387.697 660.363 388.392 669.257 388.394 678.165C388.388 687.256 387.671 696.332 386.248 705.31C379.838 745.765 359.219 782.609 328.091 809.232C296.963 835.855 257.366 850.511 216.406 850.572C207.315 850.567 198.238 849.849 189.259 848.427C148.804 842.016 111.958 821.398 85.3343 790.271C58.7109 759.145 44.0535 719.548 43.993 678.59C43.9982 669.499 44.7154 660.423 46.1383 651.444C46.1642 651.279 46.1234 651.11 46.0248 650.975C45.9263 650.839 45.778 650.748 45.6127 650.722C45.4473 650.696 45.2783 650.736 45.1427 650.835C45.0071 650.933 44.916 651.081 44.8895 651.246C43.4561 660.29 42.7336 669.433 42.7285 678.59C42.7479 719.861 57.4982 759.77 84.3245 791.134C111.151 822.498 148.291 843.257 189.062 849.675C198.106 851.109 207.249 851.831 216.406 851.836Z" fill="url(#paint31_linear_1031_2279)"/>
</g>
<g opacity="0.81">
<path d="M216.224 834.572C257.638 834.521 297.34 818.044 326.618 788.755C355.896 759.466 372.359 719.758 372.393 678.346V678.162C372.392 677.994 372.325 677.834 372.207 677.716C372.088 677.598 371.928 677.531 371.76 677.531H371.758C371.591 677.532 371.43 677.599 371.312 677.718C371.194 677.837 371.128 677.998 371.128 678.166V678.346C371.153 700.754 366.316 722.901 356.951 743.258C347.587 763.616 333.917 781.7 316.886 796.263C299.855 810.826 279.868 821.522 258.302 827.612C236.737 833.703 214.107 835.043 191.974 831.54C169.84 828.037 148.73 819.775 130.099 807.324C111.468 794.872 95.7605 778.528 84.0588 759.418C72.357 740.307 64.94 718.886 62.3194 696.632C59.6989 674.377 61.9371 651.819 68.8797 630.514C68.9055 630.435 68.9155 630.351 68.9091 630.269C68.9027 630.186 68.88 630.105 68.8423 630.031C68.8046 629.957 68.7527 629.891 68.6895 629.837C68.6263 629.783 68.5531 629.742 68.474 629.716C68.3949 629.69 68.3116 629.68 68.2287 629.687C68.1458 629.694 68.065 629.716 67.991 629.754C67.917 629.792 67.8512 629.844 67.7973 629.907C67.7434 629.971 67.7025 630.044 67.677 630.123C60.0797 653.564 58.1337 678.47 61.9977 702.806C65.8618 727.143 75.4264 750.221 89.9108 770.156C104.395 790.091 123.389 806.319 145.341 817.514C167.293 828.709 191.582 834.554 216.224 834.572Z" fill="url(#paint32_linear_1031_2279)"/>
</g>
<g opacity="0.83">
<path d="M216.081 817.28C248.239 817.271 279.4 806.12 304.263 785.725C329.126 765.331 346.153 736.951 352.449 705.417C352.481 705.253 352.447 705.082 352.354 704.943C352.261 704.804 352.116 704.707 351.952 704.675C351.788 704.642 351.617 704.676 351.478 704.769C351.338 704.861 351.242 705.006 351.209 705.17C344.995 736.43 328.129 764.566 303.487 784.78C278.845 804.993 247.954 816.033 216.081 816.016C192.358 815.978 169.047 809.818 148.403 798.13C127.759 786.443 110.482 769.624 98.2441 749.302C85.3637 727.845 78.5564 703.292 78.5497 678.266C78.5205 656.578 83.6731 635.198 93.5786 615.904C93.6547 615.755 93.6683 615.581 93.6165 615.422C93.5647 615.262 93.4516 615.13 93.3022 615.054C93.1527 614.978 92.9792 614.964 92.8197 615.016C92.6601 615.068 92.5277 615.181 92.4516 615.33C82.4553 634.801 77.2556 656.379 77.2853 678.266C77.267 703.899 84.3442 729.038 97.7332 750.897C111.122 772.756 130.3 790.483 153.143 802.114C172.615 812.11 194.193 817.31 216.081 817.28Z" fill="url(#paint33_linear_1031_2279)"/>
</g>
<g opacity="0.86">
<path d="M216.094 799.979C239.044 799.976 261.527 793.49 280.951 781.268C300.376 769.045 315.953 751.584 325.887 730.896C325.923 730.821 325.944 730.74 325.949 730.657C325.953 730.574 325.942 730.491 325.914 730.412C325.887 730.334 325.844 730.261 325.789 730.2C325.733 730.138 325.666 730.087 325.591 730.051C325.516 730.015 325.435 729.994 325.352 729.99C325.269 729.985 325.186 729.997 325.107 730.025C325.029 730.052 324.957 730.095 324.895 730.151C324.833 730.206 324.783 730.274 324.747 730.349C314.941 750.842 299.532 768.139 280.304 780.238C261.075 792.337 238.812 798.743 216.094 798.715C193.749 798.686 171.852 792.444 152.852 780.684C133.852 768.925 118.497 752.113 108.505 732.127C100.2 715.39 95.8699 696.962 95.8525 678.278C95.8144 652.89 103.867 628.151 118.842 607.65C118.891 607.583 118.926 607.507 118.946 607.426C118.965 607.345 118.968 607.261 118.955 607.179C118.942 607.097 118.913 607.019 118.87 606.948C118.827 606.877 118.77 606.816 118.703 606.767C118.635 606.718 118.559 606.683 118.478 606.663C118.398 606.644 118.314 606.641 118.232 606.654C118.15 606.667 118.071 606.696 118 606.739C117.93 606.783 117.868 606.84 117.819 606.907C102.686 627.623 94.5493 652.623 94.588 678.278C94.56 697.487 99.0896 716.428 107.804 733.546C116.519 750.664 129.171 765.47 144.72 776.748C165.438 791.88 190.438 800.018 216.094 799.979Z" fill="url(#paint34_linear_1031_2279)"/>
</g>
<g opacity="0.88">
<path d="M216.194 782.691C229.898 782.728 243.474 780.047 256.135 774.802C268.797 769.558 280.292 761.854 289.956 752.137C290.075 752.019 290.141 751.859 290.142 751.691C290.142 751.524 290.076 751.363 289.958 751.245C289.84 751.126 289.679 751.059 289.512 751.058C289.344 751.057 289.184 751.123 289.065 751.241C269.739 770.567 243.527 781.424 216.196 781.425C188.865 781.425 162.653 770.569 143.327 751.244C124.001 731.918 113.143 705.708 113.143 678.378C113.142 651.048 123.999 624.837 143.325 605.511C143.443 605.392 143.509 605.232 143.509 605.064C143.509 604.897 143.442 604.736 143.324 604.618C143.205 604.499 143.045 604.433 142.877 604.433C142.71 604.432 142.549 604.499 142.431 604.617C127.842 619.205 117.907 637.792 113.882 658.027C109.857 678.262 111.922 699.235 119.818 718.296C127.713 737.357 141.084 753.648 158.239 765.11C175.393 776.573 195.562 782.69 216.194 782.691Z" fill="url(#paint35_linear_1031_2279)"/>
</g>
<g opacity="0.91">
<path d="M216.264 765.416C225.412 765.421 234.502 763.978 243.198 761.139C243.277 761.113 243.35 761.072 243.413 761.018C243.476 760.964 243.528 760.898 243.566 760.824C243.603 760.75 243.626 760.669 243.632 760.587C243.639 760.504 243.629 760.421 243.603 760.342C243.577 760.263 243.536 760.19 243.482 760.127C243.428 760.063 243.362 760.012 243.288 759.974C243.214 759.937 243.133 759.914 243.05 759.908C242.968 759.901 242.884 759.911 242.805 759.937C234.236 762.734 225.278 764.157 216.264 764.151C202.714 764.171 189.353 760.977 177.278 754.83C165.203 748.682 154.759 739.758 146.803 728.791C136.129 714.178 130.389 696.544 130.416 678.448C130.396 664.899 133.591 651.538 139.738 639.463C145.886 627.389 154.81 616.945 165.778 608.989C165.846 608.94 165.903 608.879 165.947 608.808C165.991 608.737 166.021 608.658 166.034 608.576C166.047 608.494 166.044 608.41 166.025 608.329C166.005 608.248 165.97 608.171 165.921 608.104C165.872 608.036 165.81 607.979 165.739 607.936C165.668 607.892 165.589 607.864 165.507 607.851C165.424 607.838 165.34 607.842 165.259 607.861C165.178 607.881 165.102 607.917 165.035 607.966C150.153 618.77 139.076 634.01 133.394 651.499C127.711 668.988 127.715 687.828 133.405 705.315C139.095 722.802 150.178 738.038 165.064 748.835C179.95 759.633 197.874 765.437 216.264 765.416Z" fill="url(#paint36_linear_1031_2279)"/>
</g>
<g opacity="0.93">
<path d="M189.885 742.929C190.032 742.929 190.174 742.879 190.287 742.786C190.4 742.693 190.478 742.563 190.506 742.42C190.535 742.276 190.512 742.127 190.443 741.998C190.374 741.869 190.262 741.768 190.126 741.712C174.996 735.486 162.595 724.048 155.168 709.47C151.079 701.458 148.609 692.718 147.901 683.75C147.192 674.782 148.258 665.763 151.038 657.207C153.818 648.652 158.257 640.729 164.101 633.89C169.946 627.052 177.081 621.432 185.099 617.354C185.249 617.277 185.362 617.145 185.414 616.986C185.465 616.826 185.452 616.653 185.376 616.503C185.3 616.354 185.167 616.241 185.008 616.189C184.848 616.137 184.675 616.151 184.526 616.227C172.636 622.285 162.734 631.625 155.994 643.141C149.253 654.656 145.957 667.863 146.496 681.195C147.035 694.527 151.386 707.425 159.034 718.359C166.683 729.293 177.306 737.804 189.645 742.882C189.722 742.913 189.803 742.929 189.885 742.929Z" fill="url(#paint37_linear_1031_2279)"/>
</g>
<g opacity="0.95">
<path d="M164.338 679.173H164.342C164.51 679.172 164.67 679.104 164.788 678.985C164.906 678.865 164.971 678.704 164.97 678.536L164.969 678.367C164.953 667.548 168.372 657.003 174.734 648.252C181.096 639.502 190.072 632.997 200.369 629.676C200.528 629.624 200.661 629.511 200.737 629.361C200.813 629.212 200.827 629.038 200.775 628.879C200.723 628.719 200.61 628.587 200.46 628.511C200.311 628.435 200.137 628.421 199.978 628.473C189.427 631.876 180.229 638.542 173.71 647.509C167.191 656.476 163.688 667.281 163.705 678.367V678.545C163.707 678.712 163.774 678.872 163.892 678.989C164.011 679.107 164.171 679.173 164.338 679.173Z" fill="url(#paint38_linear_1031_2279)"/>
</g>
<g opacity="0.98">
<path d="M240.657 654.594C240.782 654.594 240.905 654.557 241.009 654.488C241.113 654.418 241.194 654.32 241.242 654.204C241.289 654.089 241.302 653.961 241.278 653.839C241.253 653.716 241.193 653.604 241.105 653.515C237.849 650.233 233.974 647.63 229.706 645.856C225.437 644.082 220.858 643.172 216.235 643.18C214.377 643.181 212.522 643.327 210.687 643.618C210.522 643.644 210.373 643.735 210.275 643.871C210.176 644.006 210.135 644.176 210.162 644.341C210.188 644.507 210.279 644.655 210.414 644.754C210.55 644.852 210.719 644.893 210.885 644.867C212.655 644.587 214.444 644.445 216.235 644.444C220.692 644.437 225.106 645.314 229.221 647.025C233.337 648.735 237.072 651.245 240.21 654.409C240.269 654.468 240.339 654.515 240.415 654.546C240.492 654.578 240.574 654.594 240.657 654.594Z" fill="url(#paint39_linear_1031_2279)"/>
</g>
<path d="M216.192 696.289C220.942 696.284 225.495 694.395 228.853 691.037C232.211 687.679 234.1 683.126 234.105 678.377C234.105 678.126 234.1 677.877 234.09 677.629C234.088 677.545 234.069 677.463 234.034 677.388C234 677.312 233.95 677.244 233.889 677.187C233.828 677.131 233.756 677.087 233.677 677.059C233.599 677.031 233.515 677.019 233.432 677.023C233.349 677.027 233.268 677.046 233.192 677.081C233.117 677.116 233.049 677.166 232.993 677.227C232.937 677.288 232.893 677.359 232.865 677.437C232.836 677.515 232.823 677.598 232.827 677.681C232.836 677.912 232.841 678.144 232.841 678.377C232.841 681.67 231.864 684.889 230.035 687.626C228.206 690.364 225.606 692.498 222.564 693.758C219.521 695.018 216.174 695.348 212.944 694.705C209.715 694.063 206.748 692.477 204.42 690.149C202.092 687.821 200.506 684.854 199.864 681.625C199.221 678.396 199.551 675.048 200.811 672.006C202.071 668.964 204.205 666.364 206.943 664.535C209.681 662.706 212.9 661.729 216.192 661.729C216.36 661.729 216.521 661.663 216.639 661.544C216.758 661.426 216.825 661.265 216.825 661.097C216.825 660.929 216.758 660.769 216.639 660.65C216.521 660.531 216.36 660.465 216.192 660.465C211.442 660.465 206.885 662.352 203.526 665.711C200.167 669.07 198.279 673.627 198.279 678.377C198.279 683.128 200.167 687.684 203.526 691.043C206.885 694.402 211.442 696.289 216.192 696.289Z" fill="url(#paint40_linear_1031_2279)"/>
</g>
<defs>
<linearGradient id="paint0_linear_1031_2279" x1="456.525" y1="12.5532" x2="457.79" y2="11.288" gradientUnits="userSpaceOnUse">
<stop stop-color="#91E998"/>
<stop offset="1" stop-color="#6366F7"/>
</linearGradient>
<linearGradient id="paint1_linear_1031_2279" x1="351.361" y1="30.7772" x2="367.874" y2="-25.9722" gradientUnits="userSpaceOnUse">
<stop stop-color="#91E998"/>
<stop offset="1" stop-color="#6366F7"/>
</linearGradient>
<linearGradient id="paint2_linear_1031_2279" x1="423.822" y1="49.1875" x2="431.998" y2="27.5043" gradientUnits="userSpaceOnUse">
<stop stop-color="#91E998"/>
<stop offset="1" stop-color="#6366F7"/>
</linearGradient>
<linearGradient id="paint3_linear_1031_2279" x1="454.105" y1="93.9358" x2="475.409" y2="47.693" gradientUnits="userSpaceOnUse">
<stop stop-color="#91E998"/>
<stop offset="1" stop-color="#6366F7"/>
</linearGradient>
<linearGradient id="paint4_linear_1031_2279" x1="453.852" y1="161.753" x2="519.795" y2="43.6147" gradientUnits="userSpaceOnUse">
<stop stop-color="#91E998"/>
<stop offset="1" stop-color="#6366F7"/>
</linearGradient>
<linearGradient id="paint5_linear_1031_2279" x1="453.596" y1="239.13" x2="579.732" y2="51.1616" gradientUnits="userSpaceOnUse">
<stop stop-color="#91E998"/>
<stop offset="1" stop-color="#6366F7"/>
</linearGradient>
<linearGradient id="paint6_linear_1031_2279" x1="453.33" y1="323.515" x2="650.326" y2="76.9441" gradientUnits="userSpaceOnUse">
<stop stop-color="#91E998"/>
<stop offset="1" stop-color="#6366F7"/>
</linearGradient>
<linearGradient id="paint7_linear_1031_2279" x1="452.672" y1="412.279" x2="724.362" y2="125.063" gradientUnits="userSpaceOnUse">
<stop stop-color="#91E998"/>
<stop offset="1" stop-color="#6366F7"/>
</linearGradient>
<linearGradient id="paint8_linear_1031_2279" x1="452.438" y1="502.794" x2="793.99" y2="198.036" gradientUnits="userSpaceOnUse">
<stop stop-color="#91E998"/>
<stop offset="1" stop-color="#6366F7"/>
</linearGradient>
<linearGradient id="paint9_linear_1031_2279" x1="451.854" y1="592.507" x2="850.05" y2="293.785" gradientUnits="userSpaceOnUse">
<stop stop-color="#91E998"/>
<stop offset="1" stop-color="#6366F7"/>
</linearGradient>
<linearGradient id="paint10_linear_1031_2279" x1="451.711" y1="679.009" x2="884.808" y2="408.839" gradientUnits="userSpaceOnUse">
<stop stop-color="#91E998"/>
<stop offset="1" stop-color="#6366F7"/>
</linearGradient>
<linearGradient id="paint11_linear_1031_2279" x1="451.074" y1="760.106" x2="897.767" y2="526.847" gradientUnits="userSpaceOnUse">
<stop stop-color="#91E998"/>
<stop offset="1" stop-color="#6366F7"/>
</linearGradient>
<linearGradient id="paint12_linear_1031_2279" x1="450.344" y1="833.865" x2="896.659" y2="634.338" gradientUnits="userSpaceOnUse">
<stop stop-color="#91E998"/>
<stop offset="1" stop-color="#6366F7"/>
</linearGradient>
<linearGradient id="paint13_linear_1031_2279" x1="449.629" y1="898.669" x2="885.701" y2="728.705" gradientUnits="userSpaceOnUse">
<stop stop-color="#91E998"/>
<stop offset="1" stop-color="#6366F7"/>
</linearGradient>
<linearGradient id="paint14_linear_1031_2279" x1="448.918" y1="953.248" x2="868.042" y2="808.607" gradientUnits="userSpaceOnUse">
<stop stop-color="#91E998"/>
<stop offset="1" stop-color="#6366F7"/>
</linearGradient>
<linearGradient id="paint15_linear_1031_2279" x1="447.854" y1="996.7" x2="846.076" y2="873.174" gradientUnits="userSpaceOnUse">
<stop stop-color="#91E998"/>
<stop offset="1" stop-color="#6366F7"/>
</linearGradient>
<linearGradient id="paint16_linear_1031_2279" x1="447.074" y1="1028.51" x2="820.944" y2="923.084" gradientUnits="userSpaceOnUse">
<stop stop-color="#91E998"/>
<stop offset="1" stop-color="#6366F7"/>
</linearGradient>
<linearGradient id="paint17_linear_1031_2279" x1="403.848" y1="1048.53" x2="817.552" y2="916.867" gradientUnits="userSpaceOnUse">
<stop stop-color="#91E998"/>
<stop offset="1" stop-color="#6366F7"/>
</linearGradient>
<linearGradient id="paint18_linear_1031_2279" x1="338.381" y1="1057" x2="816.84" y2="869.392" gradientUnits="userSpaceOnUse">
<stop stop-color="#91E998"/>
<stop offset="1" stop-color="#6366F7"/>
</linearGradient>
<linearGradient id="paint19_linear_1031_2279" x1="275.033" y1="1054.49" x2="801.4" y2="805.608" gradientUnits="userSpaceOnUse">
<stop stop-color="#91E998"/>
<stop offset="1" stop-color="#6366F7"/>
</linearGradient>
<linearGradient id="paint20_linear_1031_2279" x1="215.561" y1="1041.89" x2="769.004" y2="730.79" gradientUnits="userSpaceOnUse">
<stop stop-color="#91E998"/>
<stop offset="1" stop-color="#6366F7"/>
</linearGradient>
<linearGradient id="paint21_linear_1031_2279" x1="161.496" y1="1024.66" x2="721.364" y2="656.481" gradientUnits="userSpaceOnUse">
<stop stop-color="#91E998"/>
<stop offset="1" stop-color="#6366F7"/>
</linearGradient>
<linearGradient id="paint22_linear_1031_2279" x1="114.1" y1="1007.42" x2="663.493" y2="592.804" gradientUnits="userSpaceOnUse">
<stop stop-color="#91E998"/>
<stop offset="1" stop-color="#6366F7"/>
</linearGradient>
<linearGradient id="paint23_linear_1031_2279" x1="74.3457" y1="990.118" x2="599.919" y2="542.32" gradientUnits="userSpaceOnUse">
<stop stop-color="#91E998"/>
<stop offset="1" stop-color="#6366F7"/>
</linearGradient>
<linearGradient id="paint24_linear_1031_2279" x1="42.8867" y1="972.792" x2="535.352" y2="505.716" gradientUnits="userSpaceOnUse">
<stop stop-color="#91E998"/>
<stop offset="1" stop-color="#6366F7"/>
</linearGradient>
<linearGradient id="paint25_linear_1031_2279" x1="20.0527" y1="955.491" x2="472.819" y2="482.671" gradientUnits="userSpaceOnUse">
<stop stop-color="#91E998"/>
<stop offset="1" stop-color="#6366F7"/>
</linearGradient>
<linearGradient id="paint26_linear_1031_2279" x1="5.85547" y1="938.23" x2="415.421" y2="471.957" gradientUnits="userSpaceOnUse">
<stop stop-color="#91E998"/>
<stop offset="1" stop-color="#6366F7"/>
</linearGradient>
<linearGradient id="paint27_linear_1031_2279" x1="7.92419e-07" y1="920.983" x2="363.82" y2="472.117" gradientUnits="userSpaceOnUse">
<stop stop-color="#91E998"/>
<stop offset="1" stop-color="#6366F7"/>
</linearGradient>
<linearGradient id="paint28_linear_1031_2279" x1="1.90625" y1="903.712" x2="319.199" y2="481.447" gradientUnits="userSpaceOnUse">
<stop stop-color="#91E998"/>
<stop offset="1" stop-color="#6366F7"/>
</linearGradient>
<linearGradient id="paint29_linear_1031_2279" x1="10.7461" y1="886.401" x2="280.858" y2="498.573" gradientUnits="userSpaceOnUse">
<stop stop-color="#91E998"/>
<stop offset="1" stop-color="#6366F7"/>
</linearGradient>
<linearGradient id="paint30_linear_1031_2279" x1="25.4727" y1="869.091" x2="248.013" y2="522.324" gradientUnits="userSpaceOnUse">
<stop stop-color="#91E998"/>
<stop offset="1" stop-color="#6366F7"/>
</linearGradient>
<linearGradient id="paint31_linear_1031_2279" x1="42.7285" y1="851.836" x2="217.261" y2="550.772" gradientUnits="userSpaceOnUse">
<stop stop-color="#91E998"/>
<stop offset="1" stop-color="#6366F7"/>
</linearGradient>
<linearGradient id="paint32_linear_1031_2279" x1="60.0645" y1="834.572" x2="248.001" y2="548.083" gradientUnits="userSpaceOnUse">
<stop stop-color="#91E998"/>
<stop offset="1" stop-color="#6366F7"/>
</linearGradient>
<linearGradient id="paint33_linear_1031_2279" x1="77.2852" y1="817.28" x2="270.368" y2="554.635" gradientUnits="userSpaceOnUse">
<stop stop-color="#91E998"/>
<stop offset="1" stop-color="#6366F7"/>
</linearGradient>
<linearGradient id="paint34_linear_1031_2279" x1="94.5879" y1="799.98" x2="284.845" y2="572.298" gradientUnits="userSpaceOnUse">
<stop stop-color="#91E998"/>
<stop offset="1" stop-color="#6366F7"/>
</linearGradient>
<linearGradient id="paint35_linear_1031_2279" x1="111.877" y1="782.691" x2="290.135" y2="604.426" gradientUnits="userSpaceOnUse">
<stop stop-color="#91E998"/>
<stop offset="1" stop-color="#6366F7"/>
</linearGradient>
<linearGradient id="paint36_linear_1031_2279" x1="129.135" y1="765.416" x2="279.002" y2="656.516" gradientUnits="userSpaceOnUse">
<stop stop-color="#91E998"/>
<stop offset="1" stop-color="#6366F7"/>
</linearGradient>
<linearGradient id="paint37_linear_1031_2279" x1="146.439" y1="742.929" x2="225.089" y2="715.582" gradientUnits="userSpaceOnUse">
<stop stop-color="#91E998"/>
<stop offset="1" stop-color="#6366F7"/>
</linearGradient>
<linearGradient id="paint38_linear_1031_2279" x1="163.705" y1="679.173" x2="212.05" y2="643.817" gradientUnits="userSpaceOnUse">
<stop stop-color="#91E998"/>
<stop offset="1" stop-color="#6366F7"/>
</linearGradient>
<linearGradient id="paint39_linear_1031_2279" x1="210.154" y1="654.594" x2="217.531" y2="634.47" gradientUnits="userSpaceOnUse">
<stop stop-color="#91E998"/>
<stop offset="1" stop-color="#6366F7"/>
</linearGradient>
<linearGradient id="paint40_linear_1031_2279" x1="198.279" y1="696.289" x2="234.103" y2="660.463" gradientUnits="userSpaceOnUse">
<stop stop-color="#91E998"/>
<stop offset="1" stop-color="#6366F7"/>
</linearGradient>
<clipPath id="clip0_1031_2279">
<rect width="763" height="1057" fill="white"/>
</clipPath>
</defs>
</svg>
