
<svg width="218" height="26" viewBox="0 0 218 26" fill="none" xmlns="http://www.w3.org/2000/svg">
<path fill-rule="evenodd" clip-rule="evenodd" d="M4.96385 0C2.22239 0 0 2.18261 0 4.875V21.125C0 23.8174 2.22239 26 4.96385 26H16.5462C23.8567 26 29.7831 20.1797 29.7831 13C29.7831 5.8203 23.8567 0 16.5462 0H4.96385Z" fill="#F34321"/>
<path fill-rule="evenodd" clip-rule="evenodd" d="M44.5401 0C47.2815 0 49.5039 2.18261 49.5039 4.875V21.125C49.5039 23.8174 47.2815 26 44.5401 26H32.9577C25.6472 26 19.7208 20.1797 19.7208 13C19.7208 5.8203 25.6472 0 32.9577 0H44.5401Z" fill="#F34321"/>
<mask id="mask0_944_1741" style="mask-type:alpha" maskUnits="userSpaceOnUse" x="0" y="0" width="30" height="26">
<path fill-rule="evenodd" clip-rule="evenodd" d="M4.96385 0C2.22239 0 0 2.18261 0 4.875V21.125C0 23.8174 2.22239 26 4.96385 26H16.5462C23.8567 26 29.7831 20.1797 29.7831 13C29.7831 5.8203 23.8567 0 16.5462 0H4.96385Z" fill="#5EC9C9"/>
</mask>
<g mask="url(#mask0_944_1741)">
<path fill-rule="evenodd" clip-rule="evenodd" d="M44.5401 0C47.2815 0 49.5039 2.18261 49.5039 4.875V21.125C49.5039 23.8174 47.2815 26 44.5401 26H32.9577C25.6472 26 19.7208 20.1797 19.7208 13C19.7208 5.8203 25.6472 0 32.9577 0H44.5401Z" fill="#B02E2E"/>
</g>
<path fill-rule="evenodd" clip-rule="evenodd" d="M183.738 16.0057C182.851 17.6978 181.879 18.7242 181.307 18.7242C180.186 18.7242 181.363 15.5352 181.745 14.5L181.793 14.3691L184.739 6.5188C186.198 2.63526 185.826 0 182.937 0C181.049 0 179.648 1.16506 178.389 3.7171C178.332 3.8558 178.389 3.96676 178.503 4.04998C178.646 4.10545 178.761 4.07772 178.818 3.93902C179.676 2.2469 180.735 0.943144 181.593 0.943144C182.451 0.943144 182.022 2.21916 181.192 4.46607L178.103 12.7879C176.53 17.0876 177.13 19.9725 179.705 19.9725C181.45 19.9725 182.994 18.4745 184.138 16.2276C184.224 16.1167 184.167 15.978 184.053 15.9225C183.91 15.8393 183.795 15.8948 183.738 16.0057ZM200.569 16.0057C199.74 17.5037 198.653 18.7519 198.081 18.7519C197.48 18.7519 197.537 17.2817 198.424 15.0071C198.514 14.7636 198.602 14.522 198.691 14.2805L198.691 14.2804C199.277 12.6791 199.861 11.0847 200.855 8.98762C200.973 8.74113 201.085 8.50232 201.192 8.27397C201.757 7.0632 202.185 6.14631 202.715 5.93627C202.943 5.82531 202.886 5.49243 202.6 5.54791C201.699 5.74966 200.952 6.14051 200.285 6.48967C199.576 6.86064 198.957 7.18455 198.338 7.18455C197.755 7.18455 197.389 6.88419 196.967 6.53867C196.396 6.07082 195.724 5.52017 194.277 5.52017C190.758 5.52017 187.44 8.46056 185.953 12.8712C184.523 17.1153 185.781 19.9447 188.813 19.9447C191.159 19.9447 192.904 18.2249 195.163 13.7033C193.361 17.4482 194.277 19.9725 196.536 19.9725C198.281 19.9725 199.826 18.4745 200.97 16.2276C201.056 16.1167 200.998 15.978 200.884 15.9225C200.741 15.8393 200.627 15.8948 200.569 16.0057ZM195.306 6.26914C196.708 6.26914 196.851 8.12769 195.793 10.9571C194.134 15.3122 191.588 19.0293 190.1 19.0293C188.899 19.0293 188.928 16.6715 190.129 13.204C191.531 9.01536 193.59 6.26914 195.306 6.26914ZM212.41 0.110958C212.782 -0.0554784 212.782 0.332875 212.553 0.471573C211.895 0.887666 211.666 1.38698 210.98 3.13457L208.892 8.59926C210.179 6.68523 211.838 5.52017 213.926 5.52017C217.216 5.52017 218.875 8.7657 217.53 12.6215C216.014 17.0321 211.752 19.9725 206.861 19.9725C203.371 19.9725 201.083 18.1139 202.113 15.3677L206.032 4.88216C206.804 2.88491 206.632 2.08047 205.488 2.08047C205.202 2.08047 205.374 1.66437 205.66 1.66437C207.748 1.66437 210.265 1.0541 212.41 0.110958ZM213.154 5.964C211.18 5.964 208.949 8.57152 207.29 12.7602L206.289 15.34C205.374 17.6978 205.745 19.2513 207.233 19.279C209.435 19.279 212.095 16.2276 213.64 11.7616C214.813 8.23865 214.613 5.964 213.154 5.964ZM62.7765 26H58.1914V2.43952H62.7765V4.76239H62.8792C63.324 3.80006 65.3771 2.10769 68.5593 2.10769C72.6996 2.10769 77.1136 5.09422 77.1136 11.0673C77.1136 17.0404 72.6996 20.0269 68.5593 20.0269C65.3771 20.0269 63.324 18.3345 62.8792 17.3722H62.7765V26ZM67.6354 6.08974C65.0691 6.08974 62.6739 7.81529 62.6739 11.0673C62.6739 14.3193 65.0691 16.0449 67.6354 16.0449C70.2017 16.0449 72.5969 14.2861 72.5969 11.0673C72.5969 7.84848 70.2017 6.08974 67.6354 6.08974ZM92.439 17.3722C91.9942 18.3345 89.9412 20.0269 86.7589 20.0269C82.6186 20.0269 78.2046 17.0404 78.2046 11.0673C78.2046 5.09422 82.6186 2.10769 86.7589 2.10769C89.9412 2.10769 91.9942 3.80006 92.439 4.76239H92.5417V2.43952H97.1268V19.6951H92.5417V17.3722H92.439ZM87.6828 6.08974C85.1165 6.08974 82.7213 7.84848 82.7213 11.0673C82.7213 14.2861 85.1165 16.0449 87.6828 16.0449C90.2491 16.0449 92.6443 14.3193 92.6443 11.0673C92.6443 7.81529 90.2491 6.08974 87.6828 6.08974ZM99.9286 26H104.514V17.3722H104.616C105.061 18.3345 107.114 20.0269 110.296 20.0269C114.437 20.0269 118.851 17.0404 118.851 11.0673C118.851 5.09422 114.437 2.10769 110.296 2.10769C107.114 2.10769 105.061 3.80006 104.616 4.76239H104.514V2.43952H99.9286V26ZM104.411 11.0673C104.411 7.81529 106.806 6.08974 109.373 6.08974C111.939 6.08974 114.334 7.84848 114.334 11.0673C114.334 14.2861 111.939 16.0449 109.373 16.0449C106.806 16.0449 104.411 14.3193 104.411 11.0673ZM127.027 26H122.545L125.453 19.5292L118.063 2.43952H122.75L127.678 14.4189L132.571 2.43952H137.293L129.799 19.6951L127.027 26ZM146.377 20.0269C150.996 20.0269 155.752 16.9076 155.752 11.0673C155.752 5.22696 150.996 2.10769 146.377 2.10769C141.723 2.10769 137.001 5.22696 137.001 11.0673C137.001 16.9076 141.723 20.0269 146.377 20.0269ZM141.518 11.0673C141.518 7.98121 143.81 6.12292 146.377 6.12292C148.943 6.12292 151.201 7.98121 151.201 11.0673C151.201 14.1534 148.943 16.0117 146.377 16.0117C143.81 16.0117 141.518 14.1534 141.518 11.0673ZM162.274 19.6951H157.689V2.43952H162.274V4.79557C163.267 3.26912 165.046 2.10769 167.715 2.10769C171.376 2.10769 174.456 4.29781 174.456 9.54085V19.6951H169.871V10.2709C169.871 7.74893 168.468 6.08974 166.072 6.08974C163.711 6.08974 162.274 7.74893 162.274 10.2709V19.6951Z" fill="#B02E2E"/>
</svg>
