
<svg width="184" height="66" viewBox="0 0 184 66" fill="none" xmlns="http://www.w3.org/2000/svg">
<rect x="3" y="3" width="178" height="60" rx="16" fill="black"/>
<rect x="1.5" y="1.5" width="181" height="63" rx="17.5" stroke="black" stroke-opacity="0.1" stroke-width="3"/>
<path d="M18.5221 19.4323C18.1914 19.767 18 20.2882 18 20.9632V45.0378C18 45.7127 18.1914 46.2339 18.5221 46.5686L18.6038 46.6421L32.5567 33.1569V32.8385L18.6038 19.3534L18.5221 19.4323Z" fill="url(#paint0_linear_1199_517)"/>
<path d="M37.2005 37.6543L32.5547 33.157V32.8386L37.2061 28.3412L37.3103 28.3998L42.8188 31.4302C44.3909 32.2902 44.3909 33.7054 42.8188 34.5708L37.3103 37.5958L37.2005 37.6543Z" fill="url(#paint1_linear_1199_517)"/>
<path d="M37.3096 37.5957L32.5541 32.9977L18.5195 46.5686C19.0417 47.0993 19.8931 47.1632 20.8614 46.6325L37.3096 37.5957Z" fill="url(#paint2_linear_1199_517)"/>
<path d="M37.3096 28.3995L20.8614 19.3627C19.8931 18.8375 19.0417 18.9014 18.5195 19.4321L32.5541 32.9976L37.3096 28.3995Z" fill="url(#paint3_linear_1199_517)"/>
<path d="M65.3 46H63.86L63.7 43.76C63.06 45.28 61.34 46.32 59.44 46.32C55.36 46.32 52.94 43.04 52.94 38.92C52.94 34.78 55.34 31.48 59.48 31.48C62.56 31.48 64.6 33.36 65.24 36.04L63.04 36.18C62.6 34.54 61.38 33.44 59.48 33.44C56.44 33.44 55.14 35.96 55.14 38.92C55.14 41.86 56.46 44.36 59.48 44.36C61.76 44.36 63.04 42.74 63.22 40.62H59.46V38.74H65.3V46ZM72.4317 46.24C69.3917 46.24 67.4117 44.08 67.4117 40.7C67.4117 37.32 69.3917 35.16 72.4317 35.16C75.4717 35.16 77.4517 37.32 77.4517 40.7C77.4517 44.08 75.4717 46.24 72.4317 46.24ZM69.5717 40.7C69.5717 43.02 70.6117 44.42 72.4317 44.42C74.2517 44.42 75.2917 43.02 75.2917 40.7C75.2917 38.38 74.2517 36.98 72.4317 36.98C70.6117 36.98 69.5717 38.38 69.5717 40.7ZM84.2677 46.24C81.2277 46.24 79.2477 44.08 79.2477 40.7C79.2477 37.32 81.2277 35.16 84.2677 35.16C87.3077 35.16 89.2877 37.32 89.2877 40.7C89.2877 44.08 87.3077 46.24 84.2677 46.24ZM81.4077 40.7C81.4077 43.02 82.4477 44.42 84.2677 44.42C86.0877 44.42 87.1277 43.02 87.1277 40.7C87.1277 38.38 86.0877 36.98 84.2677 36.98C82.4477 36.98 81.4077 38.38 81.4077 40.7ZM95.8236 45.46C92.9236 45.46 91.0836 43.34 91.0836 40.34C91.0836 37.32 92.9836 35.16 95.8236 35.16C97.2036 35.16 98.3436 35.9 98.8236 37.04V35.4H100.824V44.9C100.824 47.7 98.8436 49.24 95.9636 49.24C93.6436 49.24 91.9036 48.02 91.3636 46.18L93.5236 46.04C93.9236 46.94 94.7636 47.48 95.9836 47.48C97.7036 47.48 98.7436 46.72 98.7436 45.26V43.7C98.1236 44.86 96.9436 45.46 95.8236 45.46ZM93.2436 40.34C93.2436 42.3 94.3036 43.7 96.0236 43.7C97.7236 43.7 98.7836 42.3 98.8036 40.34C98.8236 38.38 97.7636 36.98 96.0236 36.98C94.2836 36.98 93.2436 38.38 93.2436 40.34ZM104.149 31.8H106.229V43.58C106.229 44.06 106.449 44.28 106.909 44.28H107.789V46H106.469C105.069 46 104.149 45.1 104.149 43.68V31.8ZM109.267 40.7C109.267 37.32 111.247 35.16 114.287 35.16C116.767 35.16 118.927 36.8 119.047 40.58L119.067 41.3H111.447C111.607 43.28 112.607 44.44 114.287 44.44C115.347 44.44 116.287 43.84 116.727 42.82L118.907 42.98C118.287 44.98 116.427 46.24 114.287 46.24C111.247 46.24 109.267 44.08 109.267 40.7ZM111.487 39.7H116.867C116.587 37.66 115.487 36.96 114.287 36.96C112.727 36.96 111.747 37.98 111.487 39.7ZM131.852 31.8C135.092 31.8 137.012 33.44 137.012 36.2C137.012 38.98 135.092 40.66 131.852 40.66H128.712V46H126.592V31.8H131.852ZM128.712 38.7H131.812C133.792 38.7 134.812 37.86 134.812 36.2C134.812 34.58 133.792 33.76 131.812 33.76H128.712V38.7ZM139.696 31.8H141.776V43.58C141.776 44.06 141.996 44.28 142.456 44.28H143.336V46H142.016C140.616 46 139.696 45.1 139.696 43.68V31.8ZM145.15 38.56C145.57 36.44 147.25 35.16 149.65 35.16C152.53 35.16 154.09 36.76 154.09 39.64V43.64C154.09 44.14 154.31 44.32 154.73 44.32H155.17V46H154.47C153.51 46.02 152.25 45.82 152.17 44.38C151.71 45.38 150.53 46.24 148.79 46.24C146.67 46.24 144.97 45.12 144.97 43.22C144.97 41.08 146.55 40.48 148.97 40.02L152.01 39.42C151.99 37.72 151.21 36.9 149.65 36.9C148.41 36.9 147.59 37.52 147.29 38.7L145.15 38.56ZM147.13 43.18C147.13 43.96 147.79 44.6 149.19 44.6C150.81 44.6 152.05 43.46 152.05 41.14V41.04L149.77 41.44C148.29 41.7 147.13 41.82 147.13 43.18ZM155.702 35.4H157.822L160.842 43.8L163.762 35.4H165.862L161.622 47.24C161.182 48.46 160.382 49 159.082 49H157.642V47.3H158.802C159.342 47.3 159.662 47.1 159.842 46.6L160.202 45.7H159.542L155.702 35.4Z" fill="white"/>
<path d="M59.836 26H59.092L58.996 24.584C58.636 25.532 57.58 26.192 56.44 26.192C53.992 26.192 52.588 24.236 52.588 21.752C52.588 19.256 53.98 17.288 56.44 17.288C58.228 17.288 59.416 18.404 59.8 19.976L58.744 20.048C58.456 18.992 57.664 18.272 56.44 18.272C54.496 18.272 53.644 19.88 53.644 21.752C53.644 23.612 54.508 25.208 56.44 25.208C57.928 25.208 58.768 24.116 58.852 22.688H56.44V21.704H59.836V26ZM61.5884 17.48H66.9284V18.464H62.5964V21.248H66.7844V22.208H62.5964V25.016H67.0244V26H61.5884V17.48ZM74.3271 17.48V18.464H71.6751V26H70.6671V18.464H68.0031V17.48H74.3271ZM78.7446 17.48H79.7526V26H78.7446V17.48ZM87.4873 17.48V18.464H84.8353V26H83.8273V18.464H81.1633V17.48H87.4873ZM95.2408 26.192C92.8768 26.192 91.3888 24.476 91.3888 21.752C91.3888 19.004 92.8768 17.288 95.2408 17.288C97.6048 17.288 99.0928 19.004 99.0928 21.752C99.0928 24.476 97.6048 26.192 95.2408 26.192ZM92.4448 21.752C92.4448 23.96 93.4528 25.208 95.2408 25.208C97.0288 25.208 98.0368 23.96 98.0368 21.752C98.0368 19.532 97.0288 18.272 95.2408 18.272C93.4528 18.272 92.4448 19.532 92.4448 21.752ZM100.67 17.48H102.074L106.298 24.812V17.48H107.306V26H105.842L101.678 18.788V26H100.67V17.48Z" fill="white"/>
<defs>
<linearGradient id="paint0_linear_1199_517" x1="31.3178" y1="45.2885" x2="13.0587" y2="26.4036" gradientUnits="userSpaceOnUse">
<stop stop-color="#00A0FF"/>
<stop offset="0.0066" stop-color="#00A1FF"/>
<stop offset="0.2601" stop-color="#00BEFF"/>
<stop offset="0.5122" stop-color="#00D2FF"/>
<stop offset="0.7604" stop-color="#00DFFF"/>
<stop offset="1" stop-color="#00E3FF"/>
</linearGradient>
<linearGradient id="paint1_linear_1199_517" x1="44.8659" y1="32.9962" x2="17.6223" y2="32.9962" gradientUnits="userSpaceOnUse">
<stop stop-color="#FFE000"/>
<stop offset="0.4087" stop-color="#FFBD00"/>
<stop offset="0.7754" stop-color="#FFA500"/>
<stop offset="1" stop-color="#FF9C00"/>
</linearGradient>
<linearGradient id="paint2_linear_1199_517" x1="34.7237" y1="30.4981" x2="9.96285" y2="4.88877" gradientUnits="userSpaceOnUse">
<stop stop-color="#FF3A44"/>
<stop offset="1" stop-color="#C31162"/>
</linearGradient>
<linearGradient id="paint3_linear_1199_517" x1="14.9868" y1="54.5779" x2="26.0436" y2="43.1423" gradientUnits="userSpaceOnUse">
<stop stop-color="#32A071"/>
<stop offset="0.0685" stop-color="#2DA771"/>
<stop offset="0.4762" stop-color="#15CF74"/>
<stop offset="0.8009" stop-color="#06E775"/>
<stop offset="1" stop-color="#00F076"/>
</linearGradient>
</defs>
</svg>
