
<svg width="26" height="26" viewBox="0 0 26 26" fill="none" xmlns="http://www.w3.org/2000/svg">
<path d="M17.3333 24.6457H8.66667C4.7125 24.6457 2.4375 22.3707 2.4375 18.4165V7.58317C2.4375 3.629 4.7125 1.354 8.66667 1.354H17.3333C21.2875 1.354 23.5625 3.629 23.5625 7.58317V18.4165C23.5625 22.3707 21.2875 24.6457 17.3333 24.6457ZM8.66667 2.979C5.56833 2.979 4.0625 4.48484 4.0625 7.58317V18.4165C4.0625 21.5148 5.56833 23.0207 8.66667 23.0207H17.3333C20.4317 23.0207 21.9375 21.5148 21.9375 18.4165V7.58317C21.9375 4.48484 20.4317 2.979 17.3333 2.979H8.66667Z" fill="#1B48BB"/>
<path d="M9.75065 12.0357C9.56648 12.0357 9.38232 12.0032 9.20898 11.9273C8.71065 11.7107 8.39648 11.2232 8.39648 10.6923V2.1665C8.39648 1.72234 8.76482 1.354 9.20898 1.354H16.7923C17.2365 1.354 17.6048 1.72234 17.6048 2.1665V10.6815C17.6048 11.2232 17.2907 11.7107 16.7923 11.9165C16.3048 12.1332 15.7307 12.0357 15.3298 11.6674L13.0007 9.53316L10.6715 11.6782C10.4115 11.9165 10.0865 12.0357 9.75065 12.0357ZM13.0007 7.81069C13.3257 7.81069 13.6615 7.92981 13.9215 8.16815L15.9798 10.064V2.979H10.0215V10.064L12.0798 8.16815C12.3398 7.92981 12.6757 7.81069 13.0007 7.81069Z" fill="#1B48BB"/>
<path d="M18.9577 15.979H14.3535C13.9093 15.979 13.541 15.6107 13.541 15.1665C13.541 14.7223 13.9093 14.354 14.3535 14.354H18.9577C19.4018 14.354 19.7702 14.7223 19.7702 15.1665C19.7702 15.6107 19.4018 15.979 18.9577 15.979Z" fill="#0099FF"/>
<path d="M18.9583 20.3125H9.75C9.30583 20.3125 8.9375 19.9442 8.9375 19.5C8.9375 19.0558 9.30583 18.6875 9.75 18.6875H18.9583C19.4025 18.6875 19.7708 19.0558 19.7708 19.5C19.7708 19.9442 19.4025 20.3125 18.9583 20.3125Z" fill="#0099FF"/>
</svg>
