
<svg width="26" height="26" viewBox="0 0 26 26" fill="none" xmlns="http://www.w3.org/2000/svg">
<path d="M12.9996 24.6458C12.523 24.6458 12.0355 24.5808 11.6455 24.4508L8.18963 23.3024C6.55379 22.7608 5.26463 20.9733 5.27546 19.2508L5.28629 14.1699C5.28629 13.7258 5.65463 13.3574 6.09879 13.3574C6.54296 13.3574 6.91129 13.7258 6.91129 14.1699L6.90046 19.2508C6.90046 20.2691 7.74546 21.4391 8.70963 21.7641L12.1655 22.9124C12.5988 23.0533 13.4005 23.0533 13.8338 22.9124L17.2896 21.7641C18.2538 21.4391 19.0988 20.2691 19.0988 19.2616V14.2349C19.0988 13.7908 19.4671 13.4224 19.9113 13.4224C20.3555 13.4224 20.7238 13.7908 20.7238 14.2349V19.2616C20.7238 20.9841 19.4455 22.7608 17.8096 23.3133L14.3538 24.4616C13.9638 24.5808 13.4763 24.6458 12.9996 24.6458Z" fill="#1B48BB"/>
<path d="M13.0099 18.4169C12.089 18.4169 11.1574 18.1786 10.4315 17.7127L3.90987 13.4552C2.69654 12.6644 1.9707 11.3319 1.9707 9.88022C1.9707 8.42855 2.69654 7.09605 3.90987 6.30522L10.4424 2.05855C11.894 1.11605 14.1582 1.11605 15.599 2.06939L22.0882 6.32689C23.2907 7.11772 24.0165 8.45022 24.0165 9.89105C24.0165 11.3319 23.2907 12.6644 22.0882 13.4552L15.599 17.7127C14.8732 18.1894 13.9415 18.4169 13.0099 18.4169ZM13.0099 2.97939C12.3924 2.97939 11.7749 3.12022 11.3307 3.42355L4.80904 7.67022C4.0507 8.16855 3.60654 8.97022 3.60654 9.88022C3.60654 10.7902 4.03987 11.5919 4.80904 12.0902L11.3307 16.3477C12.2299 16.9327 13.8115 16.9327 14.7107 16.3477L21.1999 12.0902C21.9582 11.5919 22.3915 10.7902 22.3915 9.88022C22.3915 8.97022 21.9582 8.16855 21.1999 7.67022L14.7107 3.41272C14.2557 3.13105 13.6382 2.97939 13.0099 2.97939Z" fill="#0099FF"/>
<path d="M23.1836 17.0625C22.7394 17.0625 22.3711 16.6942 22.3711 16.25V9.75C22.3711 9.30583 22.7394 8.9375 23.1836 8.9375C23.6278 8.9375 23.9961 9.30583 23.9961 9.75V16.25C23.9961 16.6942 23.6278 17.0625 23.1836 17.0625Z" fill="#0099FF"/>
</svg>
