
<svg width="26" height="26" viewBox="0 0 26 26" fill="none" xmlns="http://www.w3.org/2000/svg">
<path d="M17.1271 21.8617C16.8454 21.8617 16.5529 21.8509 16.2388 21.8184C15.6754 21.7751 15.0363 21.6667 14.3754 21.5042L12.5554 21.0709C7.56126 19.8901 5.92542 17.2467 7.09542 12.2634L8.15709 7.72422C8.39542 6.69506 8.67709 5.86089 9.02376 5.16756C10.8871 1.32172 14.4513 1.66839 16.9863 2.26422L18.7954 2.68672C21.3304 3.28256 22.9338 4.22506 23.8329 5.66589C24.7213 7.10672 24.8621 8.95922 24.2663 11.4942L23.2046 16.0226C22.2729 19.9876 20.3338 21.8617 17.1271 21.8617ZM14.2129 3.52089C12.4038 3.52089 11.2554 4.26839 10.4863 5.87172C10.2046 6.45672 9.95542 7.18256 9.73876 8.09256L8.67709 12.6317C7.71292 16.7267 8.82876 18.5142 12.9238 19.4892L14.7438 19.9226C15.3288 20.0634 15.8813 20.1501 16.3796 20.1934C19.3263 20.4859 20.7888 19.1967 21.6121 15.6542L22.6738 11.1259C23.1613 9.03506 23.0963 7.57256 22.4463 6.52172C21.7963 5.47089 20.5179 4.75589 18.4163 4.26839L16.6071 3.84589C15.7079 3.62922 14.9063 3.52089 14.2129 3.52089Z" fill="#1B48BB"/>
<path d="M9.02382 24.1043C6.23965 24.1043 4.46298 22.436 3.32548 18.9151L1.93882 14.636C0.400482 9.86931 1.77632 7.18265 6.52132 5.64431L8.23298 5.09181C8.79632 4.91848 9.21882 4.79931 9.59798 4.73431C9.91215 4.66931 10.2155 4.78848 10.3996 5.03765C10.5838 5.28681 10.6163 5.61181 10.4863 5.89348C10.2046 6.46765 9.95548 7.19348 9.74965 8.10348L8.68798 12.6426C7.72382 16.7376 8.83965 18.5251 12.9346 19.5001L14.7546 19.9335C15.3396 20.0743 15.8921 20.161 16.3905 20.2043C16.7371 20.2368 17.0188 20.4751 17.1163 20.811C17.203 21.1468 17.073 21.4935 16.7913 21.6885C16.0763 22.176 15.1771 22.5876 14.0396 22.956L12.328 23.5193C11.0821 23.9093 9.99882 24.1043 9.02382 24.1043ZM8.42798 6.73848L7.03048 7.19348C3.16298 8.43931 2.24215 10.2593 3.48798 14.1376L4.87465 18.4168C6.13132 22.2843 7.95132 23.216 11.8188 21.9701L13.5305 21.4068C13.5955 21.3851 13.6496 21.3635 13.7146 21.3418L12.5663 21.071C7.57215 19.8901 5.93632 17.2468 7.10632 12.2635L8.16798 7.72431C8.24382 7.37765 8.33048 7.04181 8.42798 6.73848Z" fill="#1B48BB"/>
<path d="M18.9485 11.3856C18.8835 11.3856 18.8185 11.3748 18.7426 11.3639L13.4885 10.0314C13.0551 9.92309 12.7951 9.47893 12.9035 9.04559C13.0118 8.61226 13.456 8.35226 13.8893 8.46059L19.1435 9.79309C19.5768 9.90142 19.8368 10.3456 19.7285 10.7789C19.6418 11.1364 19.306 11.3856 18.9485 11.3856Z" fill="#0099FF"/>
<path d="M15.7726 15.0476C15.7076 15.0476 15.6426 15.0368 15.5667 15.026L12.4142 14.2243C11.9809 14.116 11.7209 13.6718 11.8292 13.2385C11.9376 12.8051 12.3817 12.5451 12.8151 12.6535L15.9676 13.4551C16.4009 13.5635 16.6609 14.0076 16.5526 14.441C16.4659 14.8093 16.1409 15.0476 15.7726 15.0476Z" fill="#0099FF"/>
</svg>
