
<svg width="26" height="26" viewBox="0 0 26 26" fill="none" xmlns="http://www.w3.org/2000/svg">
<path d="M10.8327 19.1749H6.72685C2.61018 19.1749 1.35352 17.9182 1.35352 13.8016V7.30156C1.35352 3.18489 2.61018 1.92822 6.72685 1.92822H18.1343C22.251 1.92822 23.5077 3.18489 23.5077 7.30156C23.5077 7.74572 23.1394 8.11406 22.6952 8.11406C22.251 8.11406 21.8827 7.74572 21.8827 7.30156C21.8827 4.11656 21.3193 3.55322 18.1343 3.55322H6.72685C3.54185 3.55322 2.97852 4.11656 2.97852 7.30156V13.8016C2.97852 16.9866 3.54185 17.5499 6.72685 17.5499H10.8327C11.2768 17.5499 11.6452 17.9182 11.6452 18.3624C11.6452 18.8066 11.2768 19.1749 10.8327 19.1749Z" fill="#1B48BB"/>
<path d="M10.834 24.0716C10.3898 24.0716 10.0215 23.7032 10.0215 23.2591V18.3516C10.0215 17.9074 10.3898 17.5391 10.834 17.5391C11.2782 17.5391 11.6465 17.9074 11.6465 18.3516V23.2591C11.6465 23.7141 11.2782 24.0716 10.834 24.0716Z" fill="#1B48BB"/>
<path d="M10.8327 14.8418H2.16602C1.72185 14.8418 1.35352 14.4735 1.35352 14.0293C1.35352 13.5851 1.72185 13.2168 2.16602 13.2168H10.8327C11.2768 13.2168 11.6452 13.5851 11.6452 14.0293C11.6452 14.4735 11.2768 14.8418 10.8327 14.8418Z" fill="#1B48BB"/>
<path d="M10.8324 24.0718H7.30078C6.85661 24.0718 6.48828 23.7034 6.48828 23.2593C6.48828 22.8151 6.85661 22.4468 7.30078 22.4468H10.8324C11.2766 22.4468 11.6449 22.8151 11.6449 23.2593C11.6449 23.7034 11.2766 24.0718 10.8324 24.0718Z" fill="#1B48BB"/>
<path d="M20.6267 24.0718H16.7809C13.7801 24.0718 12.7617 23.0535 12.7617 20.0527V13.8668C12.7617 10.866 13.7801 9.84766 16.7809 9.84766H20.6267C23.6276 9.84766 24.6459 10.866 24.6459 13.8668V20.0527C24.6459 23.0643 23.6276 24.0718 20.6267 24.0718ZM16.7809 11.4727C14.6576 11.4727 14.3867 11.7435 14.3867 13.8668V20.0527C14.3867 22.176 14.6576 22.4468 16.7809 22.4468H20.6267C22.7501 22.4468 23.0209 22.176 23.0209 20.0527V13.8668C23.0209 11.7435 22.7501 11.4727 20.6267 11.4727H16.7809Z" fill="#0099FF"/>
<path d="M18.7415 20.5507C18.4599 20.5507 18.1782 20.4424 17.9724 20.2365C17.8749 20.139 17.799 20.0199 17.7449 19.8899C17.6907 19.749 17.6582 19.6082 17.6582 19.4674C17.6582 19.1857 17.7774 18.904 17.9724 18.709C18.2215 18.4599 18.6007 18.3407 18.9582 18.4057C19.0232 18.4274 19.0882 18.449 19.1532 18.4707C19.2182 18.5032 19.2832 18.5357 19.3374 18.5682C19.4024 18.6115 19.4565 18.6549 19.5107 18.709C19.7057 18.904 19.8249 19.1857 19.8249 19.4674C19.8249 19.6082 19.7924 19.749 19.7382 19.8899C19.684 20.0199 19.6082 20.139 19.5107 20.2365C19.4565 20.2907 19.4024 20.334 19.3374 20.3665C19.2832 20.4099 19.2182 20.4424 19.1532 20.4749C19.0882 20.4965 19.0232 20.5182 18.9582 20.529C18.8824 20.5507 18.8174 20.5507 18.7415 20.5507Z" fill="#1B48BB"/>
</svg>
