
<svg width="22" height="22" viewBox="0 0 22 22" fill="none" xmlns="http://www.w3.org/2000/svg">
<path d="M16.6601 21.6698C16.1301 21.6698 15.4501 21.4998 14.6001 20.9998L11.6101 19.2298C11.3001 19.0498 10.7001 19.0498 10.4001 19.2298L7.40012 20.9998C5.63012 22.0498 4.59012 21.6298 4.12012 21.2898C3.66012 20.9498 2.94012 20.0798 3.41012 18.0798L4.12012 15.0098C4.20012 14.6898 4.04012 14.1398 3.80012 13.8998L1.32012 11.4198C0.0801177 10.1798 0.180118 9.11983 0.350118 8.59982C0.520118 8.07982 1.06012 7.15982 2.78012 6.86982L5.97012 6.33982C6.27012 6.28982 6.70012 5.96982 6.83012 5.69982L8.60012 2.16982C9.40012 0.559824 10.4501 0.319824 11.0001 0.319824C11.5501 0.319824 12.6001 0.559824 13.4001 2.16982L15.1601 5.68982C15.3001 5.95982 15.7301 6.27982 16.0301 6.32982L19.2201 6.85982C20.9501 7.14982 21.4901 8.06982 21.6501 8.58982C21.8101 9.10983 21.9101 10.1698 20.6801 11.4098L18.2001 13.8998C17.9601 14.1398 17.8101 14.6798 17.8801 15.0098L18.5901 18.0798C19.0501 20.0798 18.3401 20.9498 17.8801 21.2898C17.6301 21.4698 17.2301 21.6698 16.6601 21.6698Z" fill="#FFBF00"/>
</svg>
