
<svg width="397" height="397" viewBox="0 0 397 397" fill="none" xmlns="http://www.w3.org/2000/svg">
<path opacity="0.4" fill-rule="evenodd" clip-rule="evenodd" d="M90 1H10C5.02944 1 1 5.02944 1 10V90C1 94.9706 5.02944 99 10 99H90C94.9706 99 99 94.9706 99 90V10C99 5.02944 94.9706 1 90 1ZM93.1312 99.5C96.1354 98.5104 98.5104 96.1354 99.5 93.1312C100.49 96.1354 102.865 98.5104 105.869 99.5C102.865 100.49 100.49 102.865 99.5 105.869C98.5104 102.865 96.1354 100.49 93.1312 99.5ZM109 99H189C193.971 99 198 94.9706 198 90V10C198 5.02944 193.971 1 189 1H109C104.029 1 100 5.02944 100 10V90C100 94.9706 104.029 99 109 99ZM192.131 99.5C195.135 98.5104 197.51 96.1354 198.5 93.1312C199.49 96.1354 201.865 98.5104 204.869 99.5C201.865 100.49 199.49 102.865 198.5 105.869C197.51 102.865 195.135 100.49 192.131 99.5ZM208 99H288C292.971 99 297 94.9706 297 90V10C297 5.02944 292.971 1 288 1H208C203.029 1 199 5.02944 199 10V90C199 94.9706 203.029 99 208 99ZM291.131 99.5C294.135 98.5104 296.51 96.1354 297.5 93.1312C298.49 96.1354 300.865 98.5104 303.869 99.5C300.865 100.49 298.49 102.865 297.5 105.869C296.51 102.865 294.135 100.49 291.131 99.5ZM307 99H387C391.971 99 396 94.9706 396 90V10C396 5.02944 391.971 1 387 1H307C302.029 1 298 5.02944 298 10V90C298 94.9706 302.029 99 307 99ZM390.131 99.5C394.12 98.1859 397 94.4292 397 90V10C397 4.47715 392.523 0 387 0H307C302.571 0 298.814 2.87963 297.5 6.86885C296.186 2.87962 292.429 0 288 0H208C203.571 0 199.814 2.87963 198.5 6.86885C197.186 2.87962 193.429 0 189 0H109C104.571 0 100.814 2.87962 99.5 6.86884C98.1859 2.87962 94.4292 0 90 0H10C4.47715 0 0 4.47716 0 10V90C0 94.4292 2.87962 98.1859 6.86884 99.5C2.87962 100.814 0 104.571 0 109V189C0 193.429 2.87962 197.186 6.86884 198.5C2.87962 199.814 0 203.571 0 208V288C0 292.429 2.87962 296.186 6.86884 297.5C2.87962 298.814 0 302.571 0 307V387C0 392.523 4.47716 397 10 397H90C94.4292 397 98.1859 394.12 99.5 390.131C100.814 394.12 104.571 397 109 397H189C193.429 397 197.186 394.12 198.5 390.131C199.814 394.12 203.571 397 208 397H288C292.429 397 296.186 394.12 297.5 390.131C298.814 394.12 302.571 397 307 397H387C392.523 397 397 392.523 397 387V307C397 302.571 394.12 298.814 390.131 297.5C394.12 296.186 397 292.429 397 288V208C397 203.571 394.12 199.814 390.131 198.5C394.12 197.186 397 193.429 397 189V109C397 104.571 394.12 100.814 390.131 99.5ZM10 298C5.02944 298 1 302.029 1 307V387C1 391.971 5.02944 396 10 396H90C94.9706 396 99 391.971 99 387V307C99 302.029 94.9706 298 90 298H10ZM93.1312 297.5C96.1354 298.49 98.5104 300.865 99.5 303.869C100.49 300.865 102.865 298.49 105.869 297.5C102.865 296.51 100.49 294.135 99.5 291.131C98.5104 294.135 96.1354 296.51 93.1312 297.5ZM109 297H189C193.971 297 198 292.971 198 288V208C198 203.029 193.971 199 189 199H109C104.029 199 100 203.029 100 208V288C100 292.971 104.029 297 109 297ZM192.131 297.5C195.135 296.51 197.51 294.135 198.5 291.131C199.49 294.135 201.865 296.51 204.869 297.5C201.865 298.49 199.49 300.865 198.5 303.869C197.51 300.865 195.135 298.49 192.131 297.5ZM208 297H288C292.971 297 297 292.971 297 288V208C297 203.029 292.971 199 288 199H208C203.029 199 199 203.029 199 208V288C199 292.971 203.029 297 208 297ZM291.131 297.5C294.135 296.51 296.51 294.135 297.5 291.131C298.49 294.135 300.865 296.51 303.869 297.5C300.865 298.49 298.49 300.865 297.5 303.869C296.51 300.865 294.135 298.49 291.131 297.5ZM307 297H387C391.971 297 396 292.971 396 288V208C396 203.029 391.971 199 387 199H307C302.029 199 298 203.029 298 208V288C298 292.971 302.029 297 307 297ZM307 298C302.029 298 298 302.029 298 307V387C298 391.971 302.029 396 307 396H387C391.971 396 396 391.971 396 387V307C396 302.029 391.971 298 387 298H307ZM208 298C203.029 298 199 302.029 199 307V387C199 391.971 203.029 396 208 396H288C292.971 396 297 391.971 297 387V307C297 302.029 292.971 298 288 298H208ZM109 298C104.029 298 100 302.029 100 307V387C100 391.971 104.029 396 109 396H189C193.971 396 198 391.971 198 387V307C198 302.029 193.971 298 189 298H109ZM1 208C1 203.029 5.02944 199 10 199H90C94.9706 199 99 203.029 99 208V288C99 292.971 94.9706 297 90 297H10C5.02944 297 1 292.971 1 288V208ZM99.5 204.869C98.5104 201.865 96.1354 199.49 93.1312 198.5C96.1354 197.51 98.5104 195.135 99.5 192.131C100.49 195.135 102.865 197.51 105.869 198.5C102.865 199.49 100.49 201.865 99.5 204.869ZM189 198H109C104.029 198 100 193.971 100 189V109C100 104.029 104.029 100 109 100H189C193.971 100 198 104.029 198 109V189C198 193.971 193.971 198 189 198ZM198.5 192.131C197.51 195.135 195.135 197.51 192.131 198.5C195.135 199.49 197.51 201.865 198.5 204.869C199.49 201.865 201.865 199.49 204.869 198.5C201.865 197.51 199.49 195.135 198.5 192.131ZM288 198H208C203.029 198 199 193.971 199 189V109C199 104.029 203.029 100 208 100H288C292.971 100 297 104.029 297 109V189C297 193.971 292.971 198 288 198ZM297.5 192.131C296.51 195.135 294.135 197.51 291.131 198.5C294.135 199.49 296.51 201.865 297.5 204.869C298.49 201.865 300.865 199.49 303.869 198.5C300.865 197.51 298.49 195.135 297.5 192.131ZM387 198H307C302.029 198 298 193.971 298 189V109C298 104.029 302.029 100 307 100H387C391.971 100 396 104.029 396 109V189C396 193.971 391.971 198 387 198ZM10 100C5.02944 100 1 104.029 1 109V189C1 193.971 5.02944 198 10 198H90C94.9706 198 99 193.971 99 189V109C99 104.029 94.9706 100 90 100H10Z" fill="url(#paint0_radial_1014_325)"/>
<defs>
<radialGradient id="paint0_radial_1014_325" cx="0" cy="0" r="1" gradientUnits="userSpaceOnUse" gradientTransform="translate(198.5 198.5) rotate(89.8661) scale(214.001)">
<stop stop-color="#6386FF" stop-opacity="0.9"/>
<stop offset="0.90718" stop-color="#6386FF" stop-opacity="0"/>
</radialGradient>
</defs>
</svg>
