
<svg width="218" height="26" viewBox="0 0 218 26" fill="none" xmlns="http://www.w3.org/2000/svg">
<path fill-rule="evenodd" clip-rule="evenodd" d="M4.96386 0C2.2224 0 0 2.18261 0 4.875V21.125C0 23.8174 2.2224 26 4.96386 26H16.5462C23.8568 26 29.7832 20.1797 29.7832 13C29.7832 5.82029 23.8568 0 16.5462 0H4.96386Z" fill="white"/>
<path fill-rule="evenodd" clip-rule="evenodd" d="M44.54 0C47.2815 0 49.5039 2.18261 49.5039 4.875V21.125C49.5039 23.8174 47.2815 26 44.54 26H32.9577C25.6471 26 19.7207 20.1797 19.7207 13C19.7207 5.82029 25.6471 0 32.9577 0H44.54Z" fill="white"/>
<mask id="mask0_846_2429" style="mask-type:alpha" maskUnits="userSpaceOnUse" x="0" y="0" width="30" height="26">
<path fill-rule="evenodd" clip-rule="evenodd" d="M4.96386 0C2.2224 0 0 2.18261 0 4.875V21.125C0 23.8174 2.2224 26 4.96386 26H16.5462C23.8568 26 29.7832 20.1797 29.7832 13C29.7832 5.82029 23.8568 0 16.5462 0H4.96386Z" fill="#5EC9C9"/>
</mask>
<g mask="url(#mask0_846_2429)">
<path fill-rule="evenodd" clip-rule="evenodd" d="M44.54 0C47.2815 0 49.5039 2.18261 49.5039 4.875V21.125C49.5039 23.8174 47.2815 26 44.54 26H32.9577C25.6471 26 19.7207 20.1797 19.7207 13C19.7207 5.82029 25.6471 0 32.9577 0H44.54Z" fill="#EFDADA"/>
</g>
<path fill-rule="evenodd" clip-rule="evenodd" d="M183.739 16.0057C182.853 17.6978 181.88 18.7242 181.308 18.7242C180.188 18.7242 181.364 15.5352 181.746 14.5L181.794 14.3691L184.74 6.51879C186.199 2.63526 185.827 0 182.938 0C181.051 0 179.649 1.16506 178.39 3.7171C178.333 3.8558 178.39 3.96675 178.505 4.04997C178.648 4.10545 178.762 4.07771 178.819 3.93901C179.678 2.2469 180.736 0.943144 181.594 0.943144C182.452 0.943144 182.023 2.21916 181.194 4.46607L178.104 12.7879C176.531 17.0876 177.132 19.9725 179.706 19.9725C181.451 19.9725 182.996 18.4745 184.14 16.2276C184.226 16.1167 184.168 15.978 184.054 15.9225C183.911 15.8393 183.796 15.8948 183.739 16.0057ZM200.571 16.0057C199.741 17.5036 198.654 18.7519 198.082 18.7519C197.482 18.7519 197.539 17.2817 198.425 15.0071C198.515 14.7636 198.604 14.522 198.692 14.2805L198.692 14.2804C199.279 12.6791 199.863 11.0847 200.857 8.98761C200.975 8.74113 201.086 8.50233 201.193 8.27398C201.758 7.0632 202.187 6.1463 202.716 5.93626C202.945 5.8253 202.888 5.49243 202.602 5.54791C201.7 5.74965 200.953 6.14051 200.286 6.48967C199.577 6.86064 198.959 7.18454 198.34 7.18454C197.756 7.18454 197.39 6.88419 196.968 6.53866C196.398 6.07082 195.726 5.52017 194.278 5.52017C190.76 5.52017 187.442 8.46056 185.954 12.8711C184.524 17.1153 185.783 19.9447 188.815 19.9447C191.16 19.9447 192.905 18.2249 195.165 13.7033C193.363 17.4482 194.278 19.9725 196.538 19.9725C198.282 19.9725 199.827 18.4745 200.971 16.2276C201.057 16.1167 201 15.978 200.885 15.9225C200.742 15.8393 200.628 15.8948 200.571 16.0057ZM195.308 6.26914C196.709 6.26914 196.852 8.12768 195.794 10.9571C194.135 15.3122 191.589 19.0293 190.102 19.0293C188.9 19.0293 188.929 16.6715 190.13 13.204C191.532 9.01535 193.591 6.26914 195.308 6.26914ZM212.412 0.110958C212.783 -0.0554784 212.783 0.332875 212.555 0.471573C211.897 0.887665 211.668 1.38698 210.981 3.13457L208.893 8.59926C210.18 6.68523 211.839 5.52017 213.928 5.52017C217.217 5.52017 218.876 8.76569 217.532 12.6215C216.016 17.0321 211.754 19.9725 206.862 19.9725C203.373 19.9725 201.085 18.1139 202.114 15.3677L206.033 4.88216C206.805 2.88491 206.634 2.08047 205.489 2.08047C205.203 2.08047 205.375 1.66437 205.661 1.66437C207.749 1.66437 210.266 1.0541 212.412 0.110958ZM213.155 5.964C211.182 5.964 208.951 8.57152 207.291 12.7602L206.29 15.34C205.375 17.6978 205.747 19.2512 207.234 19.279C209.437 19.279 212.097 16.2276 213.642 11.7616C214.814 8.23864 214.614 5.964 213.155 5.964ZM62.7765 26H58.1914V2.43955H62.7765V4.76241H62.8792C63.324 3.80009 65.3771 2.10771 68.5593 2.10771C72.6996 2.10771 77.1137 5.09425 77.1137 11.0673C77.1137 17.0404 72.6996 20.0269 68.5593 20.0269C65.3771 20.0269 63.324 18.3346 62.8792 17.3722H62.7765V26ZM67.6354 6.08976C65.0691 6.08976 62.6739 7.81532 62.6739 11.0673C62.6739 14.3193 65.0691 16.0449 67.6354 16.0449C70.2017 16.0449 72.597 14.2861 72.597 11.0673C72.597 7.8485 70.2017 6.08976 67.6354 6.08976ZM92.4391 17.3722C91.9943 18.3346 89.9412 20.0269 86.759 20.0269C82.6187 20.0269 78.2046 17.0404 78.2046 11.0673C78.2046 5.09425 82.6187 2.10771 86.759 2.10771C89.9412 2.10771 91.9943 3.80009 92.4391 4.76241H92.5417V2.43955H97.1269V19.6951H92.5417V17.3722H92.4391ZM87.6828 6.08976C85.1165 6.08976 82.7213 7.8485 82.7213 11.0673C82.7213 14.2861 85.1165 16.0449 87.6828 16.0449C90.2492 16.0449 92.6444 14.3193 92.6444 11.0673C92.6444 7.81532 90.2492 6.08976 87.6828 6.08976ZM99.9287 26H104.514V17.3722H104.616C105.061 18.3346 107.114 20.0269 110.297 20.0269C114.437 20.0269 118.851 17.0404 118.851 11.0673C118.851 5.09425 114.437 2.10771 110.297 2.10771C107.114 2.10771 105.061 3.80009 104.616 4.76241H104.514V2.43955H99.9287V26ZM104.411 11.0673C104.411 7.81532 106.806 6.08976 109.373 6.08976C111.939 6.08976 114.334 7.8485 114.334 11.0673C114.334 14.2861 111.939 16.0449 109.373 16.0449C106.806 16.0449 104.411 14.3193 104.411 11.0673ZM127.028 26H122.545L125.454 19.5292L118.063 2.43955H122.75L127.678 14.4189L132.571 2.43955H137.293L129.799 19.6951L127.028 26ZM146.377 20.0269C150.996 20.0269 155.752 16.9077 155.752 11.0673C155.752 5.22699 150.996 2.10771 146.377 2.10771C141.723 2.10771 137.001 5.22699 137.001 11.0673C137.001 16.9077 141.723 20.0269 146.377 20.0269ZM141.518 11.0673C141.518 7.98124 143.81 6.12295 146.377 6.12295C148.943 6.12295 151.201 7.98124 151.201 11.0673C151.201 14.1534 148.943 16.0117 146.377 16.0117C143.81 16.0117 141.518 14.1534 141.518 11.0673ZM162.275 19.6951H157.689V2.43955H162.275V4.7956C163.267 3.26915 165.046 2.10771 167.715 2.10771C171.376 2.10771 174.456 4.29784 174.456 9.54087V19.6951H169.871V10.2709C169.871 7.74895 168.468 6.08976 166.073 6.08976C163.712 6.08976 162.275 7.74895 162.275 10.2709V19.6951Z" fill="white"/>
</svg>
