
<svg width="250" height="110" viewBox="0 0 250 110" fill="none" xmlns="http://www.w3.org/2000/svg">
<ellipse cx="2.19298" cy="72.4562" rx="2.19298" ry="2.19298" fill="white" fill-opacity="0.3"/>
<ellipse cx="2.19298" cy="107.544" rx="2.19298" ry="2.19299" fill="#00D1FF"/>
<ellipse cx="37.2809" cy="72.4562" rx="2.19298" ry="2.19298" fill="#00D1FF"/>
<ellipse cx="37.2809" cy="107.544" rx="2.19298" ry="2.19299" fill="white" fill-opacity="0.3"/>
<ellipse cx="72.3688" cy="72.4562" rx="2.19299" ry="2.19298" fill="white" fill-opacity="0.3"/>
<circle cx="72.3688" cy="107.544" r="2.19299" fill="white" fill-opacity="0.3"/>
<ellipse cx="107.457" cy="2.28063" rx="2.19298" ry="2.19298" fill="white" fill-opacity="0.3"/>
<ellipse cx="107.457" cy="37.3685" rx="2.19298" ry="2.19299" fill="white" fill-opacity="0.3"/>
<circle cx="107.457" cy="72.4562" r="2.19298" fill="white" fill-opacity="0.3"/>
<ellipse cx="107.457" cy="107.544" rx="2.19298" ry="2.19299" fill="white" fill-opacity="0.3"/>
<ellipse cx="142.545" cy="2.28063" rx="2.19299" ry="2.19298" fill="white" fill-opacity="0.3"/>
<circle cx="142.545" cy="37.3685" r="2.19299" fill="white" fill-opacity="0.3"/>
<ellipse cx="142.545" cy="72.4562" rx="2.19299" ry="2.19298" fill="white" fill-opacity="0.3"/>
<circle cx="142.545" cy="107.544" r="2.19299" fill="white" fill-opacity="0.3"/>
<ellipse cx="177.63" cy="2.28063" rx="2.19298" ry="2.19298" fill="#00D1FF"/>
<ellipse cx="177.63" cy="37.3685" rx="2.19298" ry="2.19299" fill="white" fill-opacity="0.3"/>
<ellipse cx="177.63" cy="72.4562" rx="2.19298" ry="2.19298" fill="white" fill-opacity="0.3"/>
<ellipse cx="177.63" cy="107.544" rx="2.19298" ry="2.19299" fill="white" fill-opacity="0.3"/>
<ellipse cx="212.72" cy="2.28063" rx="2.19298" ry="2.19298" fill="white" fill-opacity="0.3"/>
<ellipse cx="212.72" cy="37.3685" rx="2.19298" ry="2.19299" fill="white" fill-opacity="0.3"/>
<ellipse cx="212.72" cy="72.4562" rx="2.19298" ry="2.19298" fill="white" fill-opacity="0.3"/>
<ellipse cx="212.72" cy="107.544" rx="2.19298" ry="2.19299" fill="white" fill-opacity="0.3"/>
<ellipse cx="247.806" cy="2.28063" rx="2.193" ry="2.19298" fill="white" fill-opacity="0.3"/>
<ellipse cx="247.806" cy="37.3685" rx="2.193" ry="2.19299" fill="white" fill-opacity="0.3"/>
<ellipse cx="247.806" cy="72.4562" rx="2.193" ry="2.19298" fill="white" fill-opacity="0.3"/>
<ellipse cx="247.806" cy="107.544" rx="2.193" ry="2.19299" fill="#00D1FF"/>
</svg>
