
<svg width="1270" height="263" viewBox="0 0 1270 263" fill="none" xmlns="http://www.w3.org/2000/svg">
<g opacity="0.1">
<mask id="path-1-outside-1_837_1108" maskUnits="userSpaceOnUse" x="-1" y="-1" width="1272" height="265" fill="black">
<rect fill="white" x="-1" y="-1" width="1272" height="265"/>
<path d="M100.591 222.8C39.0914 222.8 0.391407 179.9 0.391407 111.8C0.391407 43.1 39.0914 0.199997 100.591 0.199997C162.391 0.199997 200.791 43.1 200.791 111.8C200.791 179.9 162.391 222.8 100.591 222.8ZM39.3914 111.8C39.3914 161.6 61.2914 189.5 100.591 189.5C140.191 189.5 161.791 161.6 161.791 111.8C161.791 61.7 140.191 33.5 100.591 33.5C61.2914 33.5 39.3914 61.7 39.3914 111.8ZM365.442 218H330.942L330.342 193.1C321.642 213.5 303.942 221.6 283.542 221.6C249.042 221.6 229.842 196.7 229.842 161.3V59H267.042V149.3C267.042 176.3 274.242 191 294.642 191C315.342 191 328.242 176.3 328.242 149.3V59H365.442V218ZM401.555 59H436.355L437.255 89.6C442.655 68.9 454.655 59 475.055 59H490.055V88.1H475.055C449.555 88.1 438.755 101 438.755 126.8V218H401.555V59ZM563.365 218L640.165 4.99999H685.165L761.965 218H722.965L705.265 166.4H620.065L602.365 218H563.365ZM631.465 133.7H693.865L662.665 42.5L631.465 133.7ZM782.367 263V59H817.467L818.367 82.4C827.067 65 843.567 55.4 866.367 55.4C912.267 55.4 934.467 93.2 934.467 138.5C934.467 183.8 912.267 221.6 866.367 221.6C845.067 221.6 828.867 212.6 819.567 195.8V263H782.367ZM816.567 138.5C816.567 165.8 828.867 191 856.167 191C884.067 191 895.767 166.1 895.767 138.5C895.767 110.9 883.767 85.7 856.167 85.7C828.567 85.7 816.567 111.2 816.567 138.5ZM958.523 263V59H993.623L994.523 82.4C1003.22 65 1019.72 55.4 1042.52 55.4C1088.42 55.4 1110.62 93.2 1110.62 138.5C1110.62 183.8 1088.42 221.6 1042.52 221.6C1021.22 221.6 1005.02 212.6 995.723 195.8V263H958.523ZM992.723 138.5C992.723 165.8 1005.02 191 1032.32 191C1060.22 191 1071.92 166.1 1071.92 138.5C1071.92 110.9 1059.92 85.7 1032.32 85.7C1004.72 85.7 992.723 111.2 992.723 138.5ZM1229.42 109.7C1226.42 93.5 1211.42 83.9 1196.42 83.9C1181.12 83.9 1169.12 91.7 1169.42 104.6C1169.72 118.1 1186.52 123.5 1202.12 126.5C1244.42 133.7 1269.02 144.8 1269.02 175.7C1269.02 207.2 1238.12 221.6 1201.82 221.6C1158.92 221.6 1129.82 201.2 1127.12 167.6L1165.22 165.5C1168.22 182.3 1180.82 192.8 1201.22 192.8C1214.42 192.8 1230.62 188 1230.62 174.5C1230.32 158.9 1212.32 156.5 1195.82 152.9C1158.32 145.4 1131.02 135.5 1131.02 105.5C1131.02 74.3 1156.82 55.1 1198.52 55.1C1235.12 55.1 1261.82 75.5 1266.92 107.9L1229.42 109.7Z"/>
</mask>
<path d="M100.591 221.8C70.0861 221.8 45.3199 211.168 28.1713 192.168C11.0123 173.156 1.39141 145.665 1.39141 111.8H-0.608593C-0.608593 146.035 9.12053 174.044 26.6866 193.508C44.2629 212.982 69.5967 223.8 100.591 223.8V221.8ZM1.39141 111.8C1.39141 77.6328 11.0134 49.9923 28.1726 30.9061C45.3209 11.8318 70.0863 1.2 100.591 1.2V-0.800003C69.5966 -0.800003 44.2619 10.0182 26.6853 29.5689C9.11937 49.1077 -0.608593 77.2672 -0.608593 111.8H1.39141ZM100.591 1.2C131.248 1.2 156.012 11.8324 173.122 30.9053C190.243 49.9907 199.791 77.6308 199.791 111.8H201.791C201.791 77.2692 192.14 49.1093 174.611 29.5697C157.071 10.0175 131.735 -0.800003 100.591 -0.800003V1.2ZM199.791 111.8C199.791 145.667 190.244 173.157 173.123 192.168C156.013 211.167 131.248 221.8 100.591 221.8V223.8C131.735 223.8 157.07 212.983 174.609 193.507C192.138 174.043 201.791 146.033 201.791 111.8H199.791ZM38.3914 111.8C38.3914 136.828 43.892 156.504 54.4681 169.943C65.0727 183.419 80.6823 190.5 100.591 190.5V188.5C81.2005 188.5 66.2101 181.631 56.0398 168.707C45.8408 155.746 40.3914 136.572 40.3914 111.8H38.3914ZM100.591 190.5C120.649 190.5 136.26 183.421 146.828 169.942C157.367 156.501 162.791 136.825 162.791 111.8H160.791C160.791 136.575 155.416 155.749 145.254 168.708C135.123 181.629 120.134 188.5 100.591 188.5V190.5ZM162.791 111.8C162.791 86.6263 157.368 66.8013 146.831 53.2487C136.264 39.6573 120.652 32.5 100.591 32.5V34.5C120.13 34.5 135.119 41.4427 145.252 54.4763C155.415 67.5487 160.791 86.8737 160.791 111.8H162.791ZM100.591 32.5C80.6785 32.5 65.0686 39.6585 54.4655 53.2473C43.8915 66.7988 38.3914 86.6234 38.3914 111.8H40.3914C40.3914 86.8765 45.8413 67.5511 56.0423 54.4777C66.2142 41.4415 81.2043 34.5 100.591 34.5V32.5ZM365.442 218V219H366.442V218H365.442ZM330.942 218L329.942 218.024L329.966 219H330.942V218ZM330.342 193.1L331.342 193.076L329.422 192.708L330.342 193.1ZM229.842 59V58H228.842V59H229.842ZM267.042 59H268.042V58H267.042V59ZM328.242 59V58H327.242V59H328.242ZM365.442 59H366.442V58H365.442V59ZM365.442 217H330.942V219H365.442V217ZM331.942 217.976L331.342 193.076L329.342 193.124L329.942 218.024L331.942 217.976ZM329.422 192.708C320.92 212.645 303.655 220.6 283.542 220.6V222.6C304.229 222.6 322.365 214.355 331.262 193.492L329.422 192.708ZM283.542 220.6C266.551 220.6 253.417 214.479 244.515 204.075C235.595 193.651 230.842 178.828 230.842 161.3H228.842C228.842 179.172 233.689 194.499 242.995 205.375C252.318 216.271 266.033 222.6 283.542 222.6V220.6ZM230.842 161.3V59H228.842V161.3H230.842ZM229.842 60H267.042V58H229.842V60ZM266.042 59V149.3H268.042V59H266.042ZM266.042 149.3C266.042 162.847 267.84 173.506 272.341 180.8C276.903 188.194 284.157 192 294.642 192V190C284.727 190 278.181 186.456 274.043 179.75C269.844 172.944 268.042 162.753 268.042 149.3H266.042ZM294.642 192C305.247 192 313.948 188.223 319.976 180.911C325.984 173.625 329.242 162.945 329.242 149.3H327.242C327.242 162.655 324.051 172.825 318.433 179.639C312.837 186.427 304.737 190 294.642 190V192ZM329.242 149.3V59H327.242V149.3H329.242ZM328.242 60H365.442V58H328.242V60ZM364.442 59V218H366.442V59H364.442ZM401.555 59V58H400.555V59H401.555ZM436.355 59L437.354 58.9706L437.326 58H436.355V59ZM437.255 89.6L436.255 89.6294L438.222 89.8524L437.255 89.6ZM490.055 59H491.055V58H490.055V59ZM490.055 88.1V89.1H491.055V88.1H490.055ZM438.755 218V219H439.755V218H438.755ZM401.555 218H400.555V219H401.555V218ZM401.555 60H436.355V58H401.555V60ZM435.355 59.0294L436.255 89.6294L438.254 89.5706L437.354 58.9706L435.355 59.0294ZM438.222 89.8524C440.888 79.6342 445.151 72.2003 451.161 67.3133C457.162 62.4324 465.019 60 475.055 60V58C464.69 58 456.347 60.5176 449.899 65.7617C443.458 70.9997 439.021 78.8657 436.287 89.3476L438.222 89.8524ZM475.055 60H490.055V58H475.055V60ZM489.055 59V88.1H491.055V59H489.055ZM490.055 87.1H475.055V89.1H490.055V87.1ZM475.055 87.1C462.148 87.1 452.751 90.3666 446.604 97.1008C440.474 103.816 437.755 113.787 437.755 126.8H439.755C439.755 114.013 442.435 104.634 448.081 98.4492C453.709 92.2834 462.462 89.1 475.055 89.1V87.1ZM437.755 126.8V218H439.755V126.8H437.755ZM438.755 217H401.555V219H438.755V217ZM402.555 218V59H400.555V218H402.555ZM563.365 218L562.424 217.661L561.941 219H563.365V218ZM640.165 4.99998V3.99998H639.462L639.224 4.6608L640.165 4.99998ZM685.165 4.99998L686.106 4.6608L685.867 3.99998H685.165V4.99998ZM761.965 218V219H763.388L762.906 217.661L761.965 218ZM722.965 218L722.019 218.324L722.251 219H722.965V218ZM705.265 166.4L706.211 166.076L705.979 165.4H705.265V166.4ZM620.065 166.4V165.4H619.351L619.119 166.076L620.065 166.4ZM602.365 218V219H603.079L603.311 218.324L602.365 218ZM631.465 133.7L630.519 133.376L630.066 134.7H631.465V133.7ZM693.865 133.7V134.7H695.264L694.811 133.376L693.865 133.7ZM662.665 42.5L663.611 42.1763L662.665 39.4106L661.719 42.1763L662.665 42.5ZM564.306 218.339L641.106 5.33918L639.224 4.6608L562.424 217.661L564.306 218.339ZM640.165 5.99998H685.165V3.99998H640.165V5.99998ZM684.224 5.33918L761.024 218.339L762.906 217.661L686.106 4.6608L684.224 5.33918ZM761.965 217H722.965V219H761.965V217ZM723.911 217.676L706.211 166.076L704.319 166.724L722.019 218.324L723.911 217.676ZM705.265 165.4H620.065V167.4H705.265V165.4ZM619.119 166.076L601.419 217.676L603.311 218.324L621.011 166.724L619.119 166.076ZM602.365 217H563.365V219H602.365V217ZM631.465 134.7H693.865V132.7H631.465V134.7ZM694.811 133.376L663.611 42.1763L661.719 42.8237L692.919 134.024L694.811 133.376ZM661.719 42.1763L630.519 133.376L632.411 134.024L663.611 42.8237L661.719 42.1763ZM782.367 263H781.367V264H782.367V263ZM782.367 59V58H781.367V59H782.367ZM817.467 59L818.466 58.9616L818.429 58H817.467V59ZM818.367 82.4L817.368 82.4384L819.262 82.8472L818.367 82.4ZM819.567 195.8L820.442 195.316L818.567 191.929V195.8H819.567ZM819.567 263V264H820.567V263H819.567ZM783.367 263V59H781.367V263H783.367ZM782.367 60H817.467V58H782.367V60ZM816.468 59.0384L817.368 82.4384L819.366 82.3616L818.466 58.9616L816.468 59.0384ZM819.262 82.8472C827.767 65.8369 843.885 56.4 866.367 56.4V54.4C843.249 54.4 826.368 64.1631 817.473 81.9528L819.262 82.8472ZM866.367 56.4C889.005 56.4 905.732 65.7042 916.828 80.5609C927.951 95.4528 933.467 115.997 933.467 138.5H935.467C935.467 115.703 929.883 94.6972 918.431 79.3641C906.952 63.9958 889.629 54.4 866.367 54.4V56.4ZM933.467 138.5C933.467 161.003 927.951 181.547 916.828 196.439C905.732 211.296 889.005 220.6 866.367 220.6V222.6C889.629 222.6 906.952 213.004 918.431 197.636C929.883 182.303 935.467 161.297 935.467 138.5H933.467ZM866.367 220.6C845.387 220.6 829.545 211.761 820.442 195.316L818.692 196.284C828.189 213.439 844.748 222.6 866.367 222.6V220.6ZM818.567 195.8V263H820.567V195.8H818.567ZM819.567 262H782.367V264H819.567V262ZM815.567 138.5C815.567 152.28 818.669 165.618 825.298 175.543C831.955 185.509 842.156 192 856.167 192V190C842.879 190 833.279 183.891 826.961 174.432C820.616 164.932 817.567 152.02 817.567 138.5H815.567ZM856.167 192C870.469 192 880.675 185.593 887.263 175.652C893.82 165.76 896.767 152.42 896.767 138.5H894.767C894.767 152.18 891.864 165.09 885.596 174.548C879.36 183.957 869.766 190 856.167 190V192ZM896.767 138.5C896.767 124.576 893.743 111.163 887.151 101.198C880.529 91.1886 870.326 84.7 856.167 84.7V86.7C869.608 86.7 879.205 92.8114 885.483 102.302C891.791 111.837 894.767 124.824 894.767 138.5H896.767ZM856.167 84.7C842.003 84.7 831.802 91.2678 825.182 101.312C818.592 111.313 815.567 124.724 815.567 138.5H817.567C817.567 124.976 820.543 111.987 826.852 102.413C833.133 92.8822 842.731 86.7 856.167 86.7V84.7ZM958.523 263H957.523V264H958.523V263ZM958.523 59V58H957.523V59H958.523ZM993.623 59L994.623 58.9616L994.586 58H993.623V59ZM994.523 82.4L993.524 82.4384L995.418 82.8472L994.523 82.4ZM995.723 195.8L996.598 195.316L994.723 191.929V195.8H995.723ZM995.723 263V264H996.723V263H995.723ZM959.523 263V59H957.523V263H959.523ZM958.523 60H993.623V58H958.523V60ZM992.624 59.0384L993.524 82.4384L995.523 82.3616L994.623 58.9616L992.624 59.0384ZM995.418 82.8472C1003.92 65.8369 1020.04 56.4 1042.52 56.4V54.4C1019.41 54.4 1002.52 64.1631 993.629 81.9528L995.418 82.8472ZM1042.52 56.4C1065.16 56.4 1081.89 65.7042 1092.98 80.5609C1104.11 95.4528 1109.62 115.997 1109.62 138.5H1111.62C1111.62 115.703 1106.04 94.6972 1094.59 79.3641C1083.11 63.9958 1065.79 54.4 1042.52 54.4V56.4ZM1109.62 138.5C1109.62 161.003 1104.11 181.547 1092.98 196.439C1081.89 211.296 1065.16 220.6 1042.52 220.6V222.6C1065.79 222.6 1083.11 213.004 1094.59 197.636C1106.04 182.303 1111.62 161.297 1111.62 138.5H1109.62ZM1042.52 220.6C1021.54 220.6 1005.7 211.761 996.598 195.316L994.849 196.284C1004.35 213.439 1020.9 222.6 1042.52 222.6V220.6ZM994.723 195.8V263H996.723V195.8H994.723ZM995.723 262H958.523V264H995.723V262ZM991.723 138.5C991.723 152.28 994.825 165.618 1001.45 175.543C1008.11 185.509 1018.31 192 1032.32 192V190C1019.04 190 1009.44 183.891 1003.12 174.432C996.772 164.932 993.723 152.02 993.723 138.5H991.723ZM1032.32 192C1046.62 192 1056.83 185.593 1063.42 175.652C1069.98 165.76 1072.92 152.42 1072.92 138.5H1070.92C1070.92 152.18 1068.02 165.09 1061.75 174.548C1055.52 183.957 1045.92 190 1032.32 190V192ZM1072.92 138.5C1072.92 124.576 1069.9 111.163 1063.31 101.198C1056.69 91.1886 1046.48 84.7 1032.32 84.7V86.7C1045.76 86.7 1055.36 92.8114 1061.64 102.302C1067.95 111.837 1070.92 124.824 1070.92 138.5H1072.92ZM1032.32 84.7C1018.16 84.7 1007.96 91.2678 1001.34 101.312C994.748 111.313 991.723 124.724 991.723 138.5H993.723C993.723 124.976 996.699 111.987 1003.01 102.413C1009.29 92.8822 1018.89 86.7 1032.32 86.7V84.7ZM1229.42 109.7L1228.44 109.882L1228.6 110.741L1229.47 110.699L1229.42 109.7ZM1169.42 104.6L1170.42 104.578V104.577L1169.42 104.6ZM1202.12 126.5L1201.93 127.482L1201.95 127.484L1201.96 127.486L1202.12 126.5ZM1127.12 167.6L1127.07 166.602L1126.04 166.658L1126.13 167.68L1127.12 167.6ZM1165.22 165.5L1166.21 165.324L1166.05 164.453L1165.17 164.502L1165.22 165.5ZM1230.62 174.5H1231.62V174.49L1231.62 174.481L1230.62 174.5ZM1195.82 152.9L1196.04 151.923L1196.03 151.921L1196.02 151.919L1195.82 152.9ZM1266.92 107.9L1266.97 108.899L1268.08 108.845L1267.91 107.745L1266.92 107.9ZM1230.41 109.518C1227.3 92.7479 1211.8 82.9 1196.42 82.9V84.9C1211.05 84.9 1225.55 94.2521 1228.44 109.882L1230.41 109.518ZM1196.42 82.9C1188.62 82.9 1181.57 84.888 1176.48 88.6051C1171.37 92.3419 1168.27 97.8154 1168.42 104.623L1170.42 104.577C1170.28 98.4846 1173.03 93.608 1177.66 90.2199C1182.33 86.812 1188.93 84.9 1196.42 84.9V82.9ZM1168.42 104.622C1168.58 111.875 1173.21 116.863 1179.55 120.363C1185.89 123.855 1194.12 125.978 1201.93 127.482L1202.31 125.518C1194.53 124.022 1186.56 121.945 1180.52 118.612C1174.49 115.287 1170.56 110.825 1170.42 104.578L1168.42 104.622ZM1201.96 127.486C1223.09 131.084 1239.64 135.634 1250.89 143.047C1256.49 146.742 1260.76 151.136 1263.64 156.464C1266.51 161.792 1268.02 168.111 1268.02 175.7H1270.02C1270.02 167.839 1268.46 161.183 1265.4 155.514C1262.34 149.846 1257.82 145.22 1251.99 141.378C1240.36 133.716 1223.45 129.116 1202.29 125.514L1201.96 127.486ZM1268.02 175.7C1268.02 191.058 1260.52 202.23 1248.51 209.611C1236.46 217.019 1219.86 220.6 1201.82 220.6V222.6C1220.08 222.6 1237.09 218.981 1249.56 211.314C1262.08 203.62 1270.02 191.842 1270.02 175.7H1268.02ZM1201.82 220.6C1180.52 220.6 1162.74 215.534 1149.98 206.387C1137.24 197.256 1129.45 184.022 1128.12 167.52L1126.13 167.68C1127.5 184.778 1135.61 198.544 1148.82 208.013C1162 217.466 1180.23 222.6 1201.82 222.6V220.6ZM1127.18 168.598L1165.28 166.498L1165.17 164.502L1127.07 166.602L1127.18 168.598ZM1164.24 165.676C1165.78 174.287 1169.79 181.344 1176.08 186.239C1182.37 191.13 1190.85 193.8 1201.22 193.8V191.8C1191.19 191.8 1183.17 189.22 1177.31 184.661C1171.46 180.106 1167.67 173.513 1166.21 165.324L1164.24 165.676ZM1201.22 193.8C1207.92 193.8 1215.44 192.586 1221.33 189.605C1227.24 186.609 1231.62 181.747 1231.62 174.5H1229.62C1229.62 180.753 1225.91 185.041 1220.42 187.82C1214.91 190.614 1207.73 191.8 1201.22 191.8V193.8ZM1231.62 174.481C1231.54 170.372 1230.29 167.08 1228.16 164.424C1226.04 161.785 1223.1 159.828 1219.71 158.29C1212.99 155.232 1204.21 153.705 1196.04 151.923L1195.61 153.877C1203.94 155.695 1212.41 157.168 1218.88 160.11C1222.1 161.572 1224.74 163.365 1226.6 165.676C1228.44 167.97 1229.55 170.828 1229.62 174.519L1231.62 174.481ZM1196.02 151.919C1177.27 148.169 1161.23 143.846 1149.89 136.788C1144.23 133.27 1139.78 129.092 1136.73 123.995C1133.69 118.903 1132.02 112.841 1132.02 105.5H1130.02C1130.02 113.159 1131.77 119.584 1135.02 125.021C1138.26 130.452 1142.97 134.842 1148.83 138.487C1160.51 145.754 1176.88 150.131 1195.63 153.881L1196.02 151.919ZM1132.02 105.5C1132.02 90.2092 1138.33 77.909 1149.73 69.4015C1161.17 60.8699 1177.81 56.1 1198.52 56.1V54.1C1177.54 54.1 1160.43 58.9301 1148.54 67.7984C1136.62 76.691 1130.02 89.5908 1130.02 105.5H1132.02ZM1198.52 56.1C1234.72 56.1 1260.93 76.228 1265.94 108.055L1267.91 107.745C1262.72 74.772 1235.52 54.1 1198.52 54.1V56.1ZM1266.88 106.901L1229.38 108.701L1229.47 110.699L1266.97 108.899L1266.88 106.901Z" fill="url(#paint0_radial_837_1108)" mask="url(#path-1-outside-1_837_1108)"/>
</g>
<defs>
<radialGradient id="paint0_radial_837_1108" cx="0" cy="0" r="1" gradientUnits="userSpaceOnUse" gradientTransform="translate(634.5 113) rotate(90) scale(186 647.5)">
<stop stop-color="white"/>
<stop offset="1" stop-color="white" stop-opacity="0"/>
</radialGradient>
</defs>
</svg>
