
<svg width="1440" height="217" viewBox="0 0 1440 217" fill="none" xmlns="http://www.w3.org/2000/svg">
<g opacity="0.1">
<mask id="path-1-outside-1_1038_942" maskUnits="userSpaceOnUse" x="-98" y="-1" width="1649" height="219" fill="black">
<rect fill="white" x="-98" y="-1" width="1649" height="219"/>
<path d="M-96.2359 -1.14441e-05H-45.5359L14.1641 167.1L73.5641 -1.14441e-05H124.564V213H86.7641V65.7L33.0641 212.7H-4.73593L-58.4359 65.7V213H-96.2359V-1.14441e-05ZM147.908 133.5C147.908 83.1 178.808 50.4 225.908 50.4C266.108 50.4 298.808 77.4 300.008 133.8V143.7H186.908C188.708 170.7 202.808 186.6 225.908 186.6C240.608 186.6 253.808 178.2 259.808 164.4L297.908 167.1C288.308 197.7 259.808 216.6 225.908 216.6C178.808 216.6 147.908 183.9 147.908 133.5ZM187.208 118.2H261.608C258.308 90.3 243.008 80.1 225.908 80.1C204.308 80.1 190.508 94.5 187.208 118.2ZM317.033 133.5C317.033 83.1 347.933 50.4 395.033 50.4C435.233 50.4 467.933 77.4 469.133 133.8V143.7H356.033C357.833 170.7 371.933 186.6 395.033 186.6C409.733 186.6 422.933 178.2 428.933 164.4L467.033 167.1C457.433 197.7 428.933 216.6 395.033 216.6C347.933 216.6 317.033 183.9 317.033 133.5ZM356.333 118.2H430.733C427.433 90.3 412.133 80.1 395.033 80.1C373.433 80.1 359.633 94.5 356.333 118.2ZM504.662 18H541.862V54H583.862V83.1H541.862V164.7C541.862 177.3 547.862 183.6 559.862 183.6H583.862V213H554.162C521.762 213 504.662 196.5 504.662 164.7V83.1H479.762V54H504.662V18ZM822.345 -1.14441e-05V33.3H757.845V213H720.045V33.3H655.245V-1.14441e-05H822.345ZM812.478 133.5C812.478 83.1 843.378 50.4 890.478 50.4C930.678 50.4 963.378 77.4 964.578 133.8V143.7H851.478C853.278 170.7 867.378 186.6 890.478 186.6C905.178 186.6 918.378 178.2 924.378 164.4L962.478 167.1C952.878 197.7 924.378 216.6 890.478 216.6C843.378 216.6 812.478 183.9 812.478 133.5ZM851.778 118.2H926.178C922.878 90.3 907.578 80.1 890.478 80.1C868.878 80.1 855.078 94.5 851.778 118.2ZM985.761 102.3C992.061 69.6 1017.56 50.4 1055.96 50.4C1101.56 50.4 1125.56 74.1 1125.56 118.5V174C1125.56 183 1129.16 185.4 1135.46 185.4H1141.46V213L1132.16 213.3C1119.26 213.3 1095.26 213 1092.86 188.7C1085.36 204.3 1067.66 216.6 1040.36 216.6C1008.56 216.6 983.061 199.5 983.061 171.3C983.061 140.1 1006.16 130.2 1043.36 123L1088.06 114C1087.76 89.7 1077.56 78 1055.96 78C1038.86 78 1027.76 87 1023.86 104.4L985.761 102.3ZM1021.46 170.1C1021.46 181.2 1030.76 189.9 1049.96 189.9C1072.16 189.9 1088.66 174 1088.66 141.6V140.1L1058.06 145.5C1037.36 149.4 1021.46 151.5 1021.46 170.1ZM1162.38 54H1195.98L1196.88 79.5C1204.68 60.9 1220.88 50.4 1241.88 50.4C1264.38 50.4 1280.58 62.4 1287.48 83.1C1295.28 61.5 1311.78 50.4 1334.88 50.4C1366.98 50.4 1386.78 71.7 1386.78 110.7V213H1349.58V122.4C1349.58 95.1 1340.88 80.7 1323.78 80.7C1303.08 80.7 1291.68 95.4 1291.68 122.4V213H1257.48V122.4C1257.48 95.4 1248.48 80.7 1231.68 80.7C1210.98 80.7 1199.58 96 1199.58 122.4V213H1162.38V54ZM1509.45 104.7C1506.45 88.5 1491.45 78.9 1476.45 78.9C1461.15 78.9 1449.15 86.7 1449.45 99.6C1449.75 113.1 1466.55 118.5 1482.15 121.5C1524.45 128.7 1549.05 139.8 1549.05 170.7C1549.05 202.2 1518.15 216.6 1481.85 216.6C1438.95 216.6 1409.85 196.2 1407.15 162.6L1445.25 160.5C1448.25 177.3 1460.85 187.8 1481.25 187.8C1494.45 187.8 1510.65 183 1510.65 169.5C1510.35 153.9 1492.35 151.5 1475.85 147.9C1438.35 140.4 1411.05 130.5 1411.05 100.5C1411.05 69.3 1436.85 50.1 1478.55 50.1C1515.15 50.1 1541.85 70.5 1546.95 102.9L1509.45 104.7Z"/>
</mask>
<path d="M-96.2359 -1.52588e-05V-1.00002H-97.2359V-1.52588e-05H-96.2359ZM-45.5359 -1.52588e-05L-44.5942 -0.336456L-44.8313 -1.00002H-45.5359V-1.52588e-05ZM14.1641 167.1L13.2224 167.436L14.1664 170.079L15.1063 167.435L14.1641 167.1ZM73.5641 -1.52588e-05V-1.00002H72.8582L72.6218 -0.334953L73.5641 -1.52588e-05ZM124.564 -1.52588e-05H125.564V-1.00002H124.564V-1.52588e-05ZM124.564 213V214H125.564V213H124.564ZM86.7641 213H85.7641V214H86.7641V213ZM86.7641 65.7H87.7641L85.8248 65.3569L86.7641 65.7ZM33.0641 212.7V213.7H33.7634L34.0034 213.043L33.0641 212.7ZM-4.73593 212.7L-5.67522 213.043L-5.43526 213.7H-4.73593V212.7ZM-58.4359 65.7L-57.4966 65.3569L-59.4359 65.7H-58.4359ZM-58.4359 213V214H-57.4359V213H-58.4359ZM-96.2359 213H-97.2359V214H-96.2359V213ZM-96.2359 0.999985H-45.5359V-1.00002H-96.2359V0.999985ZM-46.4776 0.336433L13.2224 167.436L15.1058 166.764L-44.5942 -0.336456L-46.4776 0.336433ZM15.1063 167.435L74.5063 0.33493L72.6218 -0.334953L13.2218 166.765L15.1063 167.435ZM73.5641 0.999985H124.564V-1.00002H73.5641V0.999985ZM123.564 -1.52588e-05V213H125.564V-1.52588e-05H123.564ZM124.564 212H86.7641V214H124.564V212ZM87.7641 213V65.7H85.7641V213H87.7641ZM85.8248 65.3569L32.1248 212.357L34.0034 213.043L87.7034 66.0431L85.8248 65.3569ZM33.0641 211.7H-4.73593V213.7H33.0641V211.7ZM-3.79664 212.357L-57.4966 65.3569L-59.3752 66.0431L-5.67522 213.043L-3.79664 212.357ZM-59.4359 65.7V213H-57.4359V65.7H-59.4359ZM-58.4359 212H-96.2359V214H-58.4359V212ZM-95.2359 213V-1.52588e-05H-97.2359V213H-95.2359ZM300.008 133.8H301.008V133.789L301.008 133.779L300.008 133.8ZM300.008 143.7V144.7H301.008V143.7H300.008ZM186.908 143.7V142.7H185.839L185.91 143.767L186.908 143.7ZM259.808 164.4L259.879 163.402L259.173 163.352L258.891 164.001L259.808 164.4ZM297.908 167.1L298.862 167.399L299.241 166.192L297.979 166.102L297.908 167.1ZM187.208 118.2L186.217 118.062L186.059 119.2H187.208V118.2ZM261.608 118.2V119.2H262.733L262.601 118.083L261.608 118.2ZM148.908 133.5C148.908 108.504 156.567 87.9908 169.974 73.7351C183.375 59.4852 202.599 51.4 225.908 51.4V49.4C202.117 49.4 182.341 57.6648 168.517 72.3649C154.698 87.0591 146.908 108.096 146.908 133.5H148.908ZM225.908 51.4C245.78 51.4 263.73 58.0688 276.864 71.6453C290 85.2237 298.412 105.811 299.008 133.821L301.008 133.779C300.404 105.389 291.866 84.2763 278.302 70.2547C264.735 56.2311 246.236 49.4 225.908 49.4V51.4ZM299.008 133.8V143.7H301.008V133.8H299.008ZM300.008 142.7H186.908V144.7H300.008V142.7ZM185.91 143.767C186.82 157.416 190.847 168.38 197.678 175.945C204.528 183.53 214.111 187.6 225.908 187.6V185.6C214.605 185.6 205.588 181.72 199.162 174.605C192.719 167.47 188.796 156.984 187.906 143.633L185.91 143.767ZM225.908 187.6C240.999 187.6 254.564 178.97 260.725 164.799L258.891 164.001C253.052 177.43 240.216 185.6 225.908 185.6V187.6ZM259.737 165.397L297.837 168.097L297.979 166.102L259.879 163.402L259.737 165.397ZM296.954 166.801C287.502 196.929 259.432 215.6 225.908 215.6V217.6C260.184 217.6 289.114 198.471 298.862 167.399L296.954 166.801ZM225.908 215.6C202.599 215.6 183.375 207.515 169.974 193.265C156.567 179.009 148.908 158.496 148.908 133.5H146.908C146.908 158.904 154.698 179.941 168.517 194.635C182.341 209.335 202.117 217.6 225.908 217.6V215.6ZM187.208 119.2H261.608V117.2H187.208V119.2ZM262.601 118.083C260.932 103.971 256.211 94.203 249.62 87.9614C243.024 81.7146 234.66 79.1 225.908 79.1V81.1C234.255 81.1 242.091 83.5854 248.245 89.4136C254.405 95.2469 258.984 104.529 260.615 118.317L262.601 118.083ZM225.908 79.1C214.87 79.1 205.757 82.7867 198.988 89.5554C192.233 96.3101 187.889 106.057 186.217 118.062L188.198 118.338C189.827 106.643 194.032 97.3399 200.402 90.9696C206.759 84.6133 215.345 81.1 225.908 81.1V79.1ZM469.133 133.8H470.133V133.789L470.133 133.779L469.133 133.8ZM469.133 143.7V144.7H470.133V143.7H469.133ZM356.033 143.7V142.7H354.964L355.035 143.767L356.033 143.7ZM428.933 164.4L429.003 163.402L428.298 163.352L428.016 164.001L428.933 164.4ZM467.033 167.1L467.987 167.399L468.366 166.192L467.104 166.102L467.033 167.1ZM356.333 118.2L355.342 118.062L355.184 119.2H356.333V118.2ZM430.733 118.2V119.2H431.858L431.726 118.083L430.733 118.2ZM318.033 133.5C318.033 108.504 325.692 87.9908 339.099 73.7351C352.5 59.4852 371.724 51.4 395.033 51.4V49.4C371.242 49.4 351.466 57.6648 337.642 72.3649C323.823 87.0591 316.033 108.096 316.033 133.5H318.033ZM395.033 51.4C414.905 51.4 432.855 58.0688 445.989 71.6453C459.125 85.2237 467.537 105.811 468.133 133.821L470.133 133.779C469.529 105.389 460.991 84.2763 447.427 70.2547C433.86 56.2311 415.361 49.4 395.033 49.4V51.4ZM468.133 133.8V143.7H470.133V133.8H468.133ZM469.133 142.7H356.033V144.7H469.133V142.7ZM355.035 143.767C355.945 157.416 359.972 168.38 366.803 175.945C373.653 183.53 383.236 187.6 395.033 187.6V185.6C383.73 185.6 374.713 181.72 368.287 174.605C361.844 167.47 357.921 156.984 357.031 143.633L355.035 143.767ZM395.033 187.6C410.124 187.6 423.688 178.97 429.85 164.799L428.016 164.001C422.177 177.43 409.341 185.6 395.033 185.6V187.6ZM428.862 165.397L466.962 168.097L467.104 166.102L429.003 163.402L428.862 165.397ZM466.079 166.801C456.627 196.929 428.557 215.6 395.033 215.6V217.6C429.309 217.6 458.239 198.471 467.987 167.399L466.079 166.801ZM395.033 215.6C371.724 215.6 352.5 207.515 339.099 193.265C325.692 179.009 318.033 158.496 318.033 133.5H316.033C316.033 158.904 323.823 179.941 337.642 194.635C351.466 209.335 371.242 217.6 395.033 217.6V215.6ZM356.333 119.2H430.733V117.2H356.333V119.2ZM431.726 118.083C430.057 103.971 425.336 94.203 418.745 87.9614C412.149 81.7146 403.785 79.1 395.033 79.1V81.1C403.38 81.1 411.216 83.5854 417.37 89.4136C423.53 95.2469 428.109 104.529 429.74 118.317L431.726 118.083ZM395.033 79.1C383.995 79.1 374.882 82.7867 368.113 89.5554C361.358 96.3101 357.014 106.057 355.342 118.062L357.323 118.338C358.952 106.643 363.157 97.3399 369.527 90.9696C375.884 84.6133 384.47 81.1 395.033 81.1V79.1ZM504.662 18V17H503.662V18H504.662ZM541.862 18H542.862V17H541.862V18ZM541.862 54H540.862V55H541.862V54ZM583.862 54H584.862V53H583.862V54ZM583.862 83.1V84.1H584.862V83.1H583.862ZM541.862 83.1V82.1H540.862V83.1H541.862ZM583.862 183.6H584.862V182.6H583.862V183.6ZM583.862 213V214H584.862V213H583.862ZM504.662 83.1H505.662V82.1H504.662V83.1ZM479.762 83.1H478.762V84.1H479.762V83.1ZM479.762 54V53H478.762V54H479.762ZM504.662 54V55H505.662V54H504.662ZM504.662 19H541.862V17H504.662V19ZM540.862 18V54H542.862V18H540.862ZM541.862 55H583.862V53H541.862V55ZM582.862 54V83.1H584.862V54H582.862ZM583.862 82.1H541.862V84.1H583.862V82.1ZM540.862 83.1V164.7H542.862V83.1H540.862ZM540.862 164.7C540.862 171.142 542.395 176.16 545.638 179.565C548.889 182.979 553.695 184.6 559.862 184.6V182.6C554.029 182.6 549.834 181.071 547.086 178.185C544.329 175.29 542.862 170.858 542.862 164.7H540.862ZM559.862 184.6H583.862V182.6H559.862V184.6ZM582.862 183.6V213H584.862V183.6H582.862ZM583.862 212H554.162V214H583.862V212ZM554.162 212C538.12 212 526.035 207.916 517.959 200.058C509.888 192.205 505.662 180.427 505.662 164.7H503.662C503.662 180.773 507.986 193.145 516.564 201.492C525.138 209.834 537.803 214 554.162 214V212ZM505.662 164.7V83.1H503.662V164.7H505.662ZM504.662 82.1H479.762V84.1H504.662V82.1ZM480.762 83.1V54H478.762V83.1H480.762ZM479.762 55H504.662V53H479.762V55ZM505.662 54V18H503.662V54H505.662ZM822.345 -1.52588e-05H823.345V-1.00002H822.345V-1.52588e-05ZM822.345 33.3V34.3H823.345V33.3H822.345ZM757.845 33.3V32.3H756.845V33.3H757.845ZM757.845 213V214H758.845V213H757.845ZM720.045 213H719.045V214H720.045V213ZM720.045 33.3H721.045V32.3H720.045V33.3ZM655.245 33.3H654.245V34.3H655.245V33.3ZM655.245 -1.52588e-05V-1.00002H654.245V-1.52588e-05H655.245ZM821.345 -1.52588e-05V33.3H823.345V-1.52588e-05H821.345ZM822.345 32.3H757.845V34.3H822.345V32.3ZM756.845 33.3V213H758.845V33.3H756.845ZM757.845 212H720.045V214H757.845V212ZM721.045 213V33.3H719.045V213H721.045ZM720.045 32.3H655.245V34.3H720.045V32.3ZM656.245 33.3V-1.52588e-05H654.245V33.3H656.245ZM655.245 0.999985H822.345V-1.00002H655.245V0.999985ZM964.578 133.8H965.578V133.789L965.578 133.779L964.578 133.8ZM964.578 143.7V144.7H965.578V143.7H964.578ZM851.478 143.7V142.7H850.409L850.48 143.767L851.478 143.7ZM924.378 164.4L924.449 163.402L923.743 163.352L923.461 164.001L924.378 164.4ZM962.478 167.1L963.432 167.399L963.811 166.192L962.549 166.102L962.478 167.1ZM851.778 118.2L850.788 118.062L850.629 119.2H851.778V118.2ZM926.178 118.2V119.2H927.303L927.171 118.083L926.178 118.2ZM813.478 133.5C813.478 108.504 821.138 87.9908 834.544 73.7351C847.945 59.4852 867.169 51.4 890.478 51.4V49.4C866.687 49.4 846.911 57.6648 833.087 72.3649C819.268 87.0591 811.478 108.096 811.478 133.5H813.478ZM890.478 51.4C910.35 51.4 928.301 58.0688 941.434 71.6453C954.57 85.2237 962.982 105.811 963.578 133.821L965.578 133.779C964.974 105.389 956.436 84.2763 942.872 70.2547C929.306 56.2311 910.806 49.4 890.478 49.4V51.4ZM963.578 133.8V143.7H965.578V133.8H963.578ZM964.578 142.7H851.478V144.7H964.578V142.7ZM850.48 143.767C851.39 157.416 855.417 168.38 862.248 175.945C869.098 183.53 878.681 187.6 890.478 187.6V185.6C879.175 185.6 870.158 181.72 863.733 174.605C857.289 167.47 853.366 156.984 852.476 143.633L850.48 143.767ZM890.478 187.6C905.57 187.6 919.134 178.97 925.295 164.799L923.461 164.001C917.622 177.43 904.787 185.6 890.478 185.6V187.6ZM924.307 165.397L962.407 168.097L962.549 166.102L924.449 163.402L924.307 165.397ZM961.524 166.801C952.072 196.929 924.002 215.6 890.478 215.6V217.6C924.754 217.6 953.684 198.471 963.432 167.399L961.524 166.801ZM890.478 215.6C867.169 215.6 847.945 207.515 834.544 193.265C821.138 179.009 813.478 158.496 813.478 133.5H811.478C811.478 158.904 819.268 179.941 833.087 194.635C846.911 209.335 866.687 217.6 890.478 217.6V215.6ZM851.778 119.2H926.178V117.2H851.778V119.2ZM927.171 118.083C925.502 103.971 920.781 94.203 914.191 87.9614C907.595 81.7146 899.231 79.1 890.478 79.1V81.1C898.826 81.1 906.661 83.5854 912.816 89.4136C918.975 95.2469 923.554 104.529 925.185 118.317L927.171 118.083ZM890.478 79.1C879.44 79.1 870.327 82.7867 863.559 89.5554C856.804 96.3101 852.459 106.057 850.788 118.062L852.769 118.338C854.397 106.643 858.602 97.3399 864.973 90.9696C871.329 84.6133 879.916 81.1 890.478 81.1V79.1ZM985.761 102.3L984.779 102.111L984.562 103.235L985.706 103.298L985.761 102.3ZM1141.46 185.4H1142.46V184.4H1141.46V185.4ZM1141.46 213L1141.49 213.999L1142.46 213.968V213H1141.46ZM1132.16 213.3V214.3H1132.18L1132.19 214.299L1132.16 213.3ZM1092.86 188.7L1093.86 188.602L1093.51 185.052L1091.96 188.267L1092.86 188.7ZM1043.36 123L1043.55 123.982L1043.56 123.98L1043.36 123ZM1088.06 114L1088.26 114.98L1089.07 114.817L1089.06 113.988L1088.06 114ZM1023.86 104.4L1023.81 105.398L1024.65 105.445L1024.84 104.619L1023.86 104.4ZM1088.66 140.1H1089.66V138.908L1088.49 139.115L1088.66 140.1ZM1058.06 145.5L1057.89 144.515L1057.88 144.517L1058.06 145.5ZM986.743 102.489C989.85 86.3612 997.676 73.6149 1009.42 64.8902C1021.17 56.1582 1036.92 51.4 1055.96 51.4V49.4C1036.6 49.4 1020.4 54.2418 1008.23 63.2848C996.046 72.3351 987.972 85.5388 984.779 102.111L986.743 102.489ZM1055.96 51.4C1078.6 51.4 1095.71 57.281 1107.16 68.5139C1118.61 79.7437 1124.56 96.4741 1124.56 118.5H1126.56C1126.56 96.1259 1120.51 78.8063 1108.56 67.086C1096.61 55.3689 1078.92 49.4 1055.96 49.4V51.4ZM1124.56 118.5V174H1126.56V118.5H1124.56ZM1124.56 174C1124.56 178.595 1125.47 181.77 1127.43 183.774C1129.4 185.789 1132.22 186.4 1135.46 186.4V184.4C1132.4 184.4 1130.27 183.811 1128.86 182.376C1127.45 180.93 1126.56 178.405 1126.56 174H1124.56ZM1135.46 186.4H1141.46V184.4H1135.46V186.4ZM1140.46 185.4V213H1142.46V185.4H1140.46ZM1141.43 212.001L1132.13 212.301L1132.19 214.299L1141.49 213.999L1141.43 212.001ZM1132.16 212.3C1125.69 212.3 1116.65 212.215 1108.94 209.182C1105.1 207.673 1101.63 205.447 1098.98 202.166C1096.33 198.891 1094.44 194.507 1093.86 188.602L1091.87 188.798C1092.48 195.043 1094.5 199.809 1097.42 203.424C1100.34 207.034 1104.13 209.44 1108.21 211.043C1116.32 214.235 1125.73 214.3 1132.16 214.3V212.3ZM1091.96 188.267C1084.65 203.464 1067.34 215.6 1040.36 215.6V217.6C1067.98 217.6 1086.07 205.136 1093.76 189.133L1091.96 188.267ZM1040.36 215.6C1024.63 215.6 1010.53 211.369 1000.39 203.726C990.269 196.101 984.061 185.063 984.061 171.3H982.061C982.061 185.737 988.603 197.349 999.184 205.324C1009.74 213.281 1024.29 217.6 1040.36 217.6V215.6ZM984.061 171.3C984.061 156.008 989.691 146.048 999.833 138.97C1010.07 131.827 1024.96 127.581 1043.55 123.982L1043.17 122.018C1024.57 125.619 1009.3 129.923 998.689 137.33C987.981 144.802 982.061 155.392 982.061 171.3H984.061ZM1043.56 123.98L1088.26 114.98L1087.86 113.02L1043.16 122.02L1043.56 123.98ZM1089.06 113.988C1088.91 101.725 1086.26 92.4432 1080.75 86.224C1075.21 79.978 1066.94 77 1055.96 77V79C1066.58 79 1074.21 81.872 1079.25 87.551C1084.31 93.2568 1086.91 101.975 1087.06 114.012L1089.06 113.988ZM1055.96 77C1047.23 77 1039.94 79.3 1034.33 83.9015C1028.71 88.5008 1024.87 95.3197 1022.89 104.181L1024.84 104.619C1026.75 96.0802 1030.41 89.6992 1035.59 85.4485C1040.78 81.2 1047.59 79 1055.96 79V77ZM1023.92 103.402L985.816 101.302L985.706 103.298L1023.81 105.398L1023.92 103.402ZM1020.46 170.1C1020.46 175.957 1022.93 181.206 1027.91 184.961C1032.86 188.695 1040.22 190.9 1049.96 190.9V188.9C1040.5 188.9 1033.61 186.755 1029.11 183.364C1024.64 179.994 1022.46 175.343 1022.46 170.1H1020.46ZM1049.96 190.9C1061.31 190.9 1071.28 186.826 1078.39 178.552C1085.49 170.294 1089.66 157.961 1089.66 141.6H1087.66C1087.66 157.639 1083.58 169.456 1076.88 177.248C1070.19 185.024 1060.81 188.9 1049.96 188.9V190.9ZM1089.66 141.6V140.1H1087.66V141.6H1089.66ZM1088.49 139.115L1057.89 144.515L1058.23 146.485L1088.83 141.085L1088.49 139.115ZM1057.88 144.517C1047.6 146.452 1038.27 147.977 1031.55 151.396C1028.15 153.123 1025.36 155.36 1023.42 158.424C1021.49 161.49 1020.46 165.304 1020.46 170.1H1022.46C1022.46 165.596 1023.42 162.172 1025.11 159.492C1026.81 156.809 1029.28 154.789 1032.45 153.179C1038.85 149.923 1047.82 148.448 1058.25 146.483L1057.88 144.517ZM1162.38 54V53H1161.38V54H1162.38ZM1195.98 54L1196.98 53.9647L1196.94 53H1195.98V54ZM1196.88 79.5L1195.88 79.5353L1197.8 79.8867L1196.88 79.5ZM1287.48 83.1L1286.53 83.4162L1287.44 86.1489L1288.42 83.4396L1287.48 83.1ZM1386.78 213V214H1387.78V213H1386.78ZM1349.58 213H1348.58V214H1349.58V213ZM1291.68 213V214H1292.68V213H1291.68ZM1257.48 213H1256.48V214H1257.48V213ZM1199.58 213V214H1200.58V213H1199.58ZM1162.38 213H1161.38V214H1162.38V213ZM1162.38 55H1195.98V53H1162.38V55ZM1194.98 54.0353L1195.88 79.5353L1197.88 79.4647L1196.98 53.9647L1194.98 54.0353ZM1197.8 79.8867C1205.44 61.6766 1221.26 51.4 1241.88 51.4V49.4C1220.5 49.4 1203.92 60.1234 1195.96 79.1133L1197.8 79.8867ZM1241.88 51.4C1252.95 51.4 1262.41 54.3491 1269.94 59.7977C1277.48 65.2468 1283.14 73.2375 1286.53 83.4162L1288.43 82.7838C1284.92 72.2624 1279.03 63.9032 1271.11 58.1772C1263.2 52.4509 1253.31 49.4 1241.88 49.4V51.4ZM1288.42 83.4396C1292.26 72.805 1298.22 64.8136 1306.01 59.4748C1313.8 54.1344 1323.49 51.4 1334.88 51.4V49.4C1323.17 49.4 1313.06 52.2155 1304.88 57.8252C1296.69 63.4363 1290.5 71.795 1286.54 82.7603L1288.42 83.4396ZM1334.88 51.4C1350.7 51.4 1363.38 56.6397 1372.12 66.5851C1380.87 76.5479 1385.78 91.3586 1385.78 110.7H1387.78C1387.78 91.0413 1382.79 75.7021 1373.62 65.2649C1364.43 54.8102 1351.16 49.4 1334.88 49.4V51.4ZM1385.78 110.7V213H1387.78V110.7H1385.78ZM1386.78 212H1349.58V214H1386.78V212ZM1350.58 213V122.4H1348.58V213H1350.58ZM1350.58 122.4C1350.58 108.674 1348.4 98.031 1343.94 90.7887C1339.44 83.473 1332.67 79.7 1323.78 79.7V81.7C1331.99 81.7 1338.11 85.127 1342.24 91.8363C1346.41 98.619 1348.58 108.826 1348.58 122.4H1350.58ZM1323.78 79.7C1313.17 79.7 1304.83 83.4822 1299.17 90.8143C1293.55 98.1054 1290.68 108.78 1290.68 122.4H1292.68C1292.68 109.02 1295.51 98.8446 1300.76 92.0357C1305.98 85.2678 1313.69 81.7 1323.78 81.7V79.7ZM1290.68 122.4V213H1292.68V122.4H1290.68ZM1291.68 212H1257.48V214H1291.68V212ZM1258.48 213V122.4H1256.48V213H1258.48ZM1258.48 122.4C1258.48 108.816 1256.22 98.1763 1251.73 90.8999C1247.2 83.5581 1240.43 79.7 1231.68 79.7V81.7C1239.73 81.7 1245.86 85.1919 1250.03 91.9501C1254.24 98.7737 1256.48 108.984 1256.48 122.4H1258.48ZM1231.68 79.7C1221.06 79.7 1212.72 83.6417 1207.07 91.0433C1201.45 98.4053 1198.58 109.076 1198.58 122.4H1200.58C1200.58 109.324 1203.4 99.1446 1208.66 92.2567C1213.89 85.4083 1221.6 81.7 1231.68 81.7V79.7ZM1198.58 122.4V213H1200.58V122.4H1198.58ZM1199.58 212H1162.38V214H1199.58V212ZM1163.38 213V54H1161.38V213H1163.38ZM1509.45 104.7L1508.47 104.882L1508.63 105.741L1509.5 105.699L1509.45 104.7ZM1449.45 99.6L1450.45 99.5778V99.5768L1449.45 99.6ZM1482.15 121.5L1481.96 122.482L1481.97 122.484L1481.98 122.486L1482.15 121.5ZM1407.15 162.6L1407.1 161.602L1406.07 161.658L1406.15 162.68L1407.15 162.6ZM1445.25 160.5L1446.24 160.324L1446.08 159.453L1445.2 159.502L1445.25 160.5ZM1510.65 169.5H1511.65V169.49L1511.65 169.481L1510.65 169.5ZM1475.85 147.9L1476.06 146.923L1476.06 146.921L1476.05 146.919L1475.85 147.9ZM1546.95 102.9L1547 103.899L1548.11 103.845L1547.94 102.745L1546.95 102.9ZM1510.43 104.518C1507.33 87.7479 1491.83 77.9 1476.45 77.9V79.9C1491.07 79.9 1505.57 89.2521 1508.47 104.882L1510.43 104.518ZM1476.45 77.9C1468.64 77.9 1461.6 79.888 1456.51 83.6051C1451.4 87.3419 1448.29 92.8154 1448.45 99.6232L1450.45 99.5768C1450.31 93.4846 1453.05 88.608 1457.69 85.2199C1462.35 81.812 1468.96 79.9 1476.45 79.9V77.9ZM1448.45 99.6222C1448.61 106.875 1453.23 111.863 1459.58 115.363C1465.91 118.855 1474.14 120.978 1481.96 122.482L1482.34 120.518C1474.56 119.022 1466.59 116.945 1460.55 113.612C1454.52 110.287 1450.59 105.825 1450.45 99.5778L1448.45 99.6222ZM1481.98 122.486C1503.12 126.084 1519.66 130.634 1530.91 138.047C1536.52 141.742 1540.79 146.136 1543.67 151.464C1546.54 156.792 1548.05 163.111 1548.05 170.7H1550.05C1550.05 162.839 1548.49 156.183 1545.43 150.514C1542.37 144.846 1537.84 140.22 1532.01 136.378C1520.39 128.716 1503.48 124.116 1482.32 120.514L1481.98 122.486ZM1548.05 170.7C1548.05 186.058 1540.55 197.23 1528.54 204.611C1516.49 212.019 1499.89 215.6 1481.85 215.6V217.6C1500.11 217.6 1517.11 213.981 1529.59 206.314C1542.11 198.62 1550.05 186.842 1550.05 170.7H1548.05ZM1481.85 215.6C1460.55 215.6 1442.77 210.534 1430.01 201.387C1417.27 192.256 1409.47 179.022 1408.15 162.52L1406.15 162.68C1407.53 179.778 1415.63 193.544 1428.84 203.013C1442.03 212.466 1460.25 217.6 1481.85 217.6V215.6ZM1407.21 163.598L1445.31 161.498L1445.2 159.502L1407.1 161.602L1407.21 163.598ZM1444.27 160.676C1445.8 169.287 1449.82 176.344 1456.11 181.239C1462.4 186.13 1470.88 188.8 1481.25 188.8V186.8C1471.22 186.8 1463.2 184.22 1457.34 179.661C1451.48 175.106 1447.7 168.513 1446.24 160.324L1444.27 160.676ZM1481.25 188.8C1487.95 188.8 1495.47 187.586 1501.35 184.605C1507.27 181.609 1511.65 176.747 1511.65 169.5H1509.65C1509.65 175.753 1505.94 180.041 1500.45 182.82C1494.93 185.614 1487.75 186.8 1481.25 186.8V188.8ZM1511.65 169.481C1511.57 165.372 1510.32 162.08 1508.19 159.424C1506.07 156.785 1503.12 154.828 1499.74 153.29C1493.01 150.232 1484.23 148.705 1476.06 146.923L1475.64 148.877C1483.97 150.695 1492.44 152.168 1498.91 155.11C1502.13 156.572 1504.77 158.365 1506.63 160.676C1508.47 162.97 1509.58 165.828 1509.65 169.519L1511.65 169.481ZM1476.05 146.919C1457.3 143.169 1441.26 138.846 1429.92 131.788C1424.26 128.27 1419.81 124.092 1416.76 118.995C1413.72 113.903 1412.05 107.841 1412.05 100.5H1410.05C1410.05 108.159 1411.8 114.584 1415.04 120.021C1418.29 125.452 1423 129.842 1428.86 133.487C1440.54 140.754 1456.9 145.131 1475.65 148.881L1476.05 146.919ZM1412.05 100.5C1412.05 85.2092 1418.36 72.909 1429.76 64.4015C1441.2 55.8699 1457.84 51.1 1478.55 51.1V49.1C1457.56 49.1 1440.45 53.9301 1428.57 62.7984C1416.64 71.691 1410.05 84.5908 1410.05 100.5H1412.05ZM1478.55 51.1C1514.75 51.1 1540.95 71.228 1545.96 103.055L1547.94 102.745C1542.75 69.772 1515.55 49.1 1478.55 49.1V51.1ZM1546.9 101.901L1509.4 103.701L1509.5 105.699L1547 103.899L1546.9 101.901Z" fill="url(#paint0_radial_1038_942)" mask="url(#path-1-outside-1_1038_942)"/>
</g>
<defs>
<radialGradient id="paint0_radial_1038_942" cx="0" cy="0" r="1" gradientUnits="userSpaceOnUse" gradientTransform="translate(720.5 108) rotate(90) scale(186 841.5)">
<stop stop-color="white"/>
<stop offset="1" stop-color="white" stop-opacity="0"/>
</radialGradient>
</defs>
</svg>
