
<svg width="50" height="26" viewBox="0 0 50 26" fill="none" xmlns="http://www.w3.org/2000/svg">
<path fill-rule="evenodd" clip-rule="evenodd" d="M4.96385 0C2.22239 0 0 2.18261 0 4.875V21.125C0 23.8174 2.22239 26 4.96385 26H16.5462C23.8567 26 29.7831 20.1797 29.7831 13C29.7831 5.8203 23.8567 0 16.5462 0H4.96385Z" fill="#F34321"/>
<path fill-rule="evenodd" clip-rule="evenodd" d="M44.5401 0C47.2815 0 49.5039 2.18261 49.5039 4.875V21.125C49.5039 23.8174 47.2815 26 44.5401 26H32.9577C25.6472 26 19.7208 20.1797 19.7208 13C19.7208 5.8203 25.6472 0 32.9577 0H44.5401Z" fill="#F34321"/>
<mask id="mask0_944_1743" style="mask-type:alpha" maskUnits="userSpaceOnUse" x="0" y="0" width="30" height="26">
<path fill-rule="evenodd" clip-rule="evenodd" d="M4.96385 0C2.22239 0 0 2.18261 0 4.875V21.125C0 23.8174 2.22239 26 4.96385 26H16.5462C23.8567 26 29.7831 20.1797 29.7831 13C29.7831 5.8203 23.8567 0 16.5462 0H4.96385Z" fill="#5EC9C9"/>
</mask>
<g mask="url(#mask0_944_1743)">
<path fill-rule="evenodd" clip-rule="evenodd" d="M44.5401 0C47.2815 0 49.5039 2.18261 49.5039 4.875V21.125C49.5039 23.8174 47.2815 26 44.5401 26H32.9577C25.6472 26 19.7208 20.1797 19.7208 13C19.7208 5.8203 25.6472 0 32.9577 0H44.5401Z" fill="#B02E2E"/>
</g>
</svg>
