
<svg width="793" height="595" viewBox="0 0 793 595" fill="none" xmlns="http://www.w3.org/2000/svg">
<path opacity="0.3" fill-rule="evenodd" clip-rule="evenodd" d="M783 594H703C698.029 594 694 589.971 694 585V505C694 500.029 698.029 496 703 496H783C787.971 496 792 500.029 792 505V585C792 589.971 787.971 594 783 594ZM693.5 501.869C694.35 499.289 696.221 497.173 698.636 496H688.364C690.779 497.173 692.65 499.289 693.5 501.869ZM684 496H604C599.029 496 595 500.029 595 505V585C595 589.971 599.029 594 604 594H684C688.971 594 693 589.971 693 585V505C693 500.029 688.971 496 684 496ZM600.869 495.5C597.865 496.49 595.49 498.865 594.5 501.869C593.51 498.865 591.135 496.49 588.131 495.5C591.135 494.51 593.51 492.135 594.5 489.131C595.49 492.135 597.865 494.51 600.869 495.5ZM505 496H585C589.971 496 594 500.029 594 505V585C594 589.971 589.971 594 585 594H505C500.029 594 496 589.971 496 585V505C496 500.029 500.029 496 505 496ZM496 500.636C497.173 498.221 499.289 496.35 501.869 495.5C499.289 494.65 497.173 492.779 496 490.364V500.636ZM495 486V406C495 401.029 490.971 397 486 397H406C401.029 397 397 401.029 397 406V486V505V585C397 589.971 401.029 594 406 594H486C490.971 594 495 589.971 495 585V505V486ZM390.131 495.5C392.711 494.65 394.827 492.779 396 490.364V500.636C394.827 498.221 392.711 496.35 390.131 495.5ZM307 496H387C391.971 496 396 500.029 396 505V585C396 589.971 391.971 594 387 594H307C302.029 594 298 589.971 298 585V505C298 500.029 302.029 496 307 496ZM297.5 501.869C298.49 498.865 300.865 496.49 303.869 495.5C300.865 494.51 298.49 492.135 297.5 489.131C296.51 492.135 294.135 494.51 291.131 495.5C294.135 496.49 296.51 498.865 297.5 501.869ZM288 496H208C203.029 496 199 500.029 199 505V585C199 589.971 203.029 594 208 594H288C292.971 594 297 589.971 297 585V505C297 500.029 292.971 496 288 496ZM203.636 496C201.221 497.173 199.35 499.289 198.5 501.869C197.65 499.289 195.779 497.173 193.364 496H203.636ZM109 496H189C193.971 496 198 500.029 198 505V585C198 589.971 193.971 594 189 594H109C104.029 594 100 589.971 100 585V505C100 500.029 104.029 496 109 496ZM99.5 501.869C100.49 498.865 102.865 496.49 105.869 495.5C102.865 494.51 100.49 492.135 99.5 489.131C98.5104 492.135 96.1354 494.51 93.1312 495.5C96.1354 496.49 98.5104 498.865 99.5 501.869ZM90 496H10C5.02942 496 1 500.029 1 505V585C1 589.971 5.02942 594 10 594H90C94.9706 594 99 589.971 99 585V505C99 500.029 94.9706 496 90 496ZM99.5 588.131C100.814 592.12 104.571 595 109 595H189C193.429 595 197.186 592.12 198.5 588.131C199.814 592.12 203.571 595 208 595H288C292.429 595 296.186 592.12 297.5 588.131C298.814 592.12 302.571 595 307 595H387C391.429 595 395.186 592.12 396.5 588.131C397.814 592.12 401.571 595 406 595H486C490.429 595 494.186 592.12 495.5 588.131C496.814 592.12 500.571 595 505 595H585C589.429 595 593.186 592.12 594.5 588.131C595.814 592.12 599.571 595 604 595H684C688.429 595 692.186 592.12 693.5 588.131C694.814 592.12 698.571 595 703 595H783C788.523 595 793 590.523 793 585V505C793 500.571 790.12 496.814 786.131 495.5C790.12 494.186 793 490.429 793 486V406C793 401.571 790.12 397.814 786.131 396.5C790.12 395.186 793 391.429 793 387V307C793 302.571 790.12 298.814 786.131 297.5C790.12 296.186 793 292.429 793 288V109C793 104.571 790.12 100.814 786.131 99.5C790.12 98.1859 793 94.4293 793 90V10C793 4.47717 788.523 0 783 0H703C698.571 0 694.814 2.87964 693.5 6.86884C692.186 2.87964 688.429 0 684 0H604C599.571 0 595.814 2.87964 594.5 6.86884C593.186 2.87964 589.429 0 585 0H505C500.571 0 496.814 2.87964 495.5 6.86884C494.186 2.87964 490.429 0 486 0H406C401.571 0 397.814 2.87964 396.5 6.86884C395.186 2.87964 391.429 0 387 0H307C302.571 0 298.814 2.87964 297.5 6.86884C296.186 2.87964 292.429 0 288 0H208C203.571 0 199.814 2.87964 198.5 6.86884C197.186 2.87964 193.429 0 189 0H109C104.571 0 100.814 2.87964 99.5 6.86884C98.1859 2.87964 94.4293 0 90 0H10C4.47717 0 0 4.47717 0 10V90C0 94.4293 2.87964 98.1859 6.86884 99.5C2.87964 100.814 0 104.571 0 109V189C0 193.429 2.87964 197.186 6.86884 198.5C2.87964 199.814 0 203.571 0 208V387C0 391.429 2.87964 395.186 6.86884 396.5C2.87964 397.814 0 401.571 0 406V486C0 490.429 2.87964 494.186 6.86884 495.5C2.87964 496.814 0 500.571 0 505V585C0 590.523 4.47717 595 10 595H90C94.4293 595 98.1859 592.12 99.5 588.131ZM10 495H90C94.9706 495 99 490.971 99 486V406C99 401.029 94.9706 397 90 397H10C5.02942 397 1 401.029 1 406V486C1 490.971 5.02942 495 10 495ZM189 495H109C104.029 495 100 490.971 100 486V406C100 401.029 104.029 397 109 397H189H208H288C292.971 397 297 401.029 297 406V486C297 490.971 292.971 495 288 495H208H189ZM387 495H307C302.029 495 298 490.971 298 486V406C298 401.029 302.029 397 307 397H387C391.971 397 396 401.029 396 406V486C396 490.971 391.971 495 387 495ZM396.5 402.869C397.35 400.289 399.221 398.173 401.636 397H391.364C393.779 398.173 395.65 400.289 396.5 402.869ZM406 396H486C490.971 396 495 391.971 495 387V307C495 302.029 490.971 298 486 298H406H387H307C302.029 298 298 302.029 298 307V387C298 391.971 302.029 396 307 396H387H406ZM489.131 396.5C492.135 397.49 494.51 399.865 495.5 402.869C496.49 399.865 498.865 397.49 501.869 396.5C498.865 395.51 496.49 393.135 495.5 390.131C494.51 393.135 492.135 395.51 489.131 396.5ZM496 406V486C496 490.971 500.029 495 505 495H585C589.971 495 594 490.971 594 486V406C594 401.029 589.971 397 585 397H505C500.029 397 496 401.029 496 406ZM604 495H684H703H783C787.971 495 792 490.971 792 486V406C792 401.029 787.971 397 783 397H703H684H604C599.029 397 595 401.029 595 406V486C595 490.971 599.029 495 604 495ZM1 109C1 104.029 5.02942 100 10 100H90C94.9706 100 99 104.029 99 109V189C99 193.971 94.9706 198 90 198H10C5.02942 198 1 193.971 1 189V109ZM99.5 105.869C98.5104 102.865 96.1354 100.49 93.1312 99.5C96.1354 98.5104 98.5104 96.1354 99.5 93.1312C100.49 96.1354 102.865 98.5104 105.869 99.5C102.865 100.49 100.49 102.865 99.5 105.869ZM109 99C104.029 99 100 94.9706 100 90V10C100 5.02942 104.029 1 109 1H189C193.971 1 198 5.02942 198 10V90C198 94.9706 193.971 99 189 99H109ZM90 1C94.9706 1 99 5.02942 99 10V90C99 94.9706 94.9706 99 90 99H10C5.02942 99 1 94.9706 1 90V10C1 5.02942 5.02942 1 10 1H90ZM99.5 192.131C98.6501 194.711 96.7786 196.827 94.3641 198H104.636C102.221 196.827 100.35 194.711 99.5 192.131ZM90 199H10C5.02942 199 1 203.029 1 208V387C1 391.971 5.02942 396 10 396H90H109H189C193.971 396 198 391.971 198 387V307V288V208C198 203.029 193.971 199 189 199H109H90ZM104.636 397C102.221 398.173 100.35 400.289 99.5 402.869C98.6501 400.289 96.7786 398.173 94.3641 397H104.636ZM199 10V90C199 94.9706 203.029 99 208 99H288C292.971 99 297 94.9706 297 90V10C297 5.02942 292.971 1 288 1H208C203.029 1 199 5.02942 199 10ZM192.131 99.5C195.135 98.5104 197.51 96.1354 198.5 93.1312C199.49 96.1354 201.865 98.5104 204.869 99.5C201.865 100.49 199.49 102.865 198.5 105.869C197.51 102.865 195.135 100.49 192.131 99.5ZM189 100H109C104.029 100 100 104.029 100 109V189C100 193.971 104.029 198 109 198H189C193.971 198 198 193.971 198 189V109C198 104.029 193.971 100 189 100ZM192.131 198.5C195.135 197.51 197.51 195.135 198.5 192.131C199.49 195.135 201.865 197.51 204.869 198.5C201.865 199.49 199.49 201.865 198.5 204.869C197.51 201.865 195.135 199.49 192.131 198.5ZM199 189V109C199 104.029 203.029 100 208 100H288H307H387H406H486C490.971 100 495 104.029 495 109V189C495 193.971 490.971 198 486 198H406H387H307H288H208C203.029 198 199 193.971 199 189ZM199 302.636C200.173 300.221 202.289 298.35 204.869 297.5C202.289 296.65 200.173 294.779 199 292.364V302.636ZM199 307V387C199 391.971 203.029 396 208 396H288C292.971 396 297 391.971 297 387V307C297 302.029 292.971 298 288 298H208C203.029 298 199 302.029 199 307ZM198.5 390.131C197.65 392.711 195.779 394.827 193.364 396H203.636C201.221 394.827 199.35 392.711 198.5 390.131ZM297.5 93.1312C298.35 95.7112 300.221 97.8271 302.636 99H292.364C294.779 97.8271 296.65 95.7112 297.5 93.1312ZM307 99C302.029 99 298 94.9706 298 90V10C298 5.02942 302.029 1 307 1H387C391.971 1 396 5.02942 396 10V90C396 94.9706 391.971 99 387 99H307ZM288 199H208C203.029 199 199 203.029 199 208V288C199 292.971 203.029 297 208 297H288C292.971 297 297 292.971 297 288V208C297 203.029 292.971 199 288 199ZM297.5 204.869C296.65 202.289 294.779 200.173 292.364 199H302.636C300.221 200.173 298.35 202.289 297.5 204.869ZM297.5 291.131C296.51 294.135 294.135 296.51 291.131 297.5C294.135 298.49 296.51 300.865 297.5 303.869C298.49 300.865 300.865 298.49 303.869 297.5C300.865 296.51 298.49 294.135 297.5 291.131ZM291.131 396.5C294.135 395.51 296.51 393.135 297.5 390.131C298.49 393.135 300.865 395.51 303.869 396.5C300.865 397.49 298.49 399.865 297.5 402.869C296.51 399.865 294.135 397.49 291.131 396.5ZM391.364 99C393.779 97.8271 395.65 95.7112 396.5 93.1312C397.35 95.7112 399.221 97.8271 401.636 99H391.364ZM397 90V10C397 5.02942 401.029 1 406 1H486C490.971 1 495 5.02942 495 10V90C495 94.9706 490.971 99 486 99H406C401.029 99 397 94.9706 397 90ZM387 199H307C302.029 199 298 203.029 298 208V288C298 292.971 302.029 297 307 297H387C391.971 297 396 292.971 396 288V208C396 203.029 391.971 199 387 199ZM396.5 204.869C395.65 202.289 393.779 200.173 391.364 199H401.636C399.221 200.173 397.35 202.289 396.5 204.869ZM397 208V288C397 292.971 401.029 297 406 297H486C490.971 297 495 292.971 495 288V208C495 203.029 490.971 199 486 199H406C401.029 199 397 203.029 397 208ZM396.5 291.131C395.65 293.711 393.779 295.827 391.364 297H401.636C399.221 295.827 397.35 293.711 396.5 291.131ZM495.5 93.1312C494.51 96.1354 492.135 98.5104 489.131 99.5C492.135 100.49 494.51 102.865 495.5 105.869C496.49 102.865 498.865 100.49 501.869 99.5C498.865 98.5104 496.49 96.1354 495.5 93.1312ZM495.5 204.869C494.51 201.865 492.135 199.49 489.131 198.5C492.135 197.51 494.51 195.135 495.5 192.131C496.49 195.135 498.865 197.51 501.869 198.5C498.865 199.49 496.49 201.865 495.5 204.869ZM505 198C500.029 198 496 193.971 496 189V109C496 104.029 500.029 100 505 100H585C589.971 100 594 104.029 594 109V189C594 193.971 589.971 198 585 198H505ZM496 208V288C496 292.971 500.029 297 505 297H585C589.971 297 594 292.971 594 288V208C594 203.029 589.971 199 585 199H505C500.029 199 496 203.029 496 208ZM489.131 297.5C492.135 296.51 494.51 294.135 495.5 291.131C496.49 294.135 498.865 296.51 501.869 297.5C498.865 298.49 496.49 300.865 495.5 303.869C494.51 300.865 492.135 298.49 489.131 297.5ZM505 396C500.029 396 496 391.971 496 387V307C496 302.029 500.029 298 505 298H585C589.971 298 594 302.029 594 307V387C594 391.971 589.971 396 585 396H505ZM595 10V90C595 94.9706 599.029 99 604 99H684C688.971 99 693 94.9706 693 90V10C693 5.02942 688.971 1 684 1H604C599.029 1 595 5.02942 595 10ZM594 90V10C594 5.02942 589.971 1 585 1H505C500.029 1 496 5.02942 496 10V90C496 94.9706 500.029 99 505 99H585C589.971 99 594 94.9706 594 90ZM588.131 99.5C591.135 98.5104 593.51 96.1354 594.5 93.1312C595.49 96.1354 597.865 98.5104 600.869 99.5C597.865 100.49 595.49 102.865 594.5 105.869C593.51 102.865 591.135 100.49 588.131 99.5ZM594.5 204.869C593.51 201.865 591.135 199.49 588.131 198.5C591.135 197.51 593.51 195.135 594.5 192.131C595.49 195.135 597.865 197.51 600.869 198.5C597.865 199.49 595.49 201.865 594.5 204.869ZM604 198C599.029 198 595 193.971 595 189V109C595 104.029 599.029 100 604 100H684C688.971 100 693 104.029 693 109V189C693 193.971 688.971 198 684 198H604ZM594.5 291.131C593.51 294.135 591.135 296.51 588.131 297.5C591.135 298.49 593.51 300.865 594.5 303.869C595.49 300.865 597.865 298.49 600.869 297.5C597.865 296.51 595.49 294.135 594.5 291.131ZM594.5 402.869C593.51 399.865 591.135 397.49 588.131 396.5C591.135 395.51 593.51 393.135 594.5 390.131C595.49 393.135 597.865 395.51 600.869 396.5C597.865 397.49 595.49 399.865 594.5 402.869ZM604 396C599.029 396 595 391.971 595 387V307C595 302.029 599.029 298 604 298H684C688.971 298 693 302.029 693 307V387C693 391.971 688.971 396 684 396H604ZM693.5 105.869C692.51 102.865 690.135 100.49 687.131 99.5C690.135 98.5104 692.51 96.1354 693.5 93.1312C694.49 96.1354 696.865 98.5104 699.869 99.5C696.865 100.49 694.49 102.865 693.5 105.869ZM703 99C698.029 99 694 94.9706 694 90V10C694 5.02942 698.029 1 703 1H783C787.971 1 792 5.02942 792 10V90C792 94.9706 787.971 99 783 99H703ZM694 109V189V208V288C694 292.971 698.029 297 703 297H783C787.971 297 792 292.971 792 288V109C792 104.029 787.971 100 783 100H703C698.029 100 694 104.029 694 109ZM687.131 198.5C689.711 197.65 691.827 195.779 693 193.364V203.636C691.827 201.221 689.711 199.35 687.131 198.5ZM684 199H604C599.029 199 595 203.029 595 208V288C595 292.971 599.029 297 604 297H684C688.971 297 693 292.971 693 288V208C693 203.029 688.971 199 684 199ZM693.5 303.869C692.51 300.865 690.135 298.49 687.131 297.5C690.135 296.51 692.51 294.135 693.5 291.131C694.49 294.135 696.865 296.51 699.869 297.5C696.865 298.49 694.49 300.865 693.5 303.869ZM694 307V387C694 391.971 698.029 396 703 396H783C787.971 396 792 391.971 792 387V307C792 302.029 787.971 298 783 298H703C698.029 298 694 302.029 694 307ZM688.364 396C690.779 394.827 692.65 392.711 693.5 390.131C694.35 392.711 696.221 394.827 698.636 396H688.364Z" fill="url(#paint0_radial_846_341)"/>
<defs>
<radialGradient id="paint0_radial_846_341" cx="0" cy="0" r="1" gradientUnits="userSpaceOnUse" gradientTransform="translate(396 336) rotate(-28.1703) scale(654.53 711.127)">
<stop stop-color="#00D1FF" stop-opacity="0.9"/>
<stop offset="0.504841" stop-color="#00030F" stop-opacity="0"/>
</radialGradient>
</defs>
</svg>
