<svg xmlns="http://www.w3.org/2000/svg" viewBox="0 0 1200 800" width="1200" height="800">
  <!-- Red background -->
  <rect width="1200" height="800" fill="#E30A17" />
  <!-- White crescent -->
  <path
    fill="#fff"
    d="M600 185c-104.272 0-189 84.728-189 189 0 52.52 21.56 100.276 56.263 134.697a181.78 181.78 0 01-28.715 6.662l-3.888.29c-104.272 0-189 84.728-189 189s84.728 189 189 189c41.894 0 80.82-13.624 112.677-36.67l2.845-2.06c8.077-6.015 15.662-12.745 22.708-20.071 30.68-33.687 48.77-77.48 48.77-123.062 0-104.272-84.728-189-189-189zm0 71c78.482 0 143.276 64.794 143.276 143.276 0 36.158-13.386 69.026-35.534 94.265-3.18 4.065-6.525 8.035-10.037 11.817-7.39 8.021-15.308 15.392-23.694 22.06l-1.752 1.405c-25.24 20.277-54.673 34.791-86.26 42.59l-1.814.382c-39.027-30.725-87.948-48.736-140.128-48.736-78.482 0-143.276-64.794-143.276-143.276S521.518 114 600 114zm0 360c-60.419 0-110-49.581-110-110s49.581-110 110-110 110 49.581 110 110-49.581 110-110 110z"
  />
</svg>